STARTFONT 2.1
FONT -FontForge-Open Sans-Bold-R-Normal-Sans--24-240-72-72-P-149-ISO10646-1
SIZE 24 72 72
FONTBOUNDINGBOX 47 33 -15 -7
COMMENT "Generated by fontforge, http://fontforge.sourceforge.net"
COMMENT "Digitized data copyright (c) 2010-2011, Google Corporation."
STARTPROPERTIES 40
FOUNDRY "FontForge"
FAMILY_NAME "Open Sans"
WEIGHT_NAME "Bold"
SLANT "R"
SETWIDTH_NAME "Normal"
ADD_STYLE_NAME "Sans"
PIXEL_SIZE 24
POINT_SIZE 240
RESOLUTION_X 72
RESOLUTION_Y 72
SPACING "P"
AVERAGE_WIDTH 149
CHARSET_REGISTRY "ISO10646"
CHARSET_ENCODING "1"
FONTNAME_REGISTRY ""
CHARSET_COLLECTIONS "ISO8859-2 ISO8859-5 ISO8859-7 ISO8859-9 ISO8859-4 ISO10646-1"
FONT_NAME "OpenSans-Bold"
FACE_NAME "Open Sans Bold"
COPYRIGHT "Digitized data copyright (c) 2010-2011, Google Corporation."
FONT_VERSION "1.10"
FONT_ASCENT 19
FONT_DESCENT 5
UNDERLINE_POSITION -2
UNDERLINE_THICKNESS 2
X_HEIGHT 12
CAP_HEIGHT 16
RAW_ASCENT 799
RAW_DESCENT 200
NORM_SPACE 6
RELATIVE_WEIGHT 70
RELATIVE_SETWIDTH 50
SUPERSCRIPT_X 0
SUPERSCRIPT_Y 11
SUPERSCRIPT_SIZE 15
SUBSCRIPT_X 0
SUBSCRIPT_Y 3
SUBSCRIPT_SIZE 15
FIGURE_WIDTH 14
AVG_LOWERCASE_WIDTH 149
AVG_UPPERCASE_WIDTH 170
ENDPROPERTIES
CHARS 938
STARTCHAR space
ENCODING 32
SWIDTH 259 0
DWIDTH 6 0
BBX 1 1 0 0
BITMAP
00
ENDCHAR
STARTCHAR exclam
ENCODING 33
SWIDTH 286 0
DWIDTH 7 0
BBX 4 17 1 0
BITMAP
F0
70
70
70
70
70
70
70
70
70
70
00
00
70
F0
F0
70
ENDCHAR
STARTCHAR quotedbl
ENCODING 34
SWIDTH 472 0
DWIDTH 11 0
BBX 8 6 2 11
BITMAP
E7
E7
E7
E7
C6
C6
ENDCHAR
STARTCHAR numbersign
ENCODING 35
SWIDTH 645 0
DWIDTH 16 0
BBX 14 17 1 0
BITMAP
0630
0630
0E70
0E70
0E70
7FFC
7FFC
1CE0
1CE0
1CE0
FFFC
FFFC
39C0
39C0
39C0
3180
3180
ENDCHAR
STARTCHAR dollar
ENCODING 36
SWIDTH 570 0
DWIDTH 14 0
BBX 12 19 1 -1
BITMAP
0600
0600
1FC0
7FF0
FFE0
F620
F600
FE00
7F00
3FC0
07E0
07F0
0670
C6F0
FFF0
FFE0
7F80
0600
0600
ENDCHAR
STARTCHAR percent
ENCODING 37
SWIDTH 900 0
DWIDTH 22 0
BBX 20 17 1 0
BITMAP
3C0700
7E0600
FE0E00
E71C00
E71C00
E73800
E73BC0
E777E0
FE67F0
7EEE70
3DCE70
01CE70
038E70
030E70
0707F0
0607E0
0E03C0
ENDCHAR
STARTCHAR ampersand
ENCODING 38
SWIDTH 750 0
DWIDTH 18 0
BBX 16 17 1 0
BITMAP
0F80
3FC0
3FE0
78E0
78E0
39E0
3FC0
1F80
3F0F
7F8F
F3CE
F1FE
F0FC
F87C
FFFC
7FFE
1FCF
ENDCHAR
STARTCHAR quotesingle
ENCODING 39
SWIDTH 266 0
DWIDTH 6 0
BBX 3 6 2 11
BITMAP
E0
E0
E0
E0
C0
C0
ENDCHAR
STARTCHAR parenleft
ENCODING 40
SWIDTH 338 0
DWIDTH 8 0
BBX 6 21 1 -4
BITMAP
1C
38
38
70
70
F0
E0
E0
E0
E0
E0
E0
E0
E0
E0
F0
70
70
38
38
1C
ENDCHAR
STARTCHAR parenright
ENCODING 41
SWIDTH 338 0
DWIDTH 8 0
BBX 6 21 1 -4
BITMAP
E0
70
70
38
38
38
1C
1C
1C
1C
1C
1C
1C
1C
1C
3C
38
38
70
70
E0
ENDCHAR
STARTCHAR asterisk
ENCODING 42
SWIDTH 544 0
DWIDTH 13 0
BBX 11 11 1 7
BITMAP
0E00
0E00
0E00
CE60
FFE0
FFE0
1F00
1F00
3B80
7BC0
1100
ENDCHAR
STARTCHAR plus
ENCODING 43
SWIDTH 570 0
DWIDTH 14 0
BBX 12 12 1 3
BITMAP
0600
0600
0600
0600
0600
FFF0
FFF0
FFF0
0600
0600
0600
0600
ENDCHAR
STARTCHAR comma
ENCODING 44
SWIDTH 290 0
DWIDTH 7 0
BBX 4 6 1 -3
BITMAP
70
70
F0
E0
E0
E0
ENDCHAR
STARTCHAR hyphen
ENCODING 45
SWIDTH 321 0
DWIDTH 8 0
BBX 6 3 1 5
BITMAP
FC
FC
FC
ENDCHAR
STARTCHAR period
ENCODING 46
SWIDTH 285 0
DWIDTH 7 0
BBX 4 4 1 0
BITMAP
70
F0
F0
70
ENDCHAR
STARTCHAR slash
ENCODING 47
SWIDTH 413 0
DWIDTH 10 0
BBX 10 17 0 0
BITMAP
03C0
0380
0380
0780
0700
0700
0E00
0E00
1E00
1C00
1C00
3C00
3800
7800
7000
7000
F000
ENDCHAR
STARTCHAR zero
ENCODING 48
SWIDTH 570 0
DWIDTH 14 0
BBX 12 17 1 0
BITMAP
1F80
3FC0
7FE0
79E0
F0F0
F0F0
F0F0
F0F0
E070
E0F0
F0F0
F0F0
F0F0
79E0
7FE0
3FC0
1F80
ENDCHAR
STARTCHAR one
ENCODING 49
SWIDTH 570 0
DWIDTH 14 0
BBX 8 17 2 0
BITMAP
0F
1F
3F
7F
FF
EF
0F
0F
0F
0F
0F
0F
0F
0F
0F
0F
0F
ENDCHAR
STARTCHAR two
ENCODING 50
SWIDTH 570 0
DWIDTH 14 0
BBX 12 17 1 0
BITMAP
1F80
7FC0
FFE0
70F0
00F0
00F0
00E0
01E0
03C0
0780
0F00
1E00
3C00
7800
FFF0
FFF0
FFF0
ENDCHAR
STARTCHAR three
ENCODING 51
SWIDTH 570 0
DWIDTH 14 0
BBX 12 17 1 0
BITMAP
3F80
FFC0
FFE0
61E0
00F0
00E0
01E0
1FC0
1F80
1FE0
01F0
00F0
00F0
C1F0
FFE0
FFC0
7F80
ENDCHAR
STARTCHAR four
ENCODING 52
SWIDTH 570 0
DWIDTH 14 0
BBX 14 17 0 0
BITMAP
00E0
01E0
03E0
03E0
07E0
0EE0
0EE0
1CE0
38E0
38E0
70E0
FFFC
FFFC
FFFC
00E0
00E0
00E0
ENDCHAR
STARTCHAR five
ENCODING 53
SWIDTH 570 0
DWIDTH 14 0
BBX 12 17 1 0
BITMAP
7FE0
7FE0
7FE0
7000
7000
7000
7F80
7FE0
7FE0
01F0
00F0
00F0
00F0
C1E0
FFE0
FFC0
7F00
ENDCHAR
STARTCHAR six
ENCODING 54
SWIDTH 570 0
DWIDTH 14 0
BBX 12 17 1 0
BITMAP
07E0
1FE0
3FE0
7C00
7000
F000
E7C0
EFE0
FFF0
F8F0
F070
E070
F070
78F0
7FE0
3FE0
0F80
ENDCHAR
STARTCHAR seven
ENCODING 55
SWIDTH 570 0
DWIDTH 14 0
BBX 12 17 1 0
BITMAP
FFF0
FFF0
FFF0
00F0
00E0
01E0
01C0
03C0
0380
0780
0700
0F00
0F00
1E00
1E00
3C00
3C00
ENDCHAR
STARTCHAR eight
ENCODING 56
SWIDTH 570 0
DWIDTH 14 0
BBX 12 17 1 0
BITMAP
1F80
7FE0
7FE0
F0F0
F0F0
70E0
7FE0
3FC0
1F80
7FE0
F1F0
E070
E070
F0F0
FFF0
7FE0
1F80
ENDCHAR
STARTCHAR nine
ENCODING 57
SWIDTH 570 0
DWIDTH 14 0
BBX 12 17 1 0
BITMAP
1F00
7FC0
7FE0
F1E0
E0F0
E070
E0F0
F1F0
FFF0
7F70
3E70
00F0
00E0
03E0
7FC0
7F80
7E00
ENDCHAR
STARTCHAR colon
ENCODING 58
SWIDTH 285 0
DWIDTH 7 0
BBX 4 13 1 0
BITMAP
70
F0
F0
70
00
00
00
00
00
70
F0
F0
70
ENDCHAR
STARTCHAR semicolon
ENCODING 59
SWIDTH 290 0
DWIDTH 7 0
BBX 4 16 1 -3
BITMAP
70
F0
F0
70
00
00
00
00
00
00
70
70
F0
E0
E0
E0
ENDCHAR
STARTCHAR less
ENCODING 60
SWIDTH 570 0
DWIDTH 14 0
BBX 12 12 1 3
BITMAP
0010
0070
01F0
07C0
1F00
7C00
F000
FC00
3F80
07E0
01F0
0070
ENDCHAR
STARTCHAR equal
ENCODING 61
SWIDTH 570 0
DWIDTH 14 0
BBX 12 7 1 5
BITMAP
FFF0
FFF0
FFF0
0000
FFF0
FFF0
FFF0
ENDCHAR
STARTCHAR greater
ENCODING 62
SWIDTH 570 0
DWIDTH 14 0
BBX 12 12 1 3
BITMAP
8000
E000
F800
3E00
0F80
03E0
00F0
03F0
1FC0
7E00
F800
E000
ENDCHAR
STARTCHAR question
ENCODING 63
SWIDTH 477 0
DWIDTH 11 0
BBX 10 17 0 0
BITMAP
3F00
FFC0
7FC0
61C0
01C0
01C0
03C0
0F80
1E00
1C00
1C00
0000
0000
1C00
1E00
1E00
1C00
ENDCHAR
STARTCHAR at
ENCODING 64
SWIDTH 896 0
DWIDTH 22 0
BBX 20 19 1 -2
BITMAP
01FC00
07FF00
0F07C0
1C01C0
38FCE0
73FE60
778E70
670E70
E70E70
E60E70
E70E60
E71EE0
E3FFC0
61E380
700000
380000
1F0F00
0FFF00
03FC00
ENDCHAR
STARTCHAR A
ENCODING 65
SWIDTH 689 0
DWIDTH 17 0
BBX 17 17 0 0
BITMAP
03E000
03E000
07F000
077000
077000
0F7800
0E3800
1E3800
1E3C00
1C1C00
3FFE00
3FFE00
3FFE00
780F00
780F00
700700
F00780
ENDCHAR
STARTCHAR B
ENCODING 66
SWIDTH 671 0
DWIDTH 16 0
BBX 13 17 2 0
BITMAP
FF80
FFE0
FFF0
F0F0
F070
F070
F0F0
FFE0
FFC0
FFF0
F0F0
F078
F078
F0F8
FFF0
FFE0
FFC0
ENDCHAR
STARTCHAR C
ENCODING 67
SWIDTH 637 0
DWIDTH 15 0
BBX 13 17 1 0
BITMAP
07E0
1FF8
3FF8
3C10
7800
7800
7000
F000
F000
F000
7000
7800
7800
7C18
3FF8
1FF8
07F0
ENDCHAR
STARTCHAR D
ENCODING 68
SWIDTH 740 0
DWIDTH 18 0
BBX 15 17 2 0
BITMAP
FF80
FFE0
FFF8
F0F8
F03C
F03C
F01C
F01E
F01E
F01E
F01C
F03C
F03C
F0F8
FFF0
FFE0
FF80
ENDCHAR
STARTCHAR E
ENCODING 69
SWIDTH 560 0
DWIDTH 13 0
BBX 10 17 2 0
BITMAP
FFC0
FFC0
FFC0
F000
F000
F000
F000
FF80
FF80
FF80
F000
F000
F000
F000
FFC0
FFC0
FFC0
ENDCHAR
STARTCHAR F
ENCODING 70
SWIDTH 548 0
DWIDTH 13 0
BBX 10 17 2 0
BITMAP
FFC0
FFC0
FFC0
F000
F000
F000
F000
FF80
FF80
FF80
F000
F000
F000
F000
F000
F000
F000
ENDCHAR
STARTCHAR G
ENCODING 71
SWIDTH 724 0
DWIDTH 17 0
BBX 14 17 1 0
BITMAP
03F8
0FFC
3FFC
3E08
7C00
7800
7000
F1FC
F1FC
F1FC
701C
781C
781C
7C1C
3FFC
1FFC
07F8
ENDCHAR
STARTCHAR H
ENCODING 72
SWIDTH 765 0
DWIDTH 18 0
BBX 14 17 2 0
BITMAP
F03C
F03C
F03C
F03C
F03C
F03C
F03C
FFFC
FFFC
FFFC
F03C
F03C
F03C
F03C
F03C
F03C
F03C
ENDCHAR
STARTCHAR I
ENCODING 73
SWIDTH 331 0
DWIDTH 8 0
BBX 4 17 2 0
BITMAP
F0
F0
F0
F0
F0
F0
F0
F0
F0
F0
F0
F0
F0
F0
F0
F0
F0
ENDCHAR
STARTCHAR J
ENCODING 74
SWIDTH 331 0
DWIDTH 8 0
BBX 8 22 -2 -5
BITMAP
0F
0F
0F
0F
0F
0F
0F
0F
0F
0F
0F
0F
0F
0F
0F
0F
0F
0F
1E
FE
FC
F8
ENDCHAR
STARTCHAR K
ENCODING 75
SWIDTH 664 0
DWIDTH 16 0
BBX 14 17 2 0
BITMAP
F03C
F078
F0F0
F1E0
F3C0
F7C0
F780
FF00
FF80
FF80
F3C0
F3C0
F1E0
F0F0
F0F0
F078
F03C
ENDCHAR
STARTCHAR L
ENCODING 76
SWIDTH 564 0
DWIDTH 14 0
BBX 11 17 2 0
BITMAP
F000
F000
F000
F000
F000
F000
F000
F000
F000
F000
F000
F000
F000
F000
FFE0
FFE0
FFE0
ENDCHAR
STARTCHAR M
ENCODING 77
SWIDTH 942 0
DWIDTH 23 0
BBX 19 17 2 0
BITMAP
F803E0
FC07E0
FC07E0
FC07E0
EE0EE0
EE0EE0
EE0EE0
E71DE0
E71DE0
E71DE0
E7B9E0
E3B9E0
E3B1E0
E3F1E0
E1F1E0
E1E1E0
E1E1E0
ENDCHAR
STARTCHAR N
ENCODING 78
SWIDTH 812 0
DWIDTH 20 0
BBX 16 17 2 0
BITMAP
F807
FC07
FC07
FE07
EF07
EF07
E787
E787
E3C7
E1E7
E1E7
E0F7
E0FF
E07F
E03F
E03F
E01F
ENDCHAR
STARTCHAR O
ENCODING 79
SWIDTH 795 0
DWIDTH 19 0
BBX 17 17 1 0
BITMAP
07F000
1FFC00
3FFE00
7C1E00
780F00
780F00
700700
F00780
F00780
F00780
700700
780F00
780F00
3C1E00
3FFE00
1FFC00
07F000
ENDCHAR
STARTCHAR P
ENCODING 80
SWIDTH 627 0
DWIDTH 15 0
BBX 12 17 2 0
BITMAP
FF80
FFC0
FFE0
F1F0
F0F0
F0F0
F0F0
F1F0
FFE0
FFC0
FF00
F000
F000
F000
F000
F000
F000
ENDCHAR
STARTCHAR Q
ENCODING 81
SWIDTH 795 0
DWIDTH 19 0
BBX 17 21 1 -4
BITMAP
07F000
1FFC00
3FFE00
7C1E00
780F00
780F00
700700
F00780
F00780
F00780
700700
780F00
780F00
3C1E00
3FFE00
1FFC00
07F800
007800
003C00
001E00
001F00
ENDCHAR
STARTCHAR R
ENCODING 82
SWIDTH 660 0
DWIDTH 16 0
BBX 14 17 2 0
BITMAP
FF80
FFE0
FFE0
F1F0
F0F0
F0F0
F0F0
F1F0
FFE0
FFC0
FF80
F3C0
F1E0
F0E0
F0F0
F078
F03C
ENDCHAR
STARTCHAR S
ENCODING 83
SWIDTH 550 0
DWIDTH 13 0
BBX 11 17 1 0
BITMAP
1F80
3FE0
7FC0
F0C0
F000
F000
7800
7F00
3F80
0FC0
03E0
01E0
01E0
C1E0
FFC0
FFC0
7F00
ENDCHAR
STARTCHAR T
ENCODING 84
SWIDTH 579 0
DWIDTH 14 0
BBX 12 17 1 0
BITMAP
FFF0
FFF0
FFF0
0F00
0F00
0F00
0F00
0F00
0F00
0F00
0F00
0F00
0F00
0F00
0F00
0F00
0F00
ENDCHAR
STARTCHAR U
ENCODING 85
SWIDTH 755 0
DWIDTH 18 0
BBX 14 17 2 0
BITMAP
F03C
F03C
F03C
F03C
F03C
F03C
F03C
F03C
F03C
F03C
F03C
F03C
F03C
7878
7FF8
3FF0
0FC0
ENDCHAR
STARTCHAR V
ENCODING 86
SWIDTH 649 0
DWIDTH 16 0
BBX 16 17 0 0
BITMAP
F00F
700E
781E
781E
381C
3C3C
3C3C
1C38
1E78
1E78
0E70
0E70
0FF0
07E0
07E0
07E0
03C0
ENDCHAR
STARTCHAR W
ENCODING 87
SWIDTH 966 0
DWIDTH 23 0
BBX 23 17 0 0
BITMAP
F0381E
F07C1E
707C1C
707C1C
786C3C
78EE3C
38EE38
38EE38
3CEE78
3DC778
1DC770
1DC770
1DC770
1F83F0
0F83E0
0F83E0
0F83E0
ENDCHAR
STARTCHAR X
ENCODING 88
SWIDTH 666 0
DWIDTH 16 0
BBX 16 17 0 0
BITMAP
781E
781E
3C3C
1C38
1E78
0FF0
07E0
07E0
03C0
07E0
0FF0
0EF0
1E78
3C3C
383C
781E
F00F
ENDCHAR
STARTCHAR Y
ENCODING 89
SWIDTH 624 0
DWIDTH 15 0
BBX 15 17 0 0
BITMAP
F01E
783C
783C
3C78
3C78
1EF0
0EE0
0FE0
07C0
07C0
0380
0380
0380
0380
0380
0380
0380
ENDCHAR
STARTCHAR Z
ENCODING 90
SWIDTH 579 0
DWIDTH 14 0
BBX 12 17 1 0
BITMAP
FFF0
FFF0
FFF0
00E0
01E0
03C0
0780
0780
0F00
1E00
1C00
3C00
7800
F000
FFF0
FFF0
FFF0
ENDCHAR
STARTCHAR bracketleft
ENCODING 91
SWIDTH 331 0
DWIDTH 8 0
BBX 5 21 2 -4
BITMAP
F8
F8
E0
E0
E0
E0
E0
E0
E0
E0
E0
E0
E0
E0
E0
E0
E0
E0
E0
F8
F8
ENDCHAR
STARTCHAR backslash
ENCODING 92
SWIDTH 413 0
DWIDTH 10 0
BBX 10 17 0 0
BITMAP
F000
7000
7000
7800
3800
3800
1C00
1C00
1E00
0E00
0E00
0700
0700
0780
0380
0380
03C0
ENDCHAR
STARTCHAR bracketright
ENCODING 93
SWIDTH 331 0
DWIDTH 8 0
BBX 5 21 1 -4
BITMAP
F8
F8
38
38
38
38
38
38
38
38
38
38
38
38
38
38
38
38
38
F8
F8
ENDCHAR
STARTCHAR asciicircum
ENCODING 94
SWIDTH 532 0
DWIDTH 13 0
BBX 13 11 0 6
BITMAP
0600
0700
0F00
0F80
1D80
19C0
38E0
30E0
7070
7070
E038
ENDCHAR
STARTCHAR underscore
ENCODING 95
SWIDTH 411 0
DWIDTH 10 0
BBX 10 2 0 -4
BITMAP
FFC0
FFC0
ENDCHAR
STARTCHAR grave
ENCODING 96
SWIDTH 606 0
DWIDTH 15 0
BBX 7 4 4 15
BITMAP
F0
78
1C
0E
ENDCHAR
STARTCHAR a
ENCODING 97
SWIDTH 604 0
DWIDTH 15 0
BBX 12 13 1 0
BITMAP
1FC0
7FE0
3FF0
30F0
0070
1FF0
7FF0
F870
F070
F0F0
FFF0
7F70
3E30
ENDCHAR
STARTCHAR b
ENCODING 98
SWIDTH 632 0
DWIDTH 15 0
BBX 12 18 2 0
BITMAP
E000
E000
E000
E000
E000
E780
EFC0
FFE0
F1F0
F0F0
E0F0
E0F0
E0F0
F0F0
F1F0
FFE0
EFC0
E780
ENDCHAR
STARTCHAR c
ENCODING 99
SWIDTH 514 0
DWIDTH 12 0
BBX 10 13 1 0
BITMAP
1F80
3FC0
7FC0
7800
F000
F000
F000
F000
F000
F840
7FC0
3FC0
1F80
ENDCHAR
STARTCHAR d
ENCODING 100
SWIDTH 632 0
DWIDTH 15 0
BBX 12 18 1 0
BITMAP
0070
0070
0070
0070
0070
1E70
3F70
7FF0
F8F0
F070
F070
F070
F070
F070
F8F0
7FF0
3F70
1E70
ENDCHAR
STARTCHAR e
ENCODING 101
SWIDTH 590 0
DWIDTH 14 0
BBX 12 13 1 0
BITMAP
1F80
3FE0
78E0
70F0
F070
FFF0
FFF0
F000
F000
7820
7FE0
3FE0
0FC0
ENDCHAR
STARTCHAR f
ENCODING 102
SWIDTH 387 0
DWIDTH 9 0
BBX 10 18 0 0
BITMAP
0FC0
1FC0
1F80
3C00
3C00
7F80
FF80
FF80
3C00
3C00
3C00
3C00
3C00
3C00
3C00
3C00
3C00
3C00
ENDCHAR
STARTCHAR g
ENCODING 103
SWIDTH 564 0
DWIDTH 14 0
BBX 14 19 0 -6
BITMAP
0FFC
3FFC
78F0
7870
7070
7870
38F0
3FE0
1F80
3800
3FE0
3FF8
7FF8
F03C
E03C
E038
F078
7FF0
1FC0
ENDCHAR
STARTCHAR h
ENCODING 104
SWIDTH 657 0
DWIDTH 16 0
BBX 12 18 2 0
BITMAP
E000
E000
E000
E000
E000
E7C0
EFE0
FFF0
F8F0
F0F0
F070
E070
E070
E070
E070
E070
E070
E070
ENDCHAR
STARTCHAR i
ENCODING 105
SWIDTH 305 0
DWIDTH 7 0
BBX 4 18 2 0
BITMAP
E0
F0
F0
E0
00
E0
E0
E0
E0
E0
E0
E0
E0
E0
E0
E0
E0
E0
ENDCHAR
STARTCHAR j
ENCODING 106
SWIDTH 305 0
DWIDTH 7 0
BBX 8 24 -2 -6
BITMAP
0E
0F
0F
0E
00
0E
0E
0E
0E
0E
0E
0E
0E
0E
0E
0E
0E
0E
0E
0E
1E
FE
FE
F8
ENDCHAR
STARTCHAR k
ENCODING 107
SWIDTH 620 0
DWIDTH 15 0
BBX 13 18 2 0
BITMAP
E000
E000
E000
E000
E000
E0F0
E1E0
E3C0
E780
EF00
EF00
FF00
FF80
F3C0
E3C0
E1E0
E0F0
E0F8
ENDCHAR
STARTCHAR l
ENCODING 108
SWIDTH 305 0
DWIDTH 7 0
BBX 3 18 2 0
BITMAP
E0
E0
E0
E0
E0
E0
E0
E0
E0
E0
E0
E0
E0
E0
E0
E0
E0
E0
ENDCHAR
STARTCHAR m
ENCODING 109
SWIDTH 981 0
DWIDTH 24 0
BBX 20 13 2 0
BITMAP
E7C7C0
EFEFE0
FFFFF0
F8F8F0
F0F0F0
F0F070
E0F070
E0F070
E0F070
E0F070
E0F070
E0F070
E0F070
ENDCHAR
STARTCHAR n
ENCODING 110
SWIDTH 657 0
DWIDTH 16 0
BBX 12 13 2 0
BITMAP
E7C0
EFE0
FFF0
F8F0
F0F0
F070
E070
E070
E070
E070
E070
E070
E070
ENDCHAR
STARTCHAR o
ENCODING 111
SWIDTH 619 0
DWIDTH 15 0
BBX 13 13 1 0
BITMAP
0F80
3FE0
7FF0
78F0
F078
F078
F078
F078
F078
78F0
7FF0
3FE0
0F80
ENDCHAR
STARTCHAR p
ENCODING 112
SWIDTH 632 0
DWIDTH 15 0
BBX 12 19 2 -6
BITMAP
E780
EFC0
FFE0
F1F0
F0F0
E0F0
E0F0
E0F0
F0F0
F1E0
FFE0
EFC0
E780
E000
E000
E000
E000
E000
E000
ENDCHAR
STARTCHAR q
ENCODING 113
SWIDTH 632 0
DWIDTH 15 0
BBX 12 19 1 -6
BITMAP
1E70
3F70
7FF0
F8F0
F070
F070
F070
F070
F070
F8F0
7FF0
3F70
1E70
0070
0070
0070
0070
0070
0070
ENDCHAR
STARTCHAR r
ENCODING 114
SWIDTH 454 0
DWIDTH 11 0
BBX 8 13 2 0
BITMAP
E7
EF
FF
FC
F0
F0
E0
E0
E0
E0
E0
E0
E0
ENDCHAR
STARTCHAR s
ENCODING 115
SWIDTH 497 0
DWIDTH 12 0
BBX 10 13 1 0
BITMAP
3F00
7FC0
FF80
F080
F000
7E00
3F80
0FC0
03C0
C3C0
FFC0
FF80
7F00
ENDCHAR
STARTCHAR t
ENCODING 116
SWIDTH 434 0
DWIDTH 10 0
BBX 9 16 0 0
BITMAP
1C00
1C00
1C00
3F80
FF80
FF80
3C00
3C00
3C00
3C00
3C00
3C00
3C00
3F80
1F80
0F80
ENDCHAR
STARTCHAR u
ENCODING 117
SWIDTH 657 0
DWIDTH 16 0
BBX 12 13 2 0
BITMAP
E070
E070
E070
E070
E070
E070
E070
E0F0
F0F0
F1F0
FFF0
7F70
3E70
ENDCHAR
STARTCHAR v
ENCODING 118
SWIDTH 568 0
DWIDTH 14 0
BBX 14 13 0 0
BITMAP
F03C
7038
7878
7878
3870
3CF0
1CE0
1CE0
1FE0
0FC0
0FC0
0780
0780
ENDCHAR
STARTCHAR w
ENCODING 119
SWIDTH 855 0
DWIDTH 21 0
BBX 21 13 0 0
BITMAP
F0F878
70F870
70F870
78D8F0
39DCE0
39DCE0
3D9DE0
3D8DE0
1F8FC0
1F8FC0
1F8FC0
0F0780
0F0780
ENDCHAR
STARTCHAR x
ENCODING 120
SWIDTH 578 0
DWIDTH 14 0
BBX 14 13 0 0
BITMAP
7878
7878
3CF0
1FE0
1FE0
0FC0
0F80
0FC0
1FE0
3CF0
3CF0
7878
F87C
ENDCHAR
STARTCHAR y
ENCODING 121
SWIDTH 568 0
DWIDTH 14 0
BBX 14 19 0 -6
BITMAP
F03C
7038
7878
7878
3C70
3CF0
1CF0
1EE0
0FE0
0FC0
0FC0
07C0
0780
0780
0700
0F00
7E00
7E00
7800
ENDCHAR
STARTCHAR z
ENCODING 122
SWIDTH 487 0
DWIDTH 12 0
BBX 10 13 1 0
BITMAP
FFC0
FFC0
FFC0
0380
0700
0F00
1E00
3C00
7800
7000
FFC0
FFC0
FFC0
ENDCHAR
STARTCHAR braceleft
ENCODING 123
SWIDTH 394 0
DWIDTH 9 0
BBX 8 21 0 -4
BITMAP
07
1F
1F
1C
1C
1C
1C
1C
3C
F8
E0
FC
3C
1C
1C
1C
1C
1C
1F
1F
07
ENDCHAR
STARTCHAR bar
ENCODING 124
SWIDTH 550 0
DWIDTH 13 0
BBX 3 23 5 -5
BITMAP
E0
E0
E0
E0
E0
E0
E0
E0
E0
E0
E0
E0
E0
E0
E0
E0
E0
E0
E0
E0
E0
E0
E0
ENDCHAR
STARTCHAR braceright
ENCODING 125
SWIDTH 394 0
DWIDTH 9 0
BBX 8 21 1 -4
BITMAP
E0
F8
F8
38
38
38
38
38
38
1F
07
3F
3C
38
38
38
38
38
F8
F8
E0
ENDCHAR
STARTCHAR asciitilde
ENCODING 126
SWIDTH 570 0
DWIDTH 14 0
BBX 12 4 1 6
BITMAP
7C10
FFF0
FFF0
83E0
ENDCHAR
STARTCHAR nonbreakingspace
ENCODING 160
SWIDTH 259 0
DWIDTH 6 0
BBX 1 1 0 0
BITMAP
00
ENDCHAR
STARTCHAR exclamdown
ENCODING 161
SWIDTH 286 0
DWIDTH 7 0
BBX 4 17 2 -4
BITMAP
E0
F0
F0
E0
00
00
E0
E0
E0
E0
E0
E0
E0
E0
E0
E0
F0
ENDCHAR
STARTCHAR cent
ENCODING 162
SWIDTH 570 0
DWIDTH 14 0
BBX 10 17 2 0
BITMAP
0600
0600
1F80
7FC0
7FC0
F800
F000
E000
E000
E000
F000
F040
7FC0
7FC0
1F80
0600
0600
ENDCHAR
STARTCHAR sterling
ENCODING 163
SWIDTH 570 0
DWIDTH 14 0
BBX 13 17 1 0
BITMAP
07E0
1FF0
1FE0
3C20
3C00
3C00
3C00
FFC0
FFC0
FFC0
3C00
3C00
3800
7800
FFF8
FFF8
FFF8
ENDCHAR
STARTCHAR currency
ENCODING 164
SWIDTH 570 0
DWIDTH 14 0
BBX 10 10 2 4
BITMAP
C0C0
FFC0
7F80
7380
E1C0
E1C0
7380
7F80
FFC0
C0C0
ENDCHAR
STARTCHAR yen
ENCODING 165
SWIDTH 570 0
DWIDTH 14 0
BBX 14 17 0 0
BITMAP
F03C
7878
3870
3CF0
1CE0
1FE0
0FC0
0FC0
3FF0
3FF0
0780
0780
3FF0
3FF0
0780
0780
0780
ENDCHAR
STARTCHAR brokenbar
ENCODING 166
SWIDTH 550 0
DWIDTH 13 0
BBX 3 23 5 -5
BITMAP
E0
E0
E0
E0
E0
E0
E0
E0
E0
00
00
00
00
00
E0
E0
E0
E0
E0
E0
E0
E0
E0
ENDCHAR
STARTCHAR section
ENCODING 167
SWIDTH 485 0
DWIDTH 12 0
BBX 10 18 1 0
BITMAP
1F80
7F80
7080
E000
7800
3E00
7F80
6380
E1C0
71C0
79C0
3F80
0F80
03C0
01C0
C3C0
FF80
7E00
ENDCHAR
STARTCHAR dieresis
ENCODING 168
SWIDTH 606 0
DWIDTH 15 0
BBX 9 3 3 15
BITMAP
6300
F780
6300
ENDCHAR
STARTCHAR copyright
ENCODING 169
SWIDTH 832 0
DWIDTH 20 0
BBX 18 17 1 0
BITMAP
03F000
0FFC00
1C0E00
31F300
63F980
671180
C700C0
CE00C0
CE00C0
CE00C0
C600C0
671180
63F180
31F300
1C0E00
0FFC00
03F000
ENDCHAR
STARTCHAR ordfeminine
ENCODING 170
SWIDTH 382 0
DWIDTH 9 0
BBX 7 9 1 8
BITMAP
7C
FE
0E
1E
FE
C6
CE
FE
76
ENDCHAR
STARTCHAR guillemotleft
ENCODING 171
SWIDTH 615 0
DWIDTH 15 0
BBX 13 11 1 1
BITMAP
0820
1E78
3CF0
38E0
79E0
F3C0
79E0
38E0
3CF0
1E78
0820
ENDCHAR
STARTCHAR logicalnot
ENCODING 172
SWIDTH 570 0
DWIDTH 14 0
BBX 12 7 1 3
BITMAP
FFF0
FFF0
FFF0
0070
0070
0070
0070
ENDCHAR
STARTCHAR uni00AD
ENCODING 173
SWIDTH 321 0
DWIDTH 8 0
BBX 6 3 1 5
BITMAP
FC
FC
FC
ENDCHAR
STARTCHAR registered
ENCODING 174
SWIDTH 832 0
DWIDTH 20 0
BBX 18 17 1 0
BITMAP
03F000
0FFC00
1C0E00
37E300
67F180
673980
C738C0
C730C0
C7F0C0
C7E0C0
C770C0
677180
673980
373B00
1C0E00
0FFC00
03F000
ENDCHAR
STARTCHAR overscore
ENCODING 175
SWIDTH 500 0
DWIDTH 12 0
BBX 12 2 0 18
BITMAP
FFF0
FFF0
ENDCHAR
STARTCHAR degree
ENCODING 176
SWIDTH 428 0
DWIDTH 10 0
BBX 8 8 1 9
BITMAP
3C
7E
E7
C3
C3
E7
7E
3C
ENDCHAR
STARTCHAR plusminus
ENCODING 177
SWIDTH 570 0
DWIDTH 14 0
BBX 12 15 1 0
BITMAP
0600
0600
0600
0600
0600
FFF0
FFF0
FFF0
0600
0600
0600
0600
FFF0
FFF0
FFF0
ENDCHAR
STARTCHAR twosuperior
ENCODING 178
SWIDTH 378 0
DWIDTH 9 0
BBX 7 10 1 7
BITMAP
7C
FE
CE
0E
1C
3C
70
E0
FE
FE
ENDCHAR
STARTCHAR threesuperior
ENCODING 179
SWIDTH 378 0
DWIDTH 9 0
BBX 7 10 1 7
BITMAP
78
FC
4E
0C
78
7C
0E
8E
FE
FC
ENDCHAR
STARTCHAR acute
ENCODING 180
SWIDTH 606 0
DWIDTH 15 0
BBX 7 4 4 15
BITMAP
3E
38
70
E0
ENDCHAR
STARTCHAR mu
ENCODING 181
SWIDTH 660 0
DWIDTH 16 0
BBX 12 19 2 -6
BITMAP
E070
E070
E070
E070
E070
E070
E070
E0F0
F0F0
F1F0
FFF0
FF70
EE70
E000
E000
E000
E000
E000
E000
ENDCHAR
STARTCHAR paragraph
ENCODING 182
SWIDTH 654 0
DWIDTH 16 0
BBX 13 21 1 -3
BITMAP
1FF8
3FF8
7FF8
7F98
FF98
FF98
FF98
FF98
7F98
7F98
7F98
1F98
0198
0198
0198
0198
0198
0198
0198
0198
0198
ENDCHAR
STARTCHAR periodcentered
ENCODING 183
SWIDTH 285 0
DWIDTH 7 0
BBX 4 4 1 6
BITMAP
70
F0
F0
70
ENDCHAR
STARTCHAR cedilla
ENCODING 184
SWIDTH 205 0
DWIDTH 5 0
BBX 5 6 0 -6
BITMAP
60
F0
38
38
F8
F0
ENDCHAR
STARTCHAR onesuperior
ENCODING 185
SWIDTH 378 0
DWIDTH 9 0
BBX 6 10 1 7
BITMAP
1C
3C
FC
5C
1C
1C
1C
1C
1C
1C
ENDCHAR
STARTCHAR ordmasculine
ENCODING 186
SWIDTH 388 0
DWIDTH 9 0
BBX 7 9 1 8
BITMAP
78
FC
C6
C6
C6
C6
C6
FE
38
ENDCHAR
STARTCHAR guillemotright
ENCODING 187
SWIDTH 615 0
DWIDTH 15 0
BBX 13 11 1 1
BITMAP
2080
F3C0
79E0
38E0
3CF0
1E78
3CF0
38E0
79E0
F3C0
2080
ENDCHAR
STARTCHAR onequarter
ENCODING 188
SWIDTH 880 0
DWIDTH 21 0
BBX 19 17 1 0
BITMAP
380E00
781C00
F81C00
D83800
383800
387000
386000
38E380
39C780
39C780
038F80
039B80
073B80
073FE0
0E3FE0
0C0380
1C0380
ENDCHAR
STARTCHAR onehalf
ENCODING 189
SWIDTH 880 0
DWIDTH 21 0
BBX 19 17 1 0
BITMAP
380E00
781C00
F81C00
D83800
383800
387000
386000
38E780
39DFC0
39CCE0
0380E0
0381C0
070380
070700
0E0E00
0C0FE0
1C0FE0
ENDCHAR
STARTCHAR threequarters
ENCODING 190
SWIDTH 880 0
DWIDTH 21 0
BBX 19 17 1 0
BITMAP
7C0700
FE0E00
4E0E00
0E1C00
3C1800
3E3800
067000
8673C0
FEE3C0
7CE7C0
01CDC0
018DC0
0399C0
033FE0
073FE0
0E01C0
0E01C0
ENDCHAR
STARTCHAR questiondown
ENCODING 191
SWIDTH 477 0
DWIDTH 11 0
BBX 10 17 1 -4
BITMAP
0E00
1E00
1E00
0E00
0000
0000
0E00
0E00
1E00
3C00
7000
E000
E000
F180
FFC0
7FC0
3F00
ENDCHAR
STARTCHAR Agrave
ENCODING 192
SWIDTH 689 0
DWIDTH 17 0
BBX 17 23 0 0
BITMAP
0F8000
078000
01C000
00E000
000000
000000
03E000
03E000
07F000
077000
077000
0F7800
0E3800
1E3800
1E3C00
1C1C00
3FFE00
3FFE00
3FFE00
780F00
780F00
700700
F00780
ENDCHAR
STARTCHAR Aacute
ENCODING 193
SWIDTH 689 0
DWIDTH 17 0
BBX 17 23 0 0
BITMAP
007800
00F000
01E000
018000
000000
000000
03E000
03E000
07F000
077000
077000
0F7800
0E3800
1E3800
1E3C00
1C1C00
3FFE00
3FFE00
3FFE00
780F00
780F00
700700
F00780
ENDCHAR
STARTCHAR Acircumflex
ENCODING 194
SWIDTH 689 0
DWIDTH 17 0
BBX 17 23 0 0
BITMAP
03E000
07F000
0F7000
0E3800
000000
000000
03E000
03E000
07F000
077000
077000
0F7800
0E3800
1E3800
1E3C00
1C1C00
3FFE00
3FFE00
3FFE00
780F00
780F00
700700
F00780
ENDCHAR
STARTCHAR Atilde
ENCODING 195
SWIDTH 689 0
DWIDTH 17 0
BBX 17 23 0 0
BITMAP
071800
0FD800
0DF800
087000
000000
000000
03E000
03E000
07F000
077000
077000
0F7800
0E3800
1E3800
1E3C00
1C1C00
3FFE00
3FFE00
3FFE00
780F00
780F00
700700
F00780
ENDCHAR
STARTCHAR Adieresis
ENCODING 196
SWIDTH 689 0
DWIDTH 17 0
BBX 17 22 0 0
BITMAP
063000
0F7800
063000
000000
000000
03E000
03E000
07F000
077000
077000
0F7800
0E3800
1E3800
1E3C00
1C1C00
3FFE00
3FFE00
3FFE00
780F00
780F00
700700
F00780
ENDCHAR
STARTCHAR Aring
ENCODING 197
SWIDTH 689 0
DWIDTH 17 0
BBX 17 21 0 0
BITMAP
03C000
036000
066000
066000
03E000
03E000
07F000
077000
077000
0F7800
0E3800
1E3800
1E3C00
1C1C00
3FFE00
3FFE00
3FFE00
780F00
780F00
700700
F00780
ENDCHAR
STARTCHAR AE
ENCODING 198
SWIDTH 952 0
DWIDTH 23 0
BBX 22 17 0 0
BITMAP
01FFFC
01FFFC
01FFFC
03DE00
039E00
079E00
071E00
0F1FF8
0E1FF8
1E1FF8
1FFE00
3FFE00
3FFE00
381E00
781FFC
701FFC
F01FFC
ENDCHAR
STARTCHAR Ccedilla
ENCODING 199
SWIDTH 637 0
DWIDTH 15 0
BBX 13 23 1 -6
BITMAP
07E0
1FF8
3FF8
3C10
7800
7800
7000
F000
F000
F000
7000
7800
7800
7C18
3FF8
1FF8
07F0
0380
0380
01C0
01C0
07C0
0780
ENDCHAR
STARTCHAR Egrave
ENCODING 200
SWIDTH 560 0
DWIDTH 13 0
BBX 10 23 2 0
BITMAP
3C00
1C00
0E00
0700
0000
0000
FFC0
FFC0
FFC0
F000
F000
F000
F000
FF80
FF80
FF80
F000
F000
F000
F000
FFC0
FFC0
FFC0
ENDCHAR
STARTCHAR Eacute
ENCODING 201
SWIDTH 560 0
DWIDTH 13 0
BBX 10 23 2 0
BITMAP
07C0
0700
0E00
1C00
0000
0000
FFC0
FFC0
FFC0
F000
F000
F000
F000
FF80
FF80
FF80
F000
F000
F000
F000
FFC0
FFC0
FFC0
ENDCHAR
STARTCHAR Ecircumflex
ENCODING 202
SWIDTH 560 0
DWIDTH 13 0
BBX 10 23 2 0
BITMAP
1F00
3F80
7B80
E1C0
0000
0000
FFC0
FFC0
FFC0
F000
F000
F000
F000
FF80
FF80
FF80
F000
F000
F000
F000
FFC0
FFC0
FFC0
ENDCHAR
STARTCHAR Edieresis
ENCODING 203
SWIDTH 560 0
DWIDTH 13 0
BBX 10 22 2 0
BITMAP
3180
7BC0
3180
0000
0000
FFC0
FFC0
FFC0
F000
F000
F000
F000
FF80
FF80
FF80
F000
F000
F000
F000
FFC0
FFC0
FFC0
ENDCHAR
STARTCHAR Igrave
ENCODING 204
SWIDTH 331 0
DWIDTH 8 0
BBX 6 23 0 0
BITMAP
F0
78
38
1C
00
00
3C
3C
3C
3C
3C
3C
3C
3C
3C
3C
3C
3C
3C
3C
3C
3C
3C
ENDCHAR
STARTCHAR Iacute
ENCODING 205
SWIDTH 331 0
DWIDTH 8 0
BBX 7 23 2 0
BITMAP
3E
3C
70
E0
00
00
F0
F0
F0
F0
F0
F0
F0
F0
F0
F0
F0
F0
F0
F0
F0
F0
F0
ENDCHAR
STARTCHAR Icircumflex
ENCODING 206
SWIDTH 331 0
DWIDTH 8 0
BBX 10 23 -1 0
BITMAP
1F00
3F00
7380
E1C0
0000
0000
1E00
1E00
1E00
1E00
1E00
1E00
1E00
1E00
1E00
1E00
1E00
1E00
1E00
1E00
1E00
1E00
1E00
ENDCHAR
STARTCHAR Idieresis
ENCODING 207
SWIDTH 331 0
DWIDTH 8 0
BBX 8 22 0 0
BITMAP
E7
E7
E7
00
00
3C
3C
3C
3C
3C
3C
3C
3C
3C
3C
3C
3C
3C
3C
3C
3C
3C
ENDCHAR
STARTCHAR Eth
ENCODING 208
SWIDTH 740 0
DWIDTH 18 0
BBX 16 17 1 0
BITMAP
7FC0
7FF0
7FFC
787C
781E
781E
780E
FF0F
FF0F
FF0F
780E
781E
781E
787C
7FF8
7FF0
7FC0
ENDCHAR
STARTCHAR Ntilde
ENCODING 209
SWIDTH 812 0
DWIDTH 20 0
BBX 16 23 2 0
BITMAP
0718
0FB0
1FF0
18E0
0000
0000
F807
FC07
FC07
FE07
EF07
EF07
E787
E787
E3C7
E1E7
E1E7
E0F7
E0FF
E07F
E03F
E03F
E01F
ENDCHAR
STARTCHAR Ograve
ENCODING 210
SWIDTH 795 0
DWIDTH 19 0
BBX 17 23 1 0
BITMAP
078000
03C000
01C000
00E000
000000
000000
07F000
1FFC00
3FFE00
7C1E00
780F00
780F00
700700
F00780
F00780
F00780
700700
780F00
780F00
3C1E00
3FFE00
1FFC00
07F000
ENDCHAR
STARTCHAR Oacute
ENCODING 211
SWIDTH 795 0
DWIDTH 19 0
BBX 17 23 1 0
BITMAP
007800
007000
00E000
01C000
000000
000000
07F000
1FFC00
3FFE00
7C1E00
780F00
780F00
700700
F00780
F00780
F00780
700700
780F00
780F00
3C1E00
3FFE00
1FFC00
07F000
ENDCHAR
STARTCHAR Ocircumflex
ENCODING 212
SWIDTH 795 0
DWIDTH 19 0
BBX 17 23 1 0
BITMAP
03E000
03F000
077800
0E1C00
000000
000000
07F000
1FFC00
3FFE00
7C1E00
780F00
780F00
700700
F00780
F00780
F00780
700700
780F00
780F00
3C1E00
3FFE00
1FFC00
07F000
ENDCHAR
STARTCHAR Otilde
ENCODING 213
SWIDTH 795 0
DWIDTH 19 0
BBX 17 23 1 0
BITMAP
070C00
0FD800
0FF800
0C7000
000000
000000
07F000
1FFC00
3FFE00
7C1E00
780F00
780F00
700700
F00780
F00780
F00780
700700
780F00
780F00
3C1E00
3FFE00
1FFC00
07F000
ENDCHAR
STARTCHAR Odieresis
ENCODING 214
SWIDTH 795 0
DWIDTH 19 0
BBX 17 22 1 0
BITMAP
073800
073800
073800
000000
000000
07F000
1FFC00
3FFE00
7C1E00
780F00
780F00
700700
F00780
F00780
F00780
700700
780F00
780F00
3C1E00
3FFE00
1FFC00
07F000
ENDCHAR
STARTCHAR multiply
ENCODING 215
SWIDTH 570 0
DWIDTH 14 0
BBX 10 11 2 3
BITMAP
4080
E1C0
F3C0
7F80
3F00
1E00
3F00
7F80
F3C0
E1C0
4080
ENDCHAR
STARTCHAR Oslash
ENCODING 216
SWIDTH 795 0
DWIDTH 19 0
BBX 17 19 1 -1
BITMAP
000400
07F600
1FFE00
3FFE00
7C1E00
783F00
787F00
706700
F0E780
F1C780
F18780
738700
7F0F00
7E0F00
7C1E00
3FFE00
3FFC00
37F000
100000
ENDCHAR
STARTCHAR Ugrave
ENCODING 217
SWIDTH 755 0
DWIDTH 18 0
BBX 14 23 2 0
BITMAP
1E00
0F00
0700
0380
0000
0000
F03C
F03C
F03C
F03C
F03C
F03C
F03C
F03C
F03C
F03C
F03C
F03C
F03C
7878
7FF8
3FF0
0FC0
ENDCHAR
STARTCHAR Uacute
ENCODING 218
SWIDTH 755 0
DWIDTH 18 0
BBX 14 23 2 0
BITMAP
00F0
01E0
0380
0700
0000
0000
F03C
F03C
F03C
F03C
F03C
F03C
F03C
F03C
F03C
F03C
F03C
F03C
F03C
7878
7FF8
3FF0
0FC0
ENDCHAR
STARTCHAR Ucircumflex
ENCODING 219
SWIDTH 755 0
DWIDTH 18 0
BBX 14 23 2 0
BITMAP
07C0
0FC0
1EE0
3870
0000
0000
F03C
F03C
F03C
F03C
F03C
F03C
F03C
F03C
F03C
F03C
F03C
F03C
F03C
7878
7FF8
3FF0
0FC0
ENDCHAR
STARTCHAR Udieresis
ENCODING 220
SWIDTH 755 0
DWIDTH 18 0
BBX 14 22 2 0
BITMAP
1CE0
1CE0
0C60
0000
0000
F03C
F03C
F03C
F03C
F03C
F03C
F03C
F03C
F03C
F03C
F03C
F03C
F03C
7878
7FF8
3FF0
0FC0
ENDCHAR
STARTCHAR Yacute
ENCODING 221
SWIDTH 624 0
DWIDTH 15 0
BBX 15 23 0 0
BITMAP
00F0
01E0
03C0
0380
0000
0000
F01E
783C
783C
3C78
3C78
1EF0
0EE0
0FE0
07C0
07C0
0380
0380
0380
0380
0380
0380
0380
ENDCHAR
STARTCHAR Thorn
ENCODING 222
SWIDTH 627 0
DWIDTH 15 0
BBX 12 17 2 0
BITMAP
F000
F000
F000
FF80
FFC0
FFE0
F1F0
F0F0
F0F0
F0F0
F1F0
FFE0
FFC0
FF80
F000
F000
F000
ENDCHAR
STARTCHAR germandbls
ENCODING 223
SWIDTH 710 0
DWIDTH 17 0
BBX 14 18 2 0
BITMAP
1FC0
7FE0
FFF0
F0F8
F078
E070
E0F0
E3C0
E380
E3C0
E3E0
E1F8
E07C
E03C
E03C
E43C
E7FC
E3F0
ENDCHAR
STARTCHAR agrave
ENCODING 224
SWIDTH 604 0
DWIDTH 15 0
BBX 12 19 1 0
BITMAP
3C00
1E00
0700
0380
0000
0000
1FC0
7FE0
3FF0
30F0
0070
1FF0
7FF0
F870
F070
F0F0
FFF0
7F70
3E30
ENDCHAR
STARTCHAR aacute
ENCODING 225
SWIDTH 604 0
DWIDTH 15 0
BBX 12 19 1 0
BITMAP
01E0
03C0
0780
0E00
0000
0000
1FC0
7FE0
3FF0
30F0
0070
1FF0
7FF0
F870
F070
F0F0
FFF0
7F70
3E30
ENDCHAR
STARTCHAR acircumflex
ENCODING 226
SWIDTH 604 0
DWIDTH 15 0
BBX 12 19 1 0
BITMAP
0F80
1FC0
3DC0
70E0
0000
0000
1FC0
7FE0
3FF0
30F0
0070
1FF0
7FF0
F870
F070
F0F0
FFF0
7F70
3E30
ENDCHAR
STARTCHAR atilde
ENCODING 227
SWIDTH 604 0
DWIDTH 15 0
BBX 12 19 1 0
BITMAP
1C20
3F60
37E0
31C0
0000
0000
1FC0
7FE0
3FF0
30F0
0070
1FF0
7FF0
F870
F070
F0F0
FFF0
7F70
3E30
ENDCHAR
STARTCHAR adieresis
ENCODING 228
SWIDTH 604 0
DWIDTH 15 0
BBX 12 18 1 0
BITMAP
18C0
3DE0
18C0
0000
0000
1FC0
7FE0
3FF0
30F0
0070
1FF0
7FF0
F870
F070
F0F0
FFF0
7F70
3E30
ENDCHAR
STARTCHAR aring
ENCODING 229
SWIDTH 604 0
DWIDTH 15 0
BBX 12 21 1 0
BITMAP
0700
0F80
0980
0980
0F80
0700
0000
0000
1FC0
7FE0
3FF0
30F0
0070
1FF0
7FF0
F870
F070
F0F0
FFF0
7F70
3E30
ENDCHAR
STARTCHAR ae
ENCODING 230
SWIDTH 916 0
DWIDTH 22 0
BBX 20 13 1 0
BITMAP
1F8F80
7FFFE0
3FF8E0
20F0F0
00F070
1FFFF0
7FFFF0
F0F000
F0F000
F1F820
FFFFE0
7FBFE0
3E0FC0
ENDCHAR
STARTCHAR ccedilla
ENCODING 231
SWIDTH 514 0
DWIDTH 12 0
BBX 10 19 1 -6
BITMAP
1F80
3FC0
7FC0
7800
F000
F000
F000
F000
F000
F840
7FC0
3FC0
1F80
0E00
0F00
0700
0300
1F00
1E00
ENDCHAR
STARTCHAR egrave
ENCODING 232
SWIDTH 590 0
DWIDTH 14 0
BBX 12 19 1 0
BITMAP
3C00
1E00
0700
0380
0000
0000
1F80
3FE0
78E0
70F0
F070
FFF0
FFF0
F000
F000
7820
7FE0
3FE0
0FC0
ENDCHAR
STARTCHAR eacute
ENCODING 233
SWIDTH 590 0
DWIDTH 14 0
BBX 12 19 1 0
BITMAP
01E0
03C0
0780
0E00
0000
0000
1F80
3FE0
78E0
70F0
F070
FFF0
FFF0
F000
F000
7820
7FE0
3FE0
0FC0
ENDCHAR
STARTCHAR ecircumflex
ENCODING 234
SWIDTH 590 0
DWIDTH 14 0
BBX 12 19 1 0
BITMAP
0F80
1FC0
1DE0
38E0
0000
0000
1F80
3FE0
78E0
70F0
F070
FFF0
FFF0
F000
F000
7820
7FE0
3FE0
0FC0
ENDCHAR
STARTCHAR edieresis
ENCODING 235
SWIDTH 590 0
DWIDTH 14 0
BBX 12 18 1 0
BITMAP
1CE0
1CE0
18E0
0000
0000
1F80
3FE0
78E0
70F0
F070
FFF0
FFF0
F000
F000
7820
7FE0
3FE0
0FC0
ENDCHAR
STARTCHAR igrave
ENCODING 236
SWIDTH 305 0
DWIDTH 7 0
BBX 7 19 -1 0
BITMAP
F0
78
1C
0E
00
00
1C
1C
1C
1C
1C
1C
1C
1C
1C
1C
1C
1C
1C
ENDCHAR
STARTCHAR iacute
ENCODING 237
SWIDTH 305 0
DWIDTH 7 0
BBX 6 19 2 0
BITMAP
3C
38
70
E0
00
00
E0
E0
E0
E0
E0
E0
E0
E0
E0
E0
E0
E0
E0
ENDCHAR
STARTCHAR icircumflex
ENCODING 238
SWIDTH 305 0
DWIDTH 7 0
BBX 10 19 -1 0
BITMAP
3E00
3F00
7380
E1C0
0000
0000
1C00
1C00
1C00
1C00
1C00
1C00
1C00
1C00
1C00
1C00
1C00
1C00
1C00
ENDCHAR
STARTCHAR idieresis
ENCODING 239
SWIDTH 305 0
DWIDTH 7 0
BBX 8 18 0 0
BITMAP
E7
E7
E7
00
00
38
38
38
38
38
38
38
38
38
38
38
38
38
ENDCHAR
STARTCHAR eth
ENCODING 240
SWIDTH 619 0
DWIDTH 15 0
BBX 13 18 1 0
BITMAP
0840
0EE0
0FC0
07C0
1FE0
0CE0
00F0
1F70
3FF8
7FF8
F8F8
F078
F078
F078
F8F0
7FF0
3FE0
0F80
ENDCHAR
STARTCHAR ntilde
ENCODING 241
SWIDTH 657 0
DWIDTH 16 0
BBX 12 19 2 0
BITMAP
1C60
3EE0
77C0
6380
0000
0000
E7C0
EFE0
FFF0
F8F0
F0F0
F070
E070
E070
E070
E070
E070
E070
E070
ENDCHAR
STARTCHAR ograve
ENCODING 242
SWIDTH 619 0
DWIDTH 15 0
BBX 13 19 1 0
BITMAP
3C00
1E00
0F00
0380
0000
0000
0F80
3FE0
7FF0
78F0
F078
F078
F078
F078
F078
78F0
7FF0
3FE0
0F80
ENDCHAR
STARTCHAR oacute
ENCODING 243
SWIDTH 619 0
DWIDTH 15 0
BBX 13 19 1 0
BITMAP
01E0
03C0
0380
0700
0000
0000
0F80
3FE0
7FF0
78F0
F078
F078
F078
F078
F078
78F0
7FF0
3FE0
0F80
ENDCHAR
STARTCHAR ocircumflex
ENCODING 244
SWIDTH 619 0
DWIDTH 15 0
BBX 13 19 1 0
BITMAP
0F80
1FC0
1DE0
3870
0000
0000
0F80
3FE0
7FF0
78F0
F078
F078
F078
F078
F078
78F0
7FF0
3FE0
0F80
ENDCHAR
STARTCHAR otilde
ENCODING 245
SWIDTH 619 0
DWIDTH 15 0
BBX 13 19 1 0
BITMAP
1C20
3F60
37E0
31C0
0000
0000
0F80
3FE0
7FF0
78F0
F078
F078
F078
F078
F078
78F0
7FF0
3FE0
0F80
ENDCHAR
STARTCHAR odieresis
ENCODING 246
SWIDTH 619 0
DWIDTH 15 0
BBX 13 18 1 0
BITMAP
18E0
1CE0
18C0
0000
0000
0F80
3FE0
7FF0
78F0
F078
F078
F078
F078
F078
78F0
7FF0
3FE0
0F80
ENDCHAR
STARTCHAR divide
ENCODING 247
SWIDTH 570 0
DWIDTH 14 0
BBX 12 13 1 2
BITMAP
0600
0F00
0E00
0400
0000
FFF0
FFF0
FFF0
0000
0600
0F00
0E00
0400
ENDCHAR
STARTCHAR oslash
ENCODING 248
SWIDTH 619 0
DWIDTH 15 0
BBX 13 13 1 0
BITMAP
0FA0
3FE0
7FF0
78F0
F1F8
F3F8
F778
F678
FC78
7CF0
7FF0
3FE0
7F80
ENDCHAR
STARTCHAR ugrave
ENCODING 249
SWIDTH 657 0
DWIDTH 16 0
BBX 12 19 2 0
BITMAP
7800
3C00
0E00
0700
0000
0000
E070
E070
E070
E070
E070
E070
E070
E0F0
F0F0
F1F0
FFF0
7F70
3E70
ENDCHAR
STARTCHAR uacute
ENCODING 250
SWIDTH 657 0
DWIDTH 16 0
BBX 12 19 2 0
BITMAP
03C0
0380
0700
0E00
0000
0000
E070
E070
E070
E070
E070
E070
E070
E0F0
F0F0
F1F0
FFF0
7F70
3E70
ENDCHAR
STARTCHAR ucircumflex
ENCODING 251
SWIDTH 657 0
DWIDTH 16 0
BBX 12 19 2 0
BITMAP
0F00
1F80
39C0
70E0
0000
0000
E070
E070
E070
E070
E070
E070
E070
E0F0
F0F0
F1F0
FFF0
7F70
3E70
ENDCHAR
STARTCHAR udieresis
ENCODING 252
SWIDTH 657 0
DWIDTH 16 0
BBX 12 18 2 0
BITMAP
39C0
39C0
39C0
0000
0000
E070
E070
E070
E070
E070
E070
E070
E0F0
F0F0
F1F0
FFF0
7F70
3E70
ENDCHAR
STARTCHAR yacute
ENCODING 253
SWIDTH 568 0
DWIDTH 14 0
BBX 14 25 0 -6
BITMAP
01E0
03C0
0380
0700
0000
0000
F03C
7038
7878
7878
3C70
3CF0
1CF0
1EE0
0FE0
0FC0
0FC0
07C0
0780
0780
0700
0F00
7E00
7E00
7800
ENDCHAR
STARTCHAR thorn
ENCODING 254
SWIDTH 632 0
DWIDTH 15 0
BBX 12 24 2 -6
BITMAP
E000
E000
E000
E000
E000
E780
EFC0
FFE0
F1F0
F0F0
E0F0
E0F0
E0F0
F0F0
F1F0
FFE0
FFC0
E780
E000
E000
E000
E000
E000
E000
ENDCHAR
STARTCHAR ydieresis
ENCODING 255
SWIDTH 568 0
DWIDTH 14 0
BBX 14 24 0 -6
BITMAP
1CE0
1CE0
1CE0
0000
0000
F03C
7038
7878
7878
3C70
3CF0
1CF0
1EE0
0FE0
0FC0
0FC0
07C0
0780
0780
0700
0F00
7E00
7E00
7800
ENDCHAR
STARTCHAR Amacron
ENCODING 256
SWIDTH 689 0
DWIDTH 17 0
BBX 17 21 0 0
BITMAP
0FF000
0FF000
000000
000000
03E000
03E000
07F000
077000
077000
0F7800
0E3800
1E3800
1E3C00
1C1C00
3FFE00
3FFE00
3FFE00
780F00
780F00
700700
F00780
ENDCHAR
STARTCHAR amacron
ENCODING 257
SWIDTH 604 0
DWIDTH 15 0
BBX 12 17 1 0
BITMAP
1FE0
1FE0
0000
0000
1FC0
7FE0
3FF0
30F0
0070
1FF0
7FF0
F870
F070
F0F0
FFF0
7F70
3E30
ENDCHAR
STARTCHAR Abreve
ENCODING 258
SWIDTH 689 0
DWIDTH 17 0
BBX 17 23 0 0
BITMAP
0C1800
0FF800
07F000
03E000
000000
000000
03E000
03E000
07F000
077000
077000
0F7800
0E3800
1E3800
1E3C00
1C1C00
3FFE00
3FFE00
3FFE00
780F00
780F00
700700
F00780
ENDCHAR
STARTCHAR abreve
ENCODING 259
SWIDTH 604 0
DWIDTH 15 0
BBX 12 19 1 0
BITMAP
3060
3FE0
1FC0
0F80
0000
0000
1FC0
7FE0
3FF0
30F0
0070
1FF0
7FF0
F870
F070
F0F0
FFF0
7F70
3E30
ENDCHAR
STARTCHAR Aogonek
ENCODING 260
SWIDTH 689 0
DWIDTH 17 0
BBX 17 23 0 -6
BITMAP
03E000
03E000
07F000
077000
077000
0F7800
0E3800
1E3800
1E3C00
1C1C00
3FFE00
3FFE00
3FFE00
780F00
780F00
700700
F00780
000C00
001C00
001800
001800
001E00
000E00
ENDCHAR
STARTCHAR aogonek
ENCODING 261
SWIDTH 604 0
DWIDTH 15 0
BBX 12 19 1 -6
BITMAP
1FC0
7FE0
3FF0
30F0
0070
1FF0
7FF0
F870
F070
F0F0
FFF0
7F70
3E30
0060
00C0
01C0
01C0
01F0
00F0
ENDCHAR
STARTCHAR Cacute
ENCODING 262
SWIDTH 637 0
DWIDTH 15 0
BBX 13 23 1 0
BITMAP
0078
00F0
01C0
0380
0000
0000
07E0
1FF8
3FF8
3C10
7800
7800
7000
F000
F000
F000
7000
7800
7800
7C18
3FF8
1FF8
07F0
ENDCHAR
STARTCHAR cacute
ENCODING 263
SWIDTH 514 0
DWIDTH 12 0
BBX 11 19 1 0
BITMAP
01E0
03C0
0780
0E00
0000
0000
1F80
3FC0
7FC0
7800
F000
F000
F000
F000
F000
F840
7FC0
3FC0
1F80
ENDCHAR
STARTCHAR Ccircumflex
ENCODING 264
SWIDTH 637 0
DWIDTH 15 0
BBX 13 23 1 0
BITMAP
03E0
07F0
0F70
0E38
0000
0000
07E0
1FF8
3FF8
3C10
7800
7800
7000
F000
F000
F000
7000
7800
7800
7C18
3FF8
1FF8
07F0
ENDCHAR
STARTCHAR ccircumflex
ENCODING 265
SWIDTH 514 0
DWIDTH 12 0
BBX 11 19 1 0
BITMAP
0F80
1F80
3DC0
70E0
0000
0000
1F80
3FC0
7FC0
7800
F000
F000
F000
F000
F000
F840
7FC0
3FC0
1F80
ENDCHAR
STARTCHAR Cdot
ENCODING 266
SWIDTH 637 0
DWIDTH 15 0
BBX 13 22 1 0
BITMAP
03C0
03C0
01C0
0000
0000
07E0
1FF8
3FF8
3C10
7800
7800
7000
F000
F000
F000
7000
7800
7800
7C18
3FF8
1FF8
07F0
ENDCHAR
STARTCHAR cdot
ENCODING 267
SWIDTH 514 0
DWIDTH 12 0
BBX 10 19 1 0
BITMAP
0200
0F00
0F00
0700
0000
0000
1F80
3FC0
7FC0
7800
F000
F000
F000
F000
F000
F840
7FC0
3FC0
1F80
ENDCHAR
STARTCHAR Ccaron
ENCODING 268
SWIDTH 637 0
DWIDTH 15 0
BBX 13 23 1 0
BITMAP
0E38
0F70
07F0
03E0
0000
0000
07E0
1FF8
3FF8
3C10
7800
7800
7000
F000
F000
F000
7000
7800
7800
7C18
3FF8
1FF8
07F0
ENDCHAR
STARTCHAR ccaron
ENCODING 269
SWIDTH 514 0
DWIDTH 12 0
BBX 11 19 1 0
BITMAP
30E0
3DE0
1FC0
0F80
0000
0000
1F80
3FC0
7FC0
7800
F000
F000
F000
F000
F000
F840
7FC0
3FC0
1F80
ENDCHAR
STARTCHAR Dcaron
ENCODING 270
SWIDTH 740 0
DWIDTH 18 0
BBX 15 23 2 0
BITMAP
3870
1DE0
0FC0
0F80
0000
0000
FF80
FFE0
FFF8
F0F8
F03C
F03C
F01C
F01E
F01E
F01E
F01C
F03C
F03C
F0F8
FFF0
FFE0
FF80
ENDCHAR
STARTCHAR dcaron
ENCODING 271
SWIDTH 632 0
DWIDTH 15 0
BBX 17 18 1 0
BITMAP
007380
007380
007300
007700
007000
1E7000
3F7000
7FF000
F8F000
F07000
F07000
F07000
F07000
F07000
F8F000
7FF000
3F7000
1E7000
ENDCHAR
STARTCHAR Dcroat
ENCODING 272
SWIDTH 740 0
DWIDTH 18 0
BBX 16 17 1 0
BITMAP
7FC0
7FF0
7FFC
787C
781E
781E
780E
FF0F
FF0F
FF0F
780E
781E
781E
787C
7FF8
7FF0
7FC0
ENDCHAR
STARTCHAR dcroat
ENCODING 273
SWIDTH 648 0
DWIDTH 16 0
BBX 15 18 1 0
BITMAP
0078
0078
07FE
07FE
0078
0078
1F78
7FF8
7FF8
F8F8
F078
F078
F078
F078
F8F8
7FF8
7FF8
1E38
ENDCHAR
STARTCHAR Emacron
ENCODING 274
SWIDTH 560 0
DWIDTH 13 0
BBX 10 21 2 0
BITMAP
7F80
7F80
0000
0000
FFC0
FFC0
FFC0
F000
F000
F000
F000
FF80
FF80
FF80
F000
F000
F000
F000
FFC0
FFC0
FFC0
ENDCHAR
STARTCHAR emacron
ENCODING 275
SWIDTH 590 0
DWIDTH 14 0
BBX 12 17 1 0
BITMAP
3FC0
3FC0
0000
0000
1F80
3FE0
78E0
70F0
F070
FFF0
FFF0
F000
F000
7820
7FE0
3FE0
0FC0
ENDCHAR
STARTCHAR Ebreve
ENCODING 276
SWIDTH 560 0
DWIDTH 13 0
BBX 10 23 2 0
BITMAP
60C0
7F80
7F80
1E00
0000
0000
FFC0
FFC0
FFC0
F000
F000
F000
F000
FF80
FF80
FF80
F000
F000
F000
F000
FFC0
FFC0
FFC0
ENDCHAR
STARTCHAR ebreve
ENCODING 277
SWIDTH 590 0
DWIDTH 14 0
BBX 12 19 1 0
BITMAP
3060
3FE0
1FC0
0F80
0000
0000
1F80
3FE0
78E0
70F0
F070
FFF0
FFF0
F000
F000
7820
7FE0
3FE0
0FC0
ENDCHAR
STARTCHAR Edotaccent
ENCODING 278
SWIDTH 560 0
DWIDTH 13 0
BBX 10 22 2 0
BITMAP
1E00
1E00
0E00
0000
0000
FFC0
FFC0
FFC0
F000
F000
F000
F000
FF80
FF80
FF80
F000
F000
F000
F000
FFC0
FFC0
FFC0
ENDCHAR
STARTCHAR edotaccent
ENCODING 279
SWIDTH 590 0
DWIDTH 14 0
BBX 12 19 1 0
BITMAP
0200
0F00
0F00
0700
0000
0000
1F80
3FE0
78E0
70F0
F070
FFF0
FFF0
F000
F000
7820
7FE0
3FE0
0FC0
ENDCHAR
STARTCHAR Eogonek
ENCODING 280
SWIDTH 560 0
DWIDTH 13 0
BBX 10 23 2 -6
BITMAP
FFC0
FFC0
FFC0
F000
F000
F000
F000
FF80
FF80
FF80
F000
F000
F000
F000
FFC0
FFC0
FFC0
0380
0700
0600
0600
07C0
03C0
ENDCHAR
STARTCHAR eogonek
ENCODING 281
SWIDTH 590 0
DWIDTH 14 0
BBX 12 19 1 -6
BITMAP
1F80
3FE0
78E0
70F0
F070
FFF0
FFF0
F000
F000
7820
7FE0
3FE0
0FC0
01C0
0380
0300
0380
03E0
01E0
ENDCHAR
STARTCHAR Ecaron
ENCODING 282
SWIDTH 560 0
DWIDTH 13 0
BBX 10 23 2 0
BITMAP
E1C0
7B80
3F80
1F00
0000
0000
FFC0
FFC0
FFC0
F000
F000
F000
F000
FF80
FF80
FF80
F000
F000
F000
F000
FFC0
FFC0
FFC0
ENDCHAR
STARTCHAR ecaron
ENCODING 283
SWIDTH 590 0
DWIDTH 14 0
BBX 12 19 1 0
BITMAP
38E0
3DE0
1FC0
0F80
0000
0000
1F80
3FE0
78E0
70F0
F070
FFF0
FFF0
F000
F000
7820
7FE0
3FE0
0FC0
ENDCHAR
STARTCHAR Gcircumflex
ENCODING 284
SWIDTH 724 0
DWIDTH 17 0
BBX 14 23 1 0
BITMAP
03E0
07F0
0778
0E1C
0000
0000
03F8
0FFC
3FFC
3E08
7C00
7800
7000
F1FC
F1FC
F1FC
701C
781C
781C
7C1C
3FFC
1FFC
07F8
ENDCHAR
STARTCHAR gcircumflex
ENCODING 285
SWIDTH 564 0
DWIDTH 14 0
BBX 14 25 0 -6
BITMAP
0780
0FC0
1CE0
3870
0000
0000
0FFC
3FFC
78F0
7870
7070
7870
38F0
3FE0
1F80
3800
3FE0
3FF8
7FF8
F03C
E03C
E038
F078
7FF0
1FC0
ENDCHAR
STARTCHAR Gbreve
ENCODING 286
SWIDTH 724 0
DWIDTH 17 0
BBX 14 23 1 0
BITMAP
0C18
0FF8
07F0
03E0
0000
0000
03F8
0FFC
3FFC
3E08
7C00
7800
7000
F1FC
F1FC
F1FC
701C
781C
781C
7C1C
3FFC
1FFC
07F8
ENDCHAR
STARTCHAR gbreve
ENCODING 287
SWIDTH 564 0
DWIDTH 14 0
BBX 14 25 0 -6
BITMAP
3870
1FE0
1FE0
0780
0000
0000
0FFC
3FFC
78F0
7870
7070
7870
38F0
3FE0
1F80
3800
3FE0
3FF8
7FF8
F03C
E03C
E038
F078
7FF0
1FC0
ENDCHAR
STARTCHAR Gdot
ENCODING 288
SWIDTH 724 0
DWIDTH 17 0
BBX 14 22 1 0
BITMAP
01C0
01C0
01C0
0000
0000
03F8
0FFC
3FFC
3E08
7C00
7800
7000
F1FC
F1FC
F1FC
701C
781C
781C
7C1C
3FFC
1FFC
07F8
ENDCHAR
STARTCHAR gdot
ENCODING 289
SWIDTH 564 0
DWIDTH 14 0
BBX 14 24 0 -6
BITMAP
0780
0780
0700
0000
0000
0FFC
3FFC
78F0
7870
7070
7870
38F0
3FE0
1F80
3800
3FE0
3FF8
7FF8
F03C
E03C
E038
F078
7FF0
1FC0
ENDCHAR
STARTCHAR Gcommaaccent
ENCODING 290
SWIDTH 724 0
DWIDTH 17 0
BBX 14 22 1 -5
BITMAP
03F8
0FFC
3FFC
3E08
7C00
7800
7000
F1FC
F1FC
F1FC
701C
781C
781C
7C1C
3FFC
1FFC
07F8
0000
01C0
01C0
0180
0380
ENDCHAR
STARTCHAR gcommaaccent
ENCODING 291
SWIDTH 564 0
DWIDTH 14 0
BBX 14 25 0 -6
BITMAP
0180
0380
0380
0700
0000
0000
0FFC
3FFC
78F0
7870
7070
7870
38F0
3FE0
1F80
3800
3FE0
3FF8
7FF8
F03C
E03C
E038
F078
7FF0
1FC0
ENDCHAR
STARTCHAR Hcircumflex
ENCODING 292
SWIDTH 765 0
DWIDTH 18 0
BBX 14 23 2 0
BITMAP
07C0
0FE0
1EE0
3870
0000
0000
F03C
F03C
F03C
F03C
F03C
F03C
F03C
FFFC
FFFC
FFFC
F03C
F03C
F03C
F03C
F03C
F03C
F03C
ENDCHAR
STARTCHAR hcircumflex
ENCODING 293
SWIDTH 657 0
DWIDTH 16 0
BBX 12 24 2 0
BITMAP
0F00
1F80
39C0
70E0
0000
0000
E000
E000
E000
E000
E000
E7C0
EFE0
FFF0
F8F0
F0F0
F070
E070
E070
E070
E070
E070
E070
E070
ENDCHAR
STARTCHAR Hbar
ENCODING 294
SWIDTH 765 0
DWIDTH 18 0
BBX 18 17 0 0
BITMAP
3C0F00
3C0F00
FFFFC0
FFFFC0
3C0F00
3C0F00
3C0F00
3FFF00
3FFF00
3FFF00
3C0F00
3C0F00
3C0F00
3C0F00
3C0F00
3C0F00
3C0F00
ENDCHAR
STARTCHAR hbar
ENCODING 295
SWIDTH 657 0
DWIDTH 16 0
BBX 14 18 0 0
BITMAP
3800
3800
FF80
FF80
3800
3800
39F0
3BF8
3FFC
3E3C
3C3C
3C1C
381C
381C
381C
381C
381C
381C
ENDCHAR
STARTCHAR Itilde
ENCODING 296
SWIDTH 331 0
DWIDTH 8 0
BBX 10 23 -1 0
BITMAP
38C0
7FC0
EF80
C700
0000
0000
1E00
1E00
1E00
1E00
1E00
1E00
1E00
1E00
1E00
1E00
1E00
1E00
1E00
1E00
1E00
1E00
1E00
ENDCHAR
STARTCHAR itilde
ENCODING 297
SWIDTH 305 0
DWIDTH 7 0
BBX 10 19 -1 0
BITMAP
70C0
7D80
FF80
C700
0000
0000
1C00
1C00
1C00
1C00
1C00
1C00
1C00
1C00
1C00
1C00
1C00
1C00
1C00
ENDCHAR
STARTCHAR Imacron
ENCODING 298
SWIDTH 331 0
DWIDTH 8 0
BBX 8 21 0 0
BITMAP
FF
FF
00
00
3C
3C
3C
3C
3C
3C
3C
3C
3C
3C
3C
3C
3C
3C
3C
3C
3C
ENDCHAR
STARTCHAR imacron
ENCODING 299
SWIDTH 305 0
DWIDTH 7 0
BBX 8 17 0 0
BITMAP
FF
FF
00
00
38
38
38
38
38
38
38
38
38
38
38
38
38
ENDCHAR
STARTCHAR Ibreve
ENCODING 300
SWIDTH 331 0
DWIDTH 8 0
BBX 9 23 0 0
BITMAP
C180
FF00
FF00
3C00
0000
0000
3C00
3C00
3C00
3C00
3C00
3C00
3C00
3C00
3C00
3C00
3C00
3C00
3C00
3C00
3C00
3C00
3C00
ENDCHAR
STARTCHAR ibreve
ENCODING 301
SWIDTH 305 0
DWIDTH 7 0
BBX 9 19 -1 0
BITMAP
C180
FF80
7F00
3E00
0000
0000
1C00
1C00
1C00
1C00
1C00
1C00
1C00
1C00
1C00
1C00
1C00
1C00
1C00
ENDCHAR
STARTCHAR Iogonek
ENCODING 302
SWIDTH 331 0
DWIDTH 8 0
BBX 5 23 1 -6
BITMAP
78
78
78
78
78
78
78
78
78
78
78
78
78
78
78
78
78
30
60
E0
E0
78
78
ENDCHAR
STARTCHAR iogonek
ENCODING 303
SWIDTH 305 0
DWIDTH 7 0
BBX 5 24 1 -6
BITMAP
70
78
78
70
00
70
70
70
70
70
70
70
70
70
70
70
70
70
60
C0
C0
C0
F0
70
ENDCHAR
STARTCHAR Idotaccent
ENCODING 304
SWIDTH 331 0
DWIDTH 8 0
BBX 4 22 2 0
BITMAP
F0
F0
E0
00
00
F0
F0
F0
F0
F0
F0
F0
F0
F0
F0
F0
F0
F0
F0
F0
F0
F0
ENDCHAR
STARTCHAR dotlessi
ENCODING 305
SWIDTH 305 0
DWIDTH 7 0
BBX 3 13 2 0
BITMAP
E0
E0
E0
E0
E0
E0
E0
E0
E0
E0
E0
E0
E0
ENDCHAR
STARTCHAR IJ
ENCODING 306
SWIDTH 720 0
DWIDTH 17 0
BBX 13 22 2 -5
BITMAP
F078
F078
F078
F078
F078
F078
F078
F078
F078
F078
F078
F078
F078
F078
F078
F078
F078
0078
0078
03F0
03F0
03C0
ENDCHAR
STARTCHAR ij
ENCODING 307
SWIDTH 590 0
DWIDTH 14 0
BBX 10 24 2 -6
BITMAP
E1C0
F1C0
F1C0
E1C0
0000
E1C0
E1C0
E1C0
E1C0
E1C0
E1C0
E1C0
E1C0
E1C0
E1C0
E1C0
E1C0
E1C0
01C0
01C0
03C0
1FC0
1F80
1F00
ENDCHAR
STARTCHAR Jcircumflex
ENCODING 308
SWIDTH 331 0
DWIDTH 8 0
BBX 11 28 -2 -5
BITMAP
0F80
1F80
39C0
70E0
0000
0000
0F00
0F00
0F00
0F00
0F00
0F00
0F00
0F00
0F00
0F00
0F00
0F00
0F00
0F00
0F00
0F00
0F00
0F00
1E00
FE00
FC00
F800
ENDCHAR
STARTCHAR jcircumflex
ENCODING 309
SWIDTH 305 0
DWIDTH 7 0
BBX 11 25 -2 -6
BITMAP
1F00
1F80
3BC0
70E0
0000
0000
0E00
0E00
0E00
0E00
0E00
0E00
0E00
0E00
0E00
0E00
0E00
0E00
0E00
0E00
0E00
1E00
FE00
FE00
F800
ENDCHAR
STARTCHAR Kcommaaccent
ENCODING 310
SWIDTH 664 0
DWIDTH 16 0
BBX 14 22 2 -5
BITMAP
F03C
F078
F0F0
F1E0
F3C0
F7C0
F780
FF00
FF80
FF80
F3C0
F3C0
F1E0
F0F0
F0F0
F078
F03C
0000
0700
0E00
0E00
0C00
ENDCHAR
STARTCHAR kcommaaccent
ENCODING 311
SWIDTH 620 0
DWIDTH 15 0
BBX 13 23 2 -5
BITMAP
E000
E000
E000
E000
E000
E0F0
E1E0
E3C0
E780
EF00
EF00
FF00
FF80
F3C0
E3C0
E1E0
E0F0
E0F8
0000
0E00
0E00
0C00
1C00
ENDCHAR
STARTCHAR kgreenlandic
ENCODING 312
SWIDTH 620 0
DWIDTH 15 0
BBX 13 13 2 0
BITMAP
E0F0
E0E0
E1C0
E3C0
E780
EF00
FF00
FF80
F780
E3C0
E1E0
E0F0
E078
ENDCHAR
STARTCHAR Lacute
ENCODING 313
SWIDTH 564 0
DWIDTH 14 0
BBX 11 23 2 0
BITMAP
0F00
1E00
3C00
7000
0000
0000
F000
F000
F000
F000
F000
F000
F000
F000
F000
F000
F000
F000
F000
F000
FFE0
FFE0
FFE0
ENDCHAR
STARTCHAR lacute
ENCODING 314
SWIDTH 305 0
DWIDTH 7 0
BBX 7 24 2 0
BITMAP
1E
3C
70
E0
00
00
E0
E0
E0
E0
E0
E0
E0
E0
E0
E0
E0
E0
E0
E0
E0
E0
E0
E0
ENDCHAR
STARTCHAR Lcommaaccent
ENCODING 315
SWIDTH 564 0
DWIDTH 14 0
BBX 11 22 2 -5
BITMAP
F000
F000
F000
F000
F000
F000
F000
F000
F000
F000
F000
F000
F000
F000
FFE0
FFE0
FFE0
0000
0E00
1C00
1C00
1800
ENDCHAR
STARTCHAR lcommaaccent
ENCODING 316
SWIDTH 305 0
DWIDTH 7 0
BBX 4 23 1 -5
BITMAP
70
70
70
70
70
70
70
70
70
70
70
70
70
70
70
70
70
70
00
70
70
E0
E0
ENDCHAR
STARTCHAR Lcaron
ENCODING 317
SWIDTH 564 0
DWIDTH 14 0
BBX 11 17 2 0
BITMAP
F1C0
F1C0
F180
F380
F000
F000
F000
F000
F000
F000
F000
F000
F000
F000
FFE0
FFE0
FFE0
ENDCHAR
STARTCHAR lcaron
ENCODING 318
SWIDTH 305 0
DWIDTH 7 0
BBX 8 18 2 0
BITMAP
E7
E7
E6
E6
E0
E0
E0
E0
E0
E0
E0
E0
E0
E0
E0
E0
E0
E0
ENDCHAR
STARTCHAR Ldot
ENCODING 319
SWIDTH 564 0
DWIDTH 14 0
BBX 11 17 2 0
BITMAP
F000
F000
F000
F000
F000
F000
F000
F3C0
F3C0
F1C0
F000
F000
F000
F000
FFE0
FFE0
FFE0
ENDCHAR
STARTCHAR ldot
ENCODING 320
SWIDTH 428 0
DWIDTH 10 0
BBX 9 18 2 0
BITMAP
E000
E000
E000
E000
E000
E000
E000
E000
E780
E780
E700
E000
E000
E000
E000
E000
E000
E000
ENDCHAR
STARTCHAR Lslash
ENCODING 321
SWIDTH 564 0
DWIDTH 14 0
BBX 13 17 0 0
BITMAP
3C00
3C00
3C00
3C00
3C00
3D00
3F00
3F00
3E00
FC00
7C00
7C00
3C00
3C00
3FF8
3FF8
3FF8
ENDCHAR
STARTCHAR lslash
ENCODING 322
SWIDTH 330 0
DWIDTH 8 0
BBX 8 18 0 0
BITMAP
3C
3C
3C
3C
3C
3C
3C
3E
3E
3F
FC
FC
7C
3C
3C
3C
3C
3C
ENDCHAR
STARTCHAR Nacute
ENCODING 323
SWIDTH 812 0
DWIDTH 20 0
BBX 16 23 2 0
BITMAP
00F0
00E0
01C0
0380
0000
0000
F807
FC07
FC07
FE07
EF07
EF07
E787
E787
E3C7
E1E7
E1E7
E0F7
E0FF
E07F
E03F
E03F
E01F
ENDCHAR
STARTCHAR nacute
ENCODING 324
SWIDTH 657 0
DWIDTH 16 0
BBX 12 19 2 0
BITMAP
03E0
0380
0700
0E00
0000
0000
E7C0
EFE0
FFF0
F8F0
F0F0
F070
E070
E070
E070
E070
E070
E070
E070
ENDCHAR
STARTCHAR Ncommaaccent
ENCODING 325
SWIDTH 812 0
DWIDTH 20 0
BBX 16 22 2 -5
BITMAP
F807
FC07
FC07
FE07
EF07
EF07
E787
E787
E3C7
E1E7
E1E7
E0F7
E0FF
E07F
E03F
E03F
E01F
0000
0380
0700
0700
0600
ENDCHAR
STARTCHAR ncommaaccent
ENCODING 326
SWIDTH 657 0
DWIDTH 16 0
BBX 12 18 2 -5
BITMAP
E7C0
EFE0
FFF0
F8F0
F0F0
F070
E070
E070
E070
E070
E070
E070
E070
0000
0E00
0E00
0C00
1C00
ENDCHAR
STARTCHAR Ncaron
ENCODING 327
SWIDTH 812 0
DWIDTH 20 0
BBX 16 23 2 0
BITMAP
1C38
0F70
07E0
03E0
0000
0000
F807
FC07
FC07
FE07
EF07
EF07
E787
E787
E3C7
E1E7
E1E7
E0F7
E0FF
E07F
E03F
E03F
E01F
ENDCHAR
STARTCHAR ncaron
ENCODING 328
SWIDTH 657 0
DWIDTH 16 0
BBX 12 19 2 0
BITMAP
70E0
3DC0
1FC0
0F80
0000
0000
E7C0
EFE0
FFF0
F8F0
F0F0
F070
E070
E070
E070
E070
E070
E070
E070
ENDCHAR
STARTCHAR napostrophe
ENCODING 329
SWIDTH 778 0
DWIDTH 19 0
BBX 17 17 0 0
BITMAP
780000
700000
700000
700000
E73E00
E77F00
07FF80
07C780
078780
078380
070380
070380
070380
070380
070380
070380
070380
ENDCHAR
STARTCHAR Eng
ENCODING 330
SWIDTH 812 0
DWIDTH 20 0
BBX 16 22 2 -5
BITMAP
F807
FC07
FE07
FE07
EF07
EF87
E7C7
E3E7
E1E7
E1F7
E0FF
E07F
E07F
E03F
E01F
E00F
E00F
0007
000F
00FE
00FE
00F8
ENDCHAR
STARTCHAR eng
ENCODING 331
SWIDTH 657 0
DWIDTH 16 0
BBX 12 19 2 -6
BITMAP
E7C0
EFE0
FFF0
F8F0
F0F0
F070
E070
E070
E070
E070
E070
E070
E070
0070
00F0
00F0
03F0
03E0
03C0
ENDCHAR
STARTCHAR Omacron
ENCODING 332
SWIDTH 795 0
DWIDTH 19 0
BBX 17 21 1 0
BITMAP
07F800
07F800
000000
000000
07F000
1FFC00
3FFE00
7C1E00
780F00
780F00
700700
F00780
F00780
F00780
700700
780F00
780F00
3C1E00
3FFE00
1FFC00
07F000
ENDCHAR
STARTCHAR omacron
ENCODING 333
SWIDTH 619 0
DWIDTH 15 0
BBX 13 17 1 0
BITMAP
1FE0
1FE0
0000
0000
0F80
3FE0
7FF0
78F0
F078
F078
F078
F078
F078
78F0
7FF0
3FE0
0F80
ENDCHAR
STARTCHAR Obreve
ENCODING 334
SWIDTH 795 0
DWIDTH 19 0
BBX 17 23 1 0
BITMAP
0C1800
0FF800
07F000
03E000
000000
000000
07F000
1FFC00
3FFE00
7C1E00
780F00
780F00
700700
F00780
F00780
F00780
700700
780F00
780F00
3C1E00
3FFE00
1FFC00
07F000
ENDCHAR
STARTCHAR obreve
ENCODING 335
SWIDTH 619 0
DWIDTH 15 0
BBX 13 19 1 0
BITMAP
3060
3FE0
1FC0
0F80
0000
0000
0F80
3FE0
7FF0
78F0
F078
F078
F078
F078
F078
78F0
7FF0
3FE0
0F80
ENDCHAR
STARTCHAR Ohungarumlaut
ENCODING 336
SWIDTH 795 0
DWIDTH 19 0
BBX 17 23 1 0
BITMAP
01CE00
039C00
073800
063000
000000
000000
07F000
1FFC00
3FFE00
7C1E00
780F00
780F00
700700
F00780
F00780
F00780
700700
780F00
780F00
3C1E00
3FFE00
1FFC00
07F000
ENDCHAR
STARTCHAR ohungarumlaut
ENCODING 337
SWIDTH 619 0
DWIDTH 15 0
BBX 13 19 1 0
BITMAP
0F78
0E70
1CE0
39C0
0000
0000
0F80
3FE0
7FF0
78F0
F078
F078
F078
F078
F078
78F0
7FF0
3FE0
0F80
ENDCHAR
STARTCHAR OE
ENCODING 338
SWIDTH 973 0
DWIDTH 23 0
BBX 21 17 1 0
BITMAP
07FFF8
1FFFF8
3FFFF8
7C1C00
781C00
781C00
F01C00
F01FF0
F01FF0
F01FF0
701C00
781C00
781C00
7C1C00
3FFFF8
1FFFF8
07FFF8
ENDCHAR
STARTCHAR oe
ENCODING 339
SWIDTH 978 0
DWIDTH 23 0
BBX 21 13 1 0
BITMAP
1F8FC0
3FDFE0
7FFC70
78F878
F07838
F07FF8
F07FF8
F07800
F07800
78FC10
7FFFF0
3FFFF0
0F87E0
ENDCHAR
STARTCHAR Racute
ENCODING 340
SWIDTH 660 0
DWIDTH 16 0
BBX 14 23 2 0
BITMAP
03C0
0780
0700
0E00
0000
0000
FF80
FFE0
FFE0
F1F0
F0F0
F0F0
F0F0
F1F0
FFE0
FFC0
FF80
F3C0
F1E0
F0E0
F0F0
F078
F03C
ENDCHAR
STARTCHAR racute
ENCODING 341
SWIDTH 454 0
DWIDTH 11 0
BBX 9 19 2 0
BITMAP
0F80
0E00
1C00
3800
0000
0000
E700
EF00
FF00
FC00
F000
F000
E000
E000
E000
E000
E000
E000
E000
ENDCHAR
STARTCHAR Rcommaaccent
ENCODING 342
SWIDTH 660 0
DWIDTH 16 0
BBX 14 22 2 -5
BITMAP
FF80
FFE0
FFE0
F1F0
F0F0
F0F0
F0F0
F1F0
FFE0
FFC0
FF80
F3C0
F1E0
F0E0
F0F0
F078
F03C
0000
0700
0700
0E00
0E00
ENDCHAR
STARTCHAR rcommaaccent
ENCODING 343
SWIDTH 454 0
DWIDTH 11 0
BBX 9 18 1 -5
BITMAP
7380
7780
7F80
7E00
7800
7800
7000
7000
7000
7000
7000
7000
7000
0000
7000
7000
E000
E000
ENDCHAR
STARTCHAR Rcaron
ENCODING 344
SWIDTH 660 0
DWIDTH 16 0
BBX 14 23 2 0
BITMAP
70E0
39C0
1F80
0F80
0000
0000
FF80
FFE0
FFE0
F1F0
F0F0
F0F0
F0F0
F1F0
FFE0
FFC0
FF80
F3C0
F1E0
F0E0
F0F0
F078
F03C
ENDCHAR
STARTCHAR rcaron
ENCODING 345
SWIDTH 454 0
DWIDTH 11 0
BBX 10 19 1 0
BITMAP
E1C0
7B80
3F00
1F00
0000
0000
7380
7780
7F80
7E00
7800
7800
7000
7000
7000
7000
7000
7000
7000
ENDCHAR
STARTCHAR Sacute
ENCODING 346
SWIDTH 550 0
DWIDTH 13 0
BBX 11 23 1 0
BITMAP
03C0
0380
0700
0E00
0000
0000
1F80
3FE0
7FC0
F0C0
F000
F000
7800
7F00
3F80
0FC0
03E0
01E0
01E0
C1E0
FFC0
FFC0
7F00
ENDCHAR
STARTCHAR sacute
ENCODING 347
SWIDTH 497 0
DWIDTH 12 0
BBX 10 19 1 0
BITMAP
03C0
0780
0E00
1C00
0000
0000
3F00
7FC0
FF80
F080
F000
7E00
3F80
0FC0
03C0
C3C0
FFC0
FF80
7F00
ENDCHAR
STARTCHAR Scircumflex
ENCODING 348
SWIDTH 550 0
DWIDTH 13 0
BBX 11 23 1 0
BITMAP
0F80
1F80
39C0
70E0
0000
0000
1F80
3FE0
7FC0
F0C0
F000
F000
7800
7F00
3F80
0FC0
03E0
01E0
01E0
C1E0
FFC0
FFC0
7F00
ENDCHAR
STARTCHAR scircumflex
ENCODING 349
SWIDTH 497 0
DWIDTH 12 0
BBX 10 19 1 0
BITMAP
1F00
3F80
7B80
E1C0
0000
0000
3F00
7FC0
FF80
F080
F000
7E00
3F80
0FC0
03C0
C3C0
FFC0
FF80
7F00
ENDCHAR
STARTCHAR Scedilla
ENCODING 350
SWIDTH 550 0
DWIDTH 13 0
BBX 11 23 1 -6
BITMAP
1F80
3FE0
7FC0
F0C0
F000
F000
7800
7F00
3F80
0FC0
03E0
01E0
01E0
C1E0
FFC0
FFC0
7F00
0C00
0E00
0700
0700
1F00
1E00
ENDCHAR
STARTCHAR scedilla
ENCODING 351
SWIDTH 497 0
DWIDTH 12 0
BBX 10 19 1 -6
BITMAP
3F00
7FC0
FF80
F080
F000
7E00
3F80
0FC0
03C0
C3C0
FFC0
FF80
7F00
1C00
1E00
0E00
0600
3E00
3C00
ENDCHAR
STARTCHAR Scaron
ENCODING 352
SWIDTH 550 0
DWIDTH 13 0
BBX 11 23 1 0
BITMAP
70E0
39C0
1F80
0F80
0000
0000
1F80
3FE0
7FC0
F0C0
F000
F000
7800
7F00
3F80
0FC0
03E0
01E0
01E0
C1E0
FFC0
FFC0
7F00
ENDCHAR
STARTCHAR scaron
ENCODING 353
SWIDTH 497 0
DWIDTH 12 0
BBX 10 19 1 0
BITMAP
71C0
7BC0
3F80
1F00
0000
0000
3F00
7FC0
FF80
F080
F000
7E00
3F80
0FC0
03C0
C3C0
FFC0
FF80
7F00
ENDCHAR
STARTCHAR Tcedilla
ENCODING 354
SWIDTH 579 0
DWIDTH 14 0
BBX 12 23 1 -6
BITMAP
FFF0
FFF0
FFF0
0F00
0F00
0F00
0F00
0F00
0F00
0F00
0F00
0F00
0F00
0F00
0F00
0F00
0F00
0600
0F00
0380
0380
1F80
1F00
ENDCHAR
STARTCHAR tcedilla
ENCODING 355
SWIDTH 434 0
DWIDTH 10 0
BBX 9 22 0 -6
BITMAP
1C00
1C00
1C00
3F80
FF80
FF80
3C00
3C00
3C00
3C00
3C00
3C00
3C00
3F80
1F80
0F80
0600
0F00
0780
0380
1F00
1E00
ENDCHAR
STARTCHAR Tcaron
ENCODING 356
SWIDTH 579 0
DWIDTH 14 0
BBX 12 23 1 0
BITMAP
70E0
39C0
1F80
0F80
0000
0000
FFF0
FFF0
FFF0
0F00
0F00
0F00
0F00
0F00
0F00
0F00
0F00
0F00
0F00
0F00
0F00
0F00
0F00
ENDCHAR
STARTCHAR tcaron
ENCODING 357
SWIDTH 434 0
DWIDTH 10 0
BBX 11 18 0 0
BITMAP
00E0
00E0
1CC0
1DC0
1C00
3F80
FF80
FF80
3C00
3C00
3C00
3C00
3C00
3C00
3C00
3F80
1F80
0F80
ENDCHAR
STARTCHAR Tbar
ENCODING 358
SWIDTH 579 0
DWIDTH 14 0
BBX 12 17 1 0
BITMAP
FFF0
FFF0
FFF0
0F00
0F00
0F00
0F00
7FE0
7FE0
7FE0
0F00
0F00
0F00
0F00
0F00
0F00
0F00
ENDCHAR
STARTCHAR tbar
ENCODING 359
SWIDTH 434 0
DWIDTH 10 0
BBX 9 16 0 0
BITMAP
1C00
1C00
1C00
3F80
FF80
FF80
3C00
3C00
7F80
7F80
3C00
3C00
3C00
3F80
1F80
0F80
ENDCHAR
STARTCHAR Utilde
ENCODING 360
SWIDTH 755 0
DWIDTH 18 0
BBX 14 23 2 0
BITMAP
0E30
1FF0
1BE0
30C0
0000
0000
F03C
F03C
F03C
F03C
F03C
F03C
F03C
F03C
F03C
F03C
F03C
F03C
F03C
7878
7FF8
3FF0
0FC0
ENDCHAR
STARTCHAR utilde
ENCODING 361
SWIDTH 657 0
DWIDTH 16 0
BBX 12 19 2 0
BITMAP
1C60
3EE0
77C0
6380
0000
0000
E070
E070
E070
E070
E070
E070
E070
E0F0
F0F0
F1F0
FFF0
7F70
3E70
ENDCHAR
STARTCHAR Umacron
ENCODING 362
SWIDTH 755 0
DWIDTH 18 0
BBX 14 21 2 0
BITMAP
1FE0
1FE0
0000
0000
F03C
F03C
F03C
F03C
F03C
F03C
F03C
F03C
F03C
F03C
F03C
F03C
F03C
7878
7FF8
3FF0
0FC0
ENDCHAR
STARTCHAR umacron
ENCODING 363
SWIDTH 657 0
DWIDTH 16 0
BBX 12 17 2 0
BITMAP
3FC0
3FC0
0000
0000
E070
E070
E070
E070
E070
E070
E070
E0F0
F0F0
F1F0
FFF0
7F70
3E70
ENDCHAR
STARTCHAR Ubreve
ENCODING 364
SWIDTH 755 0
DWIDTH 18 0
BBX 14 23 2 0
BITMAP
1830
1FE0
1FE0
0780
0000
0000
F03C
F03C
F03C
F03C
F03C
F03C
F03C
F03C
F03C
F03C
F03C
F03C
F03C
7878
7FF8
3FF0
0FC0
ENDCHAR
STARTCHAR ubreve
ENCODING 365
SWIDTH 657 0
DWIDTH 16 0
BBX 12 19 2 0
BITMAP
60E0
3FC0
3FC0
0F00
0000
0000
E070
E070
E070
E070
E070
E070
E070
E0F0
F0F0
F1F0
FFF0
7F70
3E70
ENDCHAR
STARTCHAR Uring
ENCODING 366
SWIDTH 755 0
DWIDTH 18 0
BBX 14 25 2 0
BITMAP
0780
0FC0
0CC0
0CC0
0FC0
0780
0000
0000
F03C
F03C
F03C
F03C
F03C
F03C
F03C
F03C
F03C
F03C
F03C
F03C
F03C
7878
7FF8
3FF0
0FC0
ENDCHAR
STARTCHAR uring
ENCODING 367
SWIDTH 657 0
DWIDTH 16 0
BBX 12 21 2 0
BITMAP
0F00
1F80
1980
1980
1F80
0F00
0000
0000
E070
E070
E070
E070
E070
E070
E070
E0F0
F0F0
F1F0
FFF0
7F70
3E70
ENDCHAR
STARTCHAR Uhungarumlaut
ENCODING 368
SWIDTH 755 0
DWIDTH 18 0
BBX 14 23 2 0
BITMAP
07BC
0738
0E70
1CE0
0000
0000
F03C
F03C
F03C
F03C
F03C
F03C
F03C
F03C
F03C
F03C
F03C
F03C
F03C
7878
7FF8
3FF0
0FC0
ENDCHAR
STARTCHAR uhungarumlaut
ENCODING 369
SWIDTH 657 0
DWIDTH 16 0
BBX 13 19 2 0
BITMAP
0F78
1EF0
1CE0
39C0
0000
0000
E070
E070
E070
E070
E070
E070
E070
E0F0
F0F0
F1F0
FFF0
7F70
3E70
ENDCHAR
STARTCHAR Uogonek
ENCODING 370
SWIDTH 755 0
DWIDTH 18 0
BBX 14 23 2 -6
BITMAP
F03C
F03C
F03C
F03C
F03C
F03C
F03C
F03C
F03C
F03C
F03C
F03C
F03C
7878
7FF8
3FF0
0FC0
0380
0300
0600
0700
07C0
03C0
ENDCHAR
STARTCHAR uogonek
ENCODING 371
SWIDTH 657 0
DWIDTH 16 0
BBX 12 19 2 -6
BITMAP
E070
E070
E070
E070
E070
E070
E070
E0F0
F0F0
F1F0
FFF0
7F70
3E70
0060
00C0
01C0
01C0
01F0
00F0
ENDCHAR
STARTCHAR Wcircumflex
ENCODING 372
SWIDTH 966 0
DWIDTH 23 0
BBX 23 23 0 0
BITMAP
007C00
007E00
00EF00
01C380
000000
000000
F0381E
F07C1E
707C1C
707C1C
786C3C
78EE3C
38EE38
38EE38
3CEE78
3DC778
1DC770
1DC770
1DC770
1F83F0
0F83E0
0F83E0
0F83E0
ENDCHAR
STARTCHAR wcircumflex
ENCODING 373
SWIDTH 855 0
DWIDTH 21 0
BBX 21 19 0 0
BITMAP
00F800
01FC00
03DC00
038E00
000000
000000
F0F878
70F870
70F870
78D8F0
39DCE0
39DCE0
3D9DE0
3D8DE0
1F8FC0
1F8FC0
1F8FC0
0F0780
0F0780
ENDCHAR
STARTCHAR Ycircumflex
ENCODING 374
SWIDTH 624 0
DWIDTH 15 0
BBX 15 23 0 0
BITMAP
07C0
07E0
0EF0
1C38
0000
0000
F01E
783C
783C
3C78
3C78
1EF0
0EE0
0FE0
07C0
07C0
0380
0380
0380
0380
0380
0380
0380
ENDCHAR
STARTCHAR ycircumflex
ENCODING 375
SWIDTH 568 0
DWIDTH 14 0
BBX 14 25 0 -6
BITMAP
0780
0FC0
1CE0
3870
0000
0000
F03C
7038
7878
7878
3C70
3CF0
1CF0
1EE0
0FE0
0FC0
0FC0
07C0
0780
0780
0700
0F00
7E00
7E00
7800
ENDCHAR
STARTCHAR Ydieresis
ENCODING 376
SWIDTH 624 0
DWIDTH 15 0
BBX 15 22 0 0
BITMAP
0E70
0E70
0C70
0000
0000
F01E
783C
783C
3C78
3C78
1EF0
0EE0
0FE0
07C0
07C0
0380
0380
0380
0380
0380
0380
0380
ENDCHAR
STARTCHAR Zacute
ENCODING 377
SWIDTH 579 0
DWIDTH 14 0
BBX 12 23 1 0
BITMAP
03C0
0380
0700
0E00
0000
0000
FFF0
FFF0
FFF0
00E0
01E0
03C0
0780
0780
0F00
1E00
1C00
3C00
7800
F000
FFF0
FFF0
FFF0
ENDCHAR
STARTCHAR zacute
ENCODING 378
SWIDTH 487 0
DWIDTH 12 0
BBX 10 19 1 0
BITMAP
03C0
0780
0F00
1C00
0000
0000
FFC0
FFC0
FFC0
0380
0700
0F00
1E00
3C00
7800
7000
FFC0
FFC0
FFC0
ENDCHAR
STARTCHAR Zdotaccent
ENCODING 379
SWIDTH 579 0
DWIDTH 14 0
BBX 12 22 1 0
BITMAP
0F00
0F00
0E00
0000
0000
FFF0
FFF0
FFF0
00E0
01E0
03C0
0780
0780
0F00
1E00
1C00
3C00
7800
F000
FFF0
FFF0
FFF0
ENDCHAR
STARTCHAR zdotaccent
ENCODING 380
SWIDTH 487 0
DWIDTH 12 0
BBX 10 18 1 0
BITMAP
1E00
1E00
1C00
0000
0000
FFC0
FFC0
FFC0
0380
0700
0F00
1E00
3C00
7800
7000
FFC0
FFC0
FFC0
ENDCHAR
STARTCHAR Zcaron
ENCODING 381
SWIDTH 579 0
DWIDTH 14 0
BBX 12 23 1 0
BITMAP
70E0
3DC0
1F80
0F80
0000
0000
FFF0
FFF0
FFF0
00E0
01E0
03C0
0780
0780
0F00
1E00
1C00
3C00
7800
F000
FFF0
FFF0
FFF0
ENDCHAR
STARTCHAR zcaron
ENCODING 382
SWIDTH 487 0
DWIDTH 12 0
BBX 10 19 1 0
BITMAP
E1C0
7B80
3F00
1F00
0000
0000
FFC0
FFC0
FFC0
0380
0700
0F00
1E00
3C00
7800
7000
FFC0
FFC0
FFC0
ENDCHAR
STARTCHAR longs
ENCODING 383
SWIDTH 382 0
DWIDTH 9 0
BBX 7 18 2 0
BITMAP
3E
7E
FE
F0
E0
E0
E0
E0
E0
E0
E0
E0
E0
E0
E0
E0
E0
E0
ENDCHAR
STARTCHAR florin
ENCODING 402
SWIDTH 570 0
DWIDTH 14 0
BBX 10 23 2 -6
BITMAP
07C0
0FC0
1FC0
1E00
1E00
3FC0
7FC0
7FC0
1E00
1E00
1E00
1E00
1E00
1E00
1E00
1E00
1E00
1E00
1E00
1E00
FE00
FC00
F800
ENDCHAR
STARTCHAR Ohorn
ENCODING 416
SWIDTH 825 0
DWIDTH 20 0
BBX 19 18 1 0
BITMAP
0000E0
07F0E0
1FFDE0
3FFFC0
7C1F80
780F00
780F00
700700
F00780
F00780
F00780
700700
780F00
780F00
3C1E00
3FFE00
1FFC00
07F000
ENDCHAR
STARTCHAR ohorn
ENCODING 417
SWIDTH 679 0
DWIDTH 16 0
BBX 17 15 1 0
BITMAP
000780
000700
0F8F00
3FFE00
7FFC00
78F000
F07800
F07800
F07800
F07800
F07800
78F000
7FF000
3FE000
0F8000
ENDCHAR
STARTCHAR Uhorn
ENCODING 431
SWIDTH 884 0
DWIDTH 21 0
BBX 19 18 2 0
BITMAP
0000E0
F03DE0
F03DE0
F03FC0
F03F00
F03C00
F03C00
F03C00
F03C00
F03C00
F03C00
F03C00
F03C00
F03C00
787800
7FF800
3FF000
0FC000
ENDCHAR
STARTCHAR uhorn
ENCODING 432
SWIDTH 759 0
DWIDTH 18 0
BBX 18 15 2 0
BITMAP
0003C0
000380
E07780
E07F00
E07C00
E07000
E07000
E07000
E07000
E0F000
F0F000
F1F000
FFF000
7F7000
3E7000
ENDCHAR
STARTCHAR uni01F0
ENCODING 496
SWIDTH 305 0
DWIDTH 7 0
BBX 11 25 -2 -6
BITMAP
70E0
39C0
1F80
1F00
0000
0000
0E00
0E00
0E00
0E00
0E00
0E00
0E00
0E00
0E00
0E00
0E00
0E00
0E00
0E00
0E00
1E00
FE00
FE00
F800
ENDCHAR
STARTCHAR Aringacute
ENCODING 506
SWIDTH 689 0
DWIDTH 17 0
BBX 17 23 0 0
BITMAP
007800
00E000
01C000
01C000
03E000
026000
026000
03E000
03E000
077000
077000
077000
0E3800
0E3800
1E3C00
1C1C00
1FFC00
3FFE00
3FFE00
780F00
780F00
700700
F00780
ENDCHAR
STARTCHAR aringacute
ENCODING 507
SWIDTH 604 0
DWIDTH 15 0
BBX 12 22 1 0
BITMAP
03C0
0780
0000
0700
0F80
0980
0980
0F80
0600
1FC0
7FE0
3FF0
30F0
0070
1FF0
7FF0
F870
F070
F0F0
FFF0
7F70
3E30
ENDCHAR
STARTCHAR AEacute
ENCODING 508
SWIDTH 952 0
DWIDTH 23 0
BBX 22 23 0 0
BITMAP
0003C0
000380
000700
000E00
000000
000000
01FFFC
01FFFC
01FFFC
03DE00
039E00
079E00
071E00
0F1FF8
0E1FF8
1E1FF8
1FFE00
3FFE00
3FFE00
381E00
781FFC
701FFC
F01FFC
ENDCHAR
STARTCHAR aeacute
ENCODING 509
SWIDTH 916 0
DWIDTH 22 0
BBX 20 19 1 0
BITMAP
001E00
003C00
007800
006000
000000
000000
1F8F80
7FFFE0
3FF8E0
20F0F0
00F070
1FFFF0
7FFFF0
F0F000
F0F000
F1F820
FFFFE0
7FBFE0
3E0FC0
ENDCHAR
STARTCHAR Oslashacute
ENCODING 510
SWIDTH 795 0
DWIDTH 19 0
BBX 17 24 1 -1
BITMAP
007800
00F000
00E000
01C000
000000
000400
07F600
1FFE00
3FFE00
7C1E00
783F00
787F00
706700
F0E780
F1C780
F18780
738700
7F0F00
7E0F00
7C1E00
3FFE00
3FFC00
37F000
100000
ENDCHAR
STARTCHAR oslashacute
ENCODING 511
SWIDTH 619 0
DWIDTH 15 0
BBX 13 19 1 0
BITMAP
01E0
03C0
0780
0700
0000
0000
0FA0
3FE0
7FF0
78F0
F1F8
F3F8
F778
F678
FC78
7CF0
7FF0
3FE0
7F80
ENDCHAR
STARTCHAR Scommaaccent
ENCODING 536
SWIDTH 550 0
DWIDTH 13 0
BBX 11 22 1 -5
BITMAP
1F80
3FE0
7FC0
F0C0
F000
F000
7800
7F00
3F80
0FC0
03E0
01E0
01E0
C1E0
FFC0
FFC0
7F00
0000
0E00
1E00
1C00
1800
ENDCHAR
STARTCHAR scommaaccent
ENCODING 537
SWIDTH 497 0
DWIDTH 12 0
BBX 10 18 1 -5
BITMAP
3F00
7FC0
FF80
F080
F000
7E00
3F80
0FC0
03C0
C3C0
FFC0
FF80
7F00
0000
1C00
1C00
1800
3800
ENDCHAR
STARTCHAR Tcommaaccent
ENCODING 538
SWIDTH 579 0
DWIDTH 14 0
BBX 12 22 1 -5
BITMAP
FFF0
FFF0
FFF0
0F00
0F00
0F00
0F00
0F00
0F00
0F00
0F00
0F00
0F00
0F00
0F00
0F00
0F00
0000
0F00
0E00
0E00
0C00
ENDCHAR
STARTCHAR tcommaaccent
ENCODING 539
SWIDTH 434 0
DWIDTH 10 0
BBX 9 21 0 -5
BITMAP
1C00
1C00
1C00
3F80
FF80
FF80
3C00
3C00
3C00
3C00
3C00
3C00
3C00
3F80
1F80
0F80
0000
0E00
0E00
0C00
0C00
ENDCHAR
STARTCHAR dotlessj
ENCODING 567
SWIDTH 305 0
DWIDTH 7 0
BBX 7 19 -2 -6
BITMAP
0E
0E
0E
0E
0E
0E
0E
0E
0E
0E
0E
0E
0E
0E
0E
1E
FE
FE
F8
ENDCHAR
STARTCHAR uni02BC
ENCODING 700
SWIDTH 216 0
DWIDTH 5 0
BBX 5 6 0 11
BITMAP
78
78
70
70
60
E0
ENDCHAR
STARTCHAR circumflex
ENCODING 710
SWIDTH 606 0
DWIDTH 15 0
BBX 9 4 3 15
BITMAP
3E00
7F00
F700
E380
ENDCHAR
STARTCHAR caron
ENCODING 711
SWIDTH 606 0
DWIDTH 15 0
BBX 9 4 3 15
BITMAP
C380
F780
7F00
3E00
ENDCHAR
STARTCHAR macron
ENCODING 713
SWIDTH 606 0
DWIDTH 15 0
BBX 8 2 3 15
BITMAP
FF
FF
ENDCHAR
STARTCHAR breve
ENCODING 728
SWIDTH 606 0
DWIDTH 15 0
BBX 9 4 3 15
BITMAP
C180
FF80
7F00
3E00
ENDCHAR
STARTCHAR dotaccent
ENCODING 729
SWIDTH 305 0
DWIDTH 7 0
BBX 4 3 2 15
BITMAP
E0
F0
E0
ENDCHAR
STARTCHAR ring
ENCODING 730
SWIDTH 577 0
DWIDTH 14 0
BBX 6 6 4 15
BITMAP
78
FC
CC
CC
FC
78
ENDCHAR
STARTCHAR ogonek
ENCODING 731
SWIDTH 206 0
DWIDTH 5 0
BBX 5 6 0 -6
BITMAP
30
60
E0
E0
F8
78
ENDCHAR
STARTCHAR tilde
ENCODING 732
SWIDTH 606 0
DWIDTH 15 0
BBX 9 4 3 15
BITMAP
7180
FD80
DF80
8700
ENDCHAR
STARTCHAR hungarumlaut
ENCODING 733
SWIDTH 587 0
DWIDTH 14 0
BBX 10 4 2 15
BITMAP
39C0
7BC0
7300
C600
ENDCHAR
STARTCHAR uni02F3
ENCODING 755
SWIDTH 333 0
DWIDTH 8 0
BBX 6 6 1 -7
BITMAP
78
FC
CC
CC
FC
78
ENDCHAR
STARTCHAR uni0300
ENCODING 768
SWIDTH 0 0
DWIDTH 0 0
BBX 6 4 -11 15
BITMAP
F0
78
38
1C
ENDCHAR
STARTCHAR uni0301
ENCODING 769
SWIDTH 0 0
DWIDTH 0 0
BBX 6 4 -9 15
BITMAP
3C
78
F0
E0
ENDCHAR
STARTCHAR uni0303
ENCODING 771
SWIDTH 0 0
DWIDTH 0 0
BBX 9 4 -12 15
BITMAP
7080
FD80
DF80
C700
ENDCHAR
STARTCHAR hook
ENCODING 777
SWIDTH 0 0
DWIDTH 0 0
BBX 5 6 -9 14
BITMAP
F0
F8
38
38
70
60
ENDCHAR
STARTCHAR uni030F
ENCODING 783
SWIDTH 0 0
DWIDTH 0 0
BBX 10 4 -13 15
BITMAP
EF00
F700
7380
19C0
ENDCHAR
STARTCHAR dotbelow
ENCODING 803
SWIDTH 0 0
DWIDTH 0 0
BBX 3 3 -9 -5
BITMAP
E0
E0
E0
ENDCHAR
STARTCHAR tonos
ENCODING 900
SWIDTH 577 0
DWIDTH 14 0
BBX 4 5 6 15
BITMAP
F0
E0
E0
C0
C0
ENDCHAR
STARTCHAR dieresistonos
ENCODING 901
SWIDTH 577 0
DWIDTH 14 0
BBX 10 5 2 15
BITMAP
0E00
0E00
ED80
EDC0
6180
ENDCHAR
STARTCHAR Alphatonos
ENCODING 902
SWIDTH 689 0
DWIDTH 17 0
BBX 18 18 -1 0
BITMAP
780000
71F000
71F000
63F800
E3B800
03B800
07BC00
071C00
0F1C00
0F1E00
0E0E00
1FFF00
1FFF00
1FFF00
3C0780
3C0780
380380
7803C0
ENDCHAR
STARTCHAR anoteleia
ENCODING 903
SWIDTH 285 0
DWIDTH 7 0
BBX 4 4 1 7
BITMAP
70
F0
F0
70
ENDCHAR
STARTCHAR Epsilontonos
ENCODING 904
SWIDTH 629 0
DWIDTH 15 0
BBX 14 18 -1 0
BITMAP
7000
77FC
E7FC
E7FC
C700
0700
0700
0700
07FC
07FC
07FC
0700
0700
0700
0700
07FC
07FC
07FC
ENDCHAR
STARTCHAR Etatonos
ENCODING 905
SWIDTH 834 0
DWIDTH 20 0
BBX 19 18 -1 0
BITMAP
700000
7701E0
E701E0
E701E0
C701E0
0701E0
0701E0
0701E0
07FFE0
07FFE0
07FFE0
0701E0
0701E0
0701E0
0701E0
0701E0
0701E0
0701E0
ENDCHAR
STARTCHAR Iotatonos
ENCODING 906
SWIDTH 512 0
DWIDTH 12 0
BBX 10 18 -1 0
BITMAP
7000
73C0
E3C0
E3C0
C3C0
03C0
03C0
03C0
03C0
03C0
03C0
03C0
03C0
03C0
03C0
03C0
03C0
03C0
ENDCHAR
STARTCHAR Omicrontonos
ENCODING 908
SWIDTH 835 0
DWIDTH 20 0
BBX 20 18 -1 0
BITMAP
780000
70FE00
73FF80
67FFC0
EF83C0
0F01E0
0F01E0
1E00E0
1E00F0
1E00F0
1E00F0
1E00E0
0F01E0
0F01E0
0F83C0
07FFC0
03FF80
00FE00
ENDCHAR
STARTCHAR Upsilontonos
ENCODING 910
SWIDTH 764 0
DWIDTH 18 0
BBX 19 18 -1 0
BITMAP
700000
E781E0
E781E0
E3C3C0
C3C380
01E780
01E700
00FF00
00FE00
007E00
007C00
003C00
003C00
003C00
003C00
003C00
003C00
003C00
ENDCHAR
STARTCHAR Omegatonos
ENCODING 911
SWIDTH 786 0
DWIDTH 19 0
BBX 20 18 -1 0
BITMAP
780000
70FE00
73FF80
67FFC0
EF83E0
0F01E0
1E00F0
1E00F0
1E00F0
1E00F0
0E00E0
0E00E0
0701E0
0781C0
03C780
1FC7F0
1FC7F0
1FC7F0
ENDCHAR
STARTCHAR iotadieresistonos
ENCODING 912
SWIDTH 407 0
DWIDTH 10 0
BBX 10 20 -1 0
BITMAP
0700
0E00
6DC0
EDC0
61C0
0000
0000
1C00
1C00
1C00
1C00
1C00
1C00
1C00
1C00
1C00
1E00
1FC0
0FC0
07C0
ENDCHAR
STARTCHAR Alpha
ENCODING 913
SWIDTH 689 0
DWIDTH 17 0
BBX 17 17 0 0
BITMAP
03E000
03E000
07F000
077000
077000
0F7800
0E3800
1E3800
1E3C00
1C1C00
3FFE00
3FFE00
3FFE00
780F00
780F00
700700
F00780
ENDCHAR
STARTCHAR Beta
ENCODING 914
SWIDTH 671 0
DWIDTH 16 0
BBX 13 17 2 0
BITMAP
FF80
FFE0
FFF0
F0F0
F070
F070
F0F0
FFE0
FFC0
FFF0
F0F0
F078
F078
F0F8
FFF0
FFE0
FFC0
ENDCHAR
STARTCHAR Gamma
ENCODING 915
SWIDTH 561 0
DWIDTH 13 0
BBX 11 17 2 0
BITMAP
FFE0
FFE0
FFE0
F000
F000
F000
F000
F000
F000
F000
F000
F000
F000
F000
F000
F000
F000
ENDCHAR
STARTCHAR uni0394
ENCODING 916
SWIDTH 658 0
DWIDTH 16 0
BBX 14 17 1 0
BITMAP
0780
0FC0
0FC0
0FC0
1FE0
1CE0
1CE0
3CF0
3870
3870
7878
7038
7038
F03C
FFFC
FFFC
FFFC
ENDCHAR
STARTCHAR Epsilon
ENCODING 917
SWIDTH 560 0
DWIDTH 13 0
BBX 10 17 2 0
BITMAP
FFC0
FFC0
FFC0
F000
F000
F000
F000
FF80
FF80
FF80
F000
F000
F000
F000
FFC0
FFC0
FFC0
ENDCHAR
STARTCHAR Zeta
ENCODING 918
SWIDTH 579 0
DWIDTH 14 0
BBX 12 17 1 0
BITMAP
FFF0
FFF0
FFF0
00E0
01E0
03C0
0780
0780
0F00
1E00
1C00
3C00
7800
F000
FFF0
FFF0
FFF0
ENDCHAR
STARTCHAR Eta
ENCODING 919
SWIDTH 765 0
DWIDTH 18 0
BBX 14 17 2 0
BITMAP
F03C
F03C
F03C
F03C
F03C
F03C
F03C
FFFC
FFFC
FFFC
F03C
F03C
F03C
F03C
F03C
F03C
F03C
ENDCHAR
STARTCHAR Theta
ENCODING 920
SWIDTH 795 0
DWIDTH 19 0
BBX 17 17 1 0
BITMAP
07F000
1FFC00
3FFE00
7C1E00
780F00
780F00
700700
F7E780
F7E780
F7E780
700700
780F00
780F00
3C1E00
3FFE00
1FFC00
07F000
ENDCHAR
STARTCHAR Iota
ENCODING 921
SWIDTH 331 0
DWIDTH 8 0
BBX 4 17 2 0
BITMAP
F0
F0
F0
F0
F0
F0
F0
F0
F0
F0
F0
F0
F0
F0
F0
F0
F0
ENDCHAR
STARTCHAR Kappa
ENCODING 922
SWIDTH 664 0
DWIDTH 16 0
BBX 14 17 2 0
BITMAP
F03C
F078
F0F0
F1E0
F3C0
F7C0
F780
FF00
FF80
FF80
F3C0
F3C0
F1E0
F0F0
F0F0
F078
F03C
ENDCHAR
STARTCHAR Lambda
ENCODING 923
SWIDTH 649 0
DWIDTH 16 0
BBX 16 17 0 0
BITMAP
03C0
07E0
07E0
07E0
0FF0
0E70
0E70
1E78
1E38
1C38
3C3C
3C1C
381C
781E
780E
700E
F00F
ENDCHAR
STARTCHAR Mu
ENCODING 924
SWIDTH 942 0
DWIDTH 23 0
BBX 19 17 2 0
BITMAP
F803E0
FC07E0
FC07E0
FC07E0
EE0EE0
EE0EE0
EE0EE0
E71DE0
E71DE0
E71DE0
E7B9E0
E3B9E0
E3B1E0
E3F1E0
E1F1E0
E1E1E0
E1E1E0
ENDCHAR
STARTCHAR Nu
ENCODING 925
SWIDTH 812 0
DWIDTH 20 0
BBX 16 17 2 0
BITMAP
F807
FC07
FC07
FE07
EF07
EF07
E787
E787
E3C7
E1E7
E1E7
E0F7
E0FF
E07F
E03F
E03F
E01F
ENDCHAR
STARTCHAR Xi
ENCODING 926
SWIDTH 570 0
DWIDTH 14 0
BBX 12 17 1 0
BITMAP
FFF0
FFF0
FFF0
0000
0000
0000
0000
7FE0
7FE0
7FE0
0000
0000
0000
0000
FFF0
FFF0
FFF0
ENDCHAR
STARTCHAR Omicron
ENCODING 927
SWIDTH 795 0
DWIDTH 19 0
BBX 17 17 1 0
BITMAP
07F000
1FFC00
3FFE00
7C1E00
780F00
780F00
700700
F00780
F00780
F00780
700700
780F00
780F00
3C1E00
3FFE00
1FFC00
07F000
ENDCHAR
STARTCHAR Pi
ENCODING 928
SWIDTH 745 0
DWIDTH 18 0
BBX 14 17 2 0
BITMAP
FFFC
FFFC
FFFC
F03C
F03C
F03C
F03C
F03C
F03C
F03C
F03C
F03C
F03C
F03C
F03C
F03C
F03C
ENDCHAR
STARTCHAR Rho
ENCODING 929
SWIDTH 627 0
DWIDTH 15 0
BBX 12 17 2 0
BITMAP
FF80
FFC0
FFE0
F1F0
F0F0
F0F0
F0F0
F1F0
FFE0
FFC0
FF00
F000
F000
F000
F000
F000
F000
ENDCHAR
STARTCHAR Sigma
ENCODING 931
SWIDTH 592 0
DWIDTH 14 0
BBX 12 17 1 0
BITMAP
FFF0
FFF0
FFF0
7800
3C00
1E00
0F00
0780
0780
0F00
1E00
3C00
7800
F000
FFF0
FFF0
FFF0
ENDCHAR
STARTCHAR Tau
ENCODING 932
SWIDTH 579 0
DWIDTH 14 0
BBX 12 17 1 0
BITMAP
FFF0
FFF0
FFF0
0F00
0F00
0F00
0F00
0F00
0F00
0F00
0F00
0F00
0F00
0F00
0F00
0F00
0F00
ENDCHAR
STARTCHAR Upsilon
ENCODING 933
SWIDTH 624 0
DWIDTH 15 0
BBX 15 17 0 0
BITMAP
F01E
783C
783C
3C78
3C78
1EF0
0EE0
0FE0
07C0
07C0
0380
0380
0380
0380
0380
0380
0380
ENDCHAR
STARTCHAR Phi
ENCODING 934
SWIDTH 859 0
DWIDTH 21 0
BBX 19 17 1 0
BITMAP
00E000
00E000
0FFE00
3FFF80
7FFFC0
78E3C0
F0E1E0
F0E1E0
F0E1E0
F0E1E0
78E3C0
7FFFC0
3FFF80
0FFE00
00E000
00E000
00E000
ENDCHAR
STARTCHAR Chi
ENCODING 935
SWIDTH 666 0
DWIDTH 16 0
BBX 16 17 0 0
BITMAP
781E
781E
3C3C
1C38
1E78
0FF0
07E0
07E0
03C0
07E0
0FF0
0EF0
1E78
3C3C
383C
781E
F00F
ENDCHAR
STARTCHAR Psi
ENCODING 936
SWIDTH 875 0
DWIDTH 21 0
BBX 19 17 1 0
BITMAP
F0E1E0
F0E1E0
F0E1E0
F0E1E0
F0E1E0
F0E1E0
F0E1E0
F0E1E0
78E3C0
7FFFC0
3FFF80
0FFE00
00E000
00E000
00E000
00E000
00E000
ENDCHAR
STARTCHAR uni03A9
ENCODING 937
SWIDTH 786 0
DWIDTH 19 0
BBX 17 17 1 0
BITMAP
07F000
1FFC00
3FFE00
7C1F00
780F00
F00780
F00780
F00780
F00780
700700
700700
780F00
381E00
1E3C00
FE3F80
FE3F80
FE3F80
ENDCHAR
STARTCHAR Iotadieresis
ENCODING 938
SWIDTH 331 0
DWIDTH 8 0
BBX 8 22 0 0
BITMAP
E7
E7
E7
00
00
3C
3C
3C
3C
3C
3C
3C
3C
3C
3C
3C
3C
3C
3C
3C
3C
3C
ENDCHAR
STARTCHAR Upsilondieresis
ENCODING 939
SWIDTH 624 0
DWIDTH 15 0
BBX 15 22 0 0
BITMAP
0E70
0E70
0C70
0000
0000
F01E
783C
783C
3C78
3C78
1EF0
0EE0
0FE0
07C0
07C0
0380
0380
0380
0380
0380
0380
0380
ENDCHAR
STARTCHAR alphatonos
ENCODING 940
SWIDTH 646 0
DWIDTH 16 0
BBX 14 20 1 0
BITMAP
0380
0380
0380
0700
0700
0000
0000
1F38
3FB8
7FF8
78F8
F078
F078
F078
F078
F078
78F8
7FFC
3FBC
1F1C
ENDCHAR
STARTCHAR epsilontonos
ENCODING 941
SWIDTH 555 0
DWIDTH 13 0
BBX 11 20 1 0
BITMAP
0380
0380
0300
0700
0600
0000
0000
1FC0
7FE0
7FE0
7040
7000
3F80
3F80
F000
E000
F020
FFE0
7FE0
3FC0
ENDCHAR
STARTCHAR etatonos
ENCODING 942
SWIDTH 657 0
DWIDTH 16 0
BBX 12 26 2 -6
BITMAP
0380
0380
0700
0700
0600
0000
0000
E7C0
EFE0
FFF0
F8F0
F0F0
F070
E070
E070
E070
E070
E070
E070
E070
0070
0070
0070
0070
0070
0070
ENDCHAR
STARTCHAR iotatonos
ENCODING 943
SWIDTH 407 0
DWIDTH 10 0
BBX 7 20 2 0
BITMAP
38
78
70
70
60
00
00
E0
E0
E0
E0
E0
E0
E0
E0
E0
F0
FE
7E
3E
ENDCHAR
STARTCHAR upsilondieresistonos
ENCODING 944
SWIDTH 645 0
DWIDTH 15 0
BBX 12 20 2 0
BITMAP
0700
0700
76C0
75E0
70C0
0000
0000
E1E0
E0E0
E0E0
E0F0
E0F0
E0F0
E0F0
E0F0
E0E0
F1E0
FFE0
7FC0
1F00
ENDCHAR
STARTCHAR alpha
ENCODING 945
SWIDTH 646 0
DWIDTH 16 0
BBX 14 13 1 0
BITMAP
1F38
3FB8
7FF8
78F8
F078
F078
F078
F078
F078
78F8
7FFC
3FBC
1F1C
ENDCHAR
STARTCHAR beta
ENCODING 946
SWIDTH 660 0
DWIDTH 16 0
BBX 13 24 2 -6
BITMAP
1F80
7FE0
7FF0
F0F0
F070
F070
E0F0
E7E0
E7C0
E7F0
E0F8
E078
E078
E078
F0F8
FFF0
FFF0
EFC0
E000
E000
E000
E000
E000
E000
ENDCHAR
STARTCHAR gamma
ENCODING 947
SWIDTH 567 0
DWIDTH 14 0
BBX 14 19 0 -6
BITMAP
F03C
7038
7878
7878
3870
3CF0
1CE0
1CE0
1FE0
0FC0
0FC0
0780
0780
0780
0700
0F00
0F00
0F00
0F00
ENDCHAR
STARTCHAR delta
ENCODING 948
SWIDTH 619 0
DWIDTH 15 0
BBX 13 18 1 0
BITMAP
0FE0
1FF8
3FF0
3C30
3C00
3E00
1F80
0FE0
3FF0
78F0
F078
F078
F078
F078
F8F8
7FF0
3FE0
1F80
ENDCHAR
STARTCHAR epsilon
ENCODING 949
SWIDTH 555 0
DWIDTH 13 0
BBX 11 13 1 0
BITMAP
1FC0
7FE0
7FE0
7040
7000
3F80
3F80
F000
E000
F020
FFE0
7FE0
3FC0
ENDCHAR
STARTCHAR zeta
ENCODING 950
SWIDTH 498 0
DWIDTH 12 0
BBX 11 22 1 -4
BITMAP
7FE0
7FE0
7FE0
03C0
0700
0E00
1C00
3C00
7800
7000
F000
F000
F000
F000
F800
7E00
3FC0
0FE0
01E0
01E0
01C0
03C0
ENDCHAR
STARTCHAR eta
ENCODING 951
SWIDTH 657 0
DWIDTH 16 0
BBX 12 19 2 -6
BITMAP
E7C0
EFE0
FFF0
F8F0
F0F0
F070
E070
E070
E070
E070
E070
E070
E070
0070
0070
0070
0070
0070
0070
ENDCHAR
STARTCHAR theta
ENCODING 952
SWIDTH 618 0
DWIDTH 15 0
BBX 13 18 1 0
BITMAP
0F80
3FE0
7FE0
78F0
7070
F078
F078
F078
FFF8
FFF8
FFF8
F078
F078
7070
78F0
3FF0
3FE0
0F80
ENDCHAR
STARTCHAR iota
ENCODING 953
SWIDTH 407 0
DWIDTH 10 0
BBX 7 13 2 0
BITMAP
E0
E0
E0
E0
E0
E0
E0
E0
E0
F0
FE
7E
3E
ENDCHAR
STARTCHAR kappa
ENCODING 954
SWIDTH 620 0
DWIDTH 15 0
BBX 13 13 2 0
BITMAP
E0F0
E0E0
E1C0
E3C0
E780
EF00
FF00
FF80
F780
E3C0
E1E0
E0F0
E078
ENDCHAR
STARTCHAR lambda
ENCODING 955
SWIDTH 615 0
DWIDTH 15 0
BBX 15 18 0 0
BITMAP
7C00
7E00
7F00
0F00
0780
0380
07C0
07C0
07C0
0FE0
0FE0
1EF0
1CF0
3C70
3878
787E
703E
F01E
ENDCHAR
STARTCHAR uni03BC
ENCODING 956
SWIDTH 660 0
DWIDTH 16 0
BBX 12 19 2 -6
BITMAP
E070
E070
E070
E070
E070
E070
E070
E0F0
F0F0
F1F0
FFF0
FF70
EE70
E000
E000
E000
E000
E000
E000
ENDCHAR
STARTCHAR nu
ENCODING 957
SWIDTH 595 0
DWIDTH 14 0
BBX 13 13 0 0
BITMAP
F078
7078
7878
7878
3878
3C70
3C70
1CF0
1EE0
0FE0
0FC0
0F80
0780
ENDCHAR
STARTCHAR xi
ENCODING 958
SWIDTH 498 0
DWIDTH 12 0
BBX 11 22 1 -4
BITMAP
7FC0
7FC0
1C00
7800
7000
7000
7800
3FC0
3FC0
7800
7000
F000
F000
F000
F800
7F00
3FC0
0FE0
01E0
01E0
01C0
03C0
ENDCHAR
STARTCHAR omicron
ENCODING 959
SWIDTH 619 0
DWIDTH 15 0
BBX 13 13 1 0
BITMAP
0F80
3FE0
7FF0
78F0
F078
F078
F078
F078
F078
78F0
7FF0
3FE0
0F80
ENDCHAR
STARTCHAR pi
ENCODING 960
SWIDTH 738 0
DWIDTH 18 0
BBX 17 13 0 0
BITMAP
3FFF80
FFFF80
FFFF80
1E1C00
1E1C00
1E1C00
1E1C00
1E1C00
1E1C00
1E1C00
1E1F80
1E1F80
1E0F80
ENDCHAR
STARTCHAR rho
ENCODING 961
SWIDTH 618 0
DWIDTH 15 0
BBX 13 19 1 -6
BITMAP
0F80
3FE0
7FF0
78F0
7078
F078
F078
F078
F078
F8F0
FFF0
FFE0
F7C0
F000
F000
F000
F000
F000
F000
ENDCHAR
STARTCHAR sigma1
ENCODING 962
SWIDTH 498 0
DWIDTH 12 0
BBX 11 17 1 -4
BITMAP
0FC0
3FE0
7FC0
7840
F000
F000
F000
F000
F000
F800
7F80
3FC0
07E0
01E0
01E0
01C0
03C0
ENDCHAR
STARTCHAR sigma
ENCODING 963
SWIDTH 652 0
DWIDTH 16 0
BBX 15 13 1 0
BITMAP
0FFE
3FFE
7FFE
78F0
F070
F078
F038
F038
F078
7878
7FF0
3FF0
0FC0
ENDCHAR
STARTCHAR tau
ENCODING 964
SWIDTH 538 0
DWIDTH 13 0
BBX 12 13 0 0
BITMAP
3FF0
FFF0
FFF0
0E00
0E00
0E00
0E00
0E00
0E00
0F00
0FE0
0FE0
03E0
ENDCHAR
STARTCHAR upsilon
ENCODING 965
SWIDTH 645 0
DWIDTH 15 0
BBX 12 13 2 0
BITMAP
E1E0
E0E0
E0E0
E0F0
E0F0
E0F0
E0F0
E0F0
E0E0
F1E0
FFE0
7FC0
1F00
ENDCHAR
STARTCHAR phi
ENCODING 966
SWIDTH 791 0
DWIDTH 19 0
BBX 17 19 1 -6
BITMAP
307C00
38FE00
79FF00
71C780
F1C780
F1C780
E1C780
F1C780
F1C780
79CF00
7FFE00
3FFC00
0FF000
01C000
01C000
01C000
01C000
01C000
01C000
ENDCHAR
STARTCHAR chi
ENCODING 967
SWIDTH 591 0
DWIDTH 14 0
BBX 14 19 0 -6
BITMAP
783C
7C38
7C78
1E70
0EF0
0EE0
0FC0
07C0
0780
0780
0FC0
0FC0
1DC0
3DE0
38E0
78F0
70FC
F07C
E03C
ENDCHAR
STARTCHAR psi
ENCODING 968
SWIDTH 836 0
DWIDTH 20 0
BBX 17 24 2 -6
BITMAP
03C000
03C000
03C000
03C000
03C000
E3C700
E3C700
E3C700
E3C780
E3C780
E3C780
E3C780
E3C780
E3C700
F3CF00
7FFF00
3FFC00
1FF800
03C000
03C000
03C000
03C000
03C000
03C000
ENDCHAR
STARTCHAR omega
ENCODING 969
SWIDTH 862 0
DWIDTH 21 0
BBX 19 13 1 0
BITMAP
7803C0
7001C0
7001C0
7001C0
F0E1E0
F0E1E0
F0E1E0
F0E1E0
F0E1E0
79F3C0
7FBFC0
3FBF80
1F1F00
ENDCHAR
STARTCHAR iotadieresis
ENCODING 970
SWIDTH 407 0
DWIDTH 10 0
BBX 9 18 0 0
BITMAP
E300
F780
6300
0000
0000
3800
3800
3800
3800
3800
3800
3800
3800
3800
3C00
3F80
1F80
0F80
ENDCHAR
STARTCHAR upsilondieresis
ENCODING 971
SWIDTH 645 0
DWIDTH 15 0
BBX 12 18 2 0
BITMAP
39C0
39C0
39C0
0000
0000
E1E0
E0E0
E0E0
E0F0
E0F0
E0F0
E0F0
E0F0
E0E0
F1E0
FFE0
7FC0
1F00
ENDCHAR
STARTCHAR omicrontonos
ENCODING 972
SWIDTH 619 0
DWIDTH 15 0
BBX 13 20 1 0
BITMAP
03C0
0380
0380
0300
0700
0000
0000
0F80
3FE0
7FF0
78F0
F078
F078
F078
F078
F078
78F0
7FF0
3FE0
0F80
ENDCHAR
STARTCHAR upsilontonos
ENCODING 973
SWIDTH 645 0
DWIDTH 15 0
BBX 12 20 2 0
BITMAP
0780
0700
0700
0600
0600
0000
0000
E1E0
E0E0
E0E0
E0F0
E0F0
E0F0
E0F0
E0F0
E0E0
F1E0
FFE0
7FC0
1F00
ENDCHAR
STARTCHAR omegatonos
ENCODING 974
SWIDTH 862 0
DWIDTH 21 0
BBX 19 20 1 0
BITMAP
007000
007000
007000
00E000
00E000
000000
000000
7803C0
7001C0
7001C0
7001C0
F0E1E0
F0E1E0
F0E1E0
F0E1E0
F0E1E0
79F3C0
7FBFC0
3FBF80
1F1F00
ENDCHAR
STARTCHAR uni03D1
ENCODING 977
SWIDTH 731 0
DWIDTH 18 0
BBX 16 18 1 0
BITMAP
07C0
0FF0
1FF8
1C78
1C3C
1E1C
1F1C
0FFF
07FF
79FF
F81E
F81E
381E
383C
3C7C
3FF8
1FF0
0FE0
ENDCHAR
STARTCHAR uni03D2
ENCODING 978
SWIDTH 630 0
DWIDTH 15 0
BBX 15 17 0 0
BITMAP
F01E
783E
783E
3C78
3C70
1EF0
1EE0
0FE0
07C0
07C0
0380
0380
0380
0380
0380
0380
0380
ENDCHAR
STARTCHAR uni03D6
ENCODING 982
SWIDTH 999 0
DWIDTH 24 0
BBX 22 13 1 0
BITMAP
7FFFFC
FFFFFC
FFFFFC
3C00F0
380070
380070
387870
387870
387870
3C78F0
1FFFE0
1FCFE0
078780
ENDCHAR
STARTCHAR uni0400
ENCODING 1024
SWIDTH 560 0
DWIDTH 13 0
BBX 10 23 2 0
BITMAP
7800
3C00
1C00
0E00
0000
0000
FFC0
FFC0
FFC0
F000
F000
F000
F000
FF80
FF80
FF80
F000
F000
F000
F000
FFC0
FFC0
FFC0
ENDCHAR
STARTCHAR afii10023
ENCODING 1025
SWIDTH 560 0
DWIDTH 13 0
BBX 10 22 2 0
BITMAP
7380
73C0
3180
0000
0000
FFC0
FFC0
FFC0
F000
F000
F000
F000
FF80
FF80
FF80
F000
F000
F000
F000
FFC0
FFC0
FFC0
ENDCHAR
STARTCHAR afii10051
ENCODING 1026
SWIDTH 805 0
DWIDTH 19 0
BBX 18 17 0 0
BITMAP
FFF800
FFF800
FFF800
070000
070000
070000
07FE00
07FF80
07FF80
0703C0
0703C0
0703C0
0703C0
0703C0
071F80
071F80
071E00
ENDCHAR
STARTCHAR afii10052
ENCODING 1027
SWIDTH 561 0
DWIDTH 13 0
BBX 11 23 2 0
BITMAP
03C0
0780
0F00
0E00
0000
0000
FFE0
FFE0
FFE0
F000
F000
F000
F000
F000
F000
F000
F000
F000
F000
F000
F000
F000
F000
ENDCHAR
STARTCHAR afii10053
ENCODING 1028
SWIDTH 676 0
DWIDTH 16 0
BBX 14 17 1 0
BITMAP
03F0
0FFC
3FFC
3C18
7800
7800
7000
FFE0
FFE0
FFE0
7000
7800
7800
7C0C
3FFC
1FFC
07F0
ENDCHAR
STARTCHAR afii10054
ENCODING 1029
SWIDTH 550 0
DWIDTH 13 0
BBX 11 17 1 0
BITMAP
1F80
3FE0
7FC0
F0C0
F000
F000
7800
7F00
3F80
0FC0
03E0
01E0
01E0
C1E0
FFC0
FFC0
7F00
ENDCHAR
STARTCHAR afii10055
ENCODING 1030
SWIDTH 331 0
DWIDTH 8 0
BBX 4 17 2 0
BITMAP
F0
F0
F0
F0
F0
F0
F0
F0
F0
F0
F0
F0
F0
F0
F0
F0
F0
ENDCHAR
STARTCHAR afii10056
ENCODING 1031
SWIDTH 331 0
DWIDTH 8 0
BBX 8 22 0 0
BITMAP
E7
E7
E7
00
00
3C
3C
3C
3C
3C
3C
3C
3C
3C
3C
3C
3C
3C
3C
3C
3C
3C
ENDCHAR
STARTCHAR afii10057
ENCODING 1032
SWIDTH 331 0
DWIDTH 8 0
BBX 8 22 -2 -5
BITMAP
0F
0F
0F
0F
0F
0F
0F
0F
0F
0F
0F
0F
0F
0F
0F
0F
0F
0F
1E
FE
FC
F8
ENDCHAR
STARTCHAR afii10058
ENCODING 1033
SWIDTH 999 0
DWIDTH 24 0
BBX 23 17 0 0
BITMAP
07FE00
07FE00
07FE00
0F1E00
0F1E00
0F1E00
0E1E00
0E1FF0
0E1FF8
1E1FFC
1E1E3E
1E1E1E
1C1E1E
3C1E3E
FC1FFC
F81FF8
F01FF0
ENDCHAR
STARTCHAR afii10059
ENCODING 1034
SWIDTH 1001 0
DWIDTH 24 0
BBX 21 17 2 0
BITMAP
F07800
F07800
F07800
F07800
F07800
F07800
F07800
FFFFC0
FFFFE0
FFFFF0
F07878
F07878
F07878
F078F8
F07FF0
F07FF0
F07FC0
ENDCHAR
STARTCHAR afii10060
ENCODING 1035
SWIDTH 805 0
DWIDTH 19 0
BBX 18 17 0 0
BITMAP
FFF800
FFF800
FFF800
070000
070000
070000
07FE00
07FF80
07FF80
0703C0
0703C0
0703C0
0703C0
0703C0
0703C0
0703C0
0703C0
ENDCHAR
STARTCHAR afii10061
ENCODING 1036
SWIDTH 671 0
DWIDTH 16 0
BBX 14 23 2 0
BITMAP
01E0
01C0
0380
0700
0000
0000
F078
F078
F0F0
F1E0
F1C0
F3C0
F780
FF00
FF00
F780
F780
F3C0
F1E0
F1E0
F0F0
F078
F03C
ENDCHAR
STARTCHAR uni040D
ENCODING 1037
SWIDTH 823 0
DWIDTH 20 0
BBX 16 23 2 0
BITMAP
1E00
0F00
0380
01C0
0000
0000
E01F
E03F
E03F
E07F
E077
E0F7
E1E7
E1E7
E3C7
E787
E787
EF07
EE07
FE07
FC07
F807
F807
ENDCHAR
STARTCHAR afii10062
ENCODING 1038
SWIDTH 652 0
DWIDTH 16 0
BBX 16 23 0 0
BITMAP
3C3C
1C38
1FF8
07E0
0000
0000
F00F
780E
781E
381C
3C3C
1C38
1E38
0E78
0F70
07F0
07E0
03E0
03C0
07C0
7F80
7F00
7E00
ENDCHAR
STARTCHAR afii10145
ENCODING 1039
SWIDTH 745 0
DWIDTH 18 0
BBX 14 22 2 -5
BITMAP
F03C
F03C
F03C
F03C
F03C
F03C
F03C
F03C
F03C
F03C
F03C
F03C
F03C
F03C
FFFC
FFFC
FFFC
0780
0780
0780
0780
0780
ENDCHAR
STARTCHAR afii10017
ENCODING 1040
SWIDTH 689 0
DWIDTH 17 0
BBX 17 17 0 0
BITMAP
03E000
03E000
07F000
077000
077000
0F7800
0E3800
1E3800
1E3C00
1C1C00
3FFE00
3FFE00
3FFE00
780F00
780F00
700700
F00780
ENDCHAR
STARTCHAR afii10018
ENCODING 1041
SWIDTH 638 0
DWIDTH 15 0
BBX 12 17 2 0
BITMAP
FFE0
FFE0
FFE0
F000
F000
F000
F000
FF80
FFC0
FFE0
F1F0
F0F0
F0F0
F1F0
FFE0
FFE0
FF80
ENDCHAR
STARTCHAR afii10019
ENCODING 1042
SWIDTH 671 0
DWIDTH 16 0
BBX 13 17 2 0
BITMAP
FF80
FFE0
FFF0
F0F0
F070
F070
F0F0
FFE0
FFC0
FFF0
F0F0
F078
F078
F0F8
FFF0
FFE0
FFC0
ENDCHAR
STARTCHAR afii10020
ENCODING 1043
SWIDTH 561 0
DWIDTH 13 0
BBX 11 17 2 0
BITMAP
FFE0
FFE0
FFE0
F000
F000
F000
F000
F000
F000
F000
F000
F000
F000
F000
F000
F000
F000
ENDCHAR
STARTCHAR afii10021
ENCODING 1044
SWIDTH 764 0
DWIDTH 18 0
BBX 18 22 0 -5
BITMAP
07FE00
07FE00
07FE00
070E00
070E00
0F0E00
0F0E00
0E0E00
0E0E00
1E0E00
1E0E00
1C0E00
3C0E00
380E00
FFFFC0
FFFFC0
FFFFC0
F003C0
F003C0
F003C0
F003C0
F003C0
ENDCHAR
STARTCHAR afii10022
ENCODING 1045
SWIDTH 560 0
DWIDTH 13 0
BBX 10 17 2 0
BITMAP
FFC0
FFC0
FFC0
F000
F000
F000
F000
FF80
FF80
FF80
F000
F000
F000
F000
FFC0
FFC0
FFC0
ENDCHAR
STARTCHAR afii10024
ENCODING 1046
SWIDTH 942 0
DWIDTH 23 0
BBX 23 17 0 0
BITMAP
70381C
78383C
3C3878
1E38F0
0E38E0
0F39E0
07BBC0
03BB80
03FF80
07BBC0
0739C0
0F39E0
1E38F0
3C3878
3C3878
78383C
F0381E
ENDCHAR
STARTCHAR afii10025
ENCODING 1047
SWIDTH 647 0
DWIDTH 16 0
BBX 14 17 1 0
BITMAP
1FC0
7FF0
FFF8
7078
0038
0038
0078
1FF0
1FC0
1FF0
0078
003C
003C
C07C
FFF8
FFF0
3FC0
ENDCHAR
STARTCHAR afii10026
ENCODING 1048
SWIDTH 823 0
DWIDTH 20 0
BBX 16 17 2 0
BITMAP
E01F
E03F
E03F
E07F
E077
E0F7
E1E7
E1E7
E3C7
E787
E787
EF07
EE07
FE07
FC07
F807
F807
ENDCHAR
STARTCHAR afii10027
ENCODING 1049
SWIDTH 823 0
DWIDTH 20 0
BBX 16 23 2 0
BITMAP
383C
1C38
1FF8
0FE0
0000
0000
E01F
E03F
E03F
E07F
E077
E0F7
E1E7
E1E7
E3C7
E787
E787
EF07
EE07
FE07
FC07
F807
F807
ENDCHAR
STARTCHAR afii10028
ENCODING 1050
SWIDTH 671 0
DWIDTH 16 0
BBX 14 17 2 0
BITMAP
F078
F078
F0F0
F1E0
F1C0
F3C0
F780
FF00
FF00
F780
F780
F3C0
F1E0
F1E0
F0F0
F078
F03C
ENDCHAR
STARTCHAR afii10029
ENCODING 1051
SWIDTH 745 0
DWIDTH 18 0
BBX 16 17 0 0
BITMAP
07FF
07FF
07FF
0F0F
0F0F
0F0F
0F0F
0E0F
0E0F
0E0F
1E0F
1E0F
1E0F
3C0F
FC0F
F80F
F00F
ENDCHAR
STARTCHAR afii10030
ENCODING 1052
SWIDTH 942 0
DWIDTH 23 0
BBX 19 17 2 0
BITMAP
F803E0
FC07E0
FC07E0
FC07E0
EE0EE0
EE0EE0
EE0EE0
E71DE0
E71DE0
E71DE0
E7B9E0
E3B9E0
E3B1E0
E3F1E0
E1F1E0
E1E1E0
E1E1E0
ENDCHAR
STARTCHAR afii10031
ENCODING 1053
SWIDTH 765 0
DWIDTH 18 0
BBX 14 17 2 0
BITMAP
F03C
F03C
F03C
F03C
F03C
F03C
F03C
FFFC
FFFC
FFFC
F03C
F03C
F03C
F03C
F03C
F03C
F03C
ENDCHAR
STARTCHAR afii10032
ENCODING 1054
SWIDTH 795 0
DWIDTH 19 0
BBX 17 17 1 0
BITMAP
07F000
1FFC00
3FFE00
7C1E00
780F00
780F00
700700
F00780
F00780
F00780
700700
780F00
780F00
3C1E00
3FFE00
1FFC00
07F000
ENDCHAR
STARTCHAR afii10033
ENCODING 1055
SWIDTH 745 0
DWIDTH 18 0
BBX 14 17 2 0
BITMAP
FFFC
FFFC
FFFC
F03C
F03C
F03C
F03C
F03C
F03C
F03C
F03C
F03C
F03C
F03C
F03C
F03C
F03C
ENDCHAR
STARTCHAR afii10034
ENCODING 1056
SWIDTH 627 0
DWIDTH 15 0
BBX 12 17 2 0
BITMAP
FF80
FFC0
FFE0
F1F0
F0F0
F0F0
F0F0
F1F0
FFE0
FFC0
FF00
F000
F000
F000
F000
F000
F000
ENDCHAR
STARTCHAR afii10035
ENCODING 1057
SWIDTH 637 0
DWIDTH 15 0
BBX 13 17 1 0
BITMAP
07E0
1FF8
3FF8
3C10
7800
7800
7000
F000
F000
F000
7000
7800
7800
7C18
3FF8
1FF8
07F0
ENDCHAR
STARTCHAR afii10036
ENCODING 1058
SWIDTH 579 0
DWIDTH 14 0
BBX 12 17 1 0
BITMAP
FFF0
FFF0
FFF0
0F00
0F00
0F00
0F00
0F00
0F00
0F00
0F00
0F00
0F00
0F00
0F00
0F00
0F00
ENDCHAR
STARTCHAR afii10037
ENCODING 1059
SWIDTH 652 0
DWIDTH 16 0
BBX 16 17 0 0
BITMAP
F00F
780E
781E
381C
3C3C
1C38
1E38
0E78
0F70
07F0
07E0
03E0
03C0
07C0
7F80
7F00
7E00
ENDCHAR
STARTCHAR afii10038
ENCODING 1060
SWIDTH 859 0
DWIDTH 21 0
BBX 19 17 1 0
BITMAP
00E000
00E000
0FFE00
3FFF80
7FFFC0
78E3C0
F0E1E0
F0E1E0
F0E1E0
F0E1E0
78E3C0
7FFFC0
3FFF80
0FFE00
00E000
00E000
00E000
ENDCHAR
STARTCHAR afii10039
ENCODING 1061
SWIDTH 666 0
DWIDTH 16 0
BBX 16 17 0 0
BITMAP
781E
781E
3C3C
1C38
1E78
0FF0
07E0
07E0
03C0
07E0
0FF0
0EF0
1E78
3C3C
383C
781E
F00F
ENDCHAR
STARTCHAR afii10040
ENCODING 1062
SWIDTH 780 0
DWIDTH 19 0
BBX 17 22 2 -5
BITMAP
F03C00
F03C00
F03C00
F03C00
F03C00
F03C00
F03C00
F03C00
F03C00
F03C00
F03C00
F03C00
F03C00
F03C00
FFFF80
FFFF80
FFFF80
000780
000780
000780
000780
000780
ENDCHAR
STARTCHAR afii10041
ENCODING 1063
SWIDTH 728 0
DWIDTH 17 0
BBX 14 17 1 0
BITMAP
F03C
F03C
F03C
F03C
F03C
F03C
F03C
F87C
7FFC
7FFC
3F3C
003C
003C
003C
003C
003C
003C
ENDCHAR
STARTCHAR afii10042
ENCODING 1064
SWIDTH 1078 0
DWIDTH 26 0
BBX 22 17 2 0
BITMAP
F0783C
F0783C
F0783C
F0783C
F0783C
F0783C
F0783C
F0783C
F0783C
F0783C
F0783C
F0783C
F0783C
F0783C
FFFFFC
FFFFFC
FFFFFC
ENDCHAR
STARTCHAR afii10043
ENCODING 1065
SWIDTH 1113 0
DWIDTH 27 0
BBX 24 22 2 -5
BITMAP
F0783C
F0783C
F0783C
F0783C
F0783C
F0783C
F0783C
F0783C
F0783C
F0783C
F0783C
F0783C
F0783C
F0783C
FFFFFF
FFFFFF
FFFFFF
000007
000007
000007
000007
000007
ENDCHAR
STARTCHAR afii10044
ENCODING 1066
SWIDTH 727 0
DWIDTH 17 0
BBX 16 17 0 0
BITMAP
FF00
FF00
FF00
0F00
0F00
0F00
0F00
0FF8
0FFC
0FFE
0F1F
0F0F
0F0F
0F1F
0FFE
0FFC
0FF8
ENDCHAR
STARTCHAR afii10045
ENCODING 1067
SWIDTH 905 0
DWIDTH 22 0
BBX 18 17 2 0
BITMAP
F003C0
F003C0
F003C0
F003C0
F003C0
F003C0
F003C0
FF83C0
FFC3C0
FFE3C0
F0F3C0
F0F3C0
F0F3C0
F1F3C0
FFE3C0
FFE3C0
FF83C0
ENDCHAR
STARTCHAR afii10046
ENCODING 1068
SWIDTH 638 0
DWIDTH 15 0
BBX 12 17 2 0
BITMAP
F000
F000
F000
F000
F000
F000
F000
FF80
FFC0
FFE0
F1F0
F0F0
F0F0
F1F0
FFE0
FFE0
FF80
ENDCHAR
STARTCHAR afii10047
ENCODING 1069
SWIDTH 663 0
DWIDTH 16 0
BBX 14 17 1 0
BITMAP
3F80
FFE0
FFF0
60F0
0078
0078
0038
3FFC
3FFC
3FFC
0038
0078
0078
C0F0
FFF0
FFE0
7F80
ENDCHAR
STARTCHAR afii10048
ENCODING 1070
SWIDTH 1069 0
DWIDTH 26 0
BBX 23 17 2 0
BITMAP
F00FC0
F03FF0
F07FF8
F0F87C
F0F03C
F1E03C
F1E01C
FFE01E
FFE01E
FFE01E
F1E01C
F1E03C
F0F03C
F0F87C
F07FF8
F03FF0
F00FC0
ENDCHAR
STARTCHAR afii10049
ENCODING 1071
SWIDTH 665 0
DWIDTH 16 0
BBX 14 17 0 0
BITMAP
07FC
1FFC
3FFC
3C3C
3C3C
383C
3C3C
3C3C
1FFC
0FFC
0FFC
0F3C
1E3C
3C3C
3C3C
783C
F03C
ENDCHAR
STARTCHAR afii10065
ENCODING 1072
SWIDTH 604 0
DWIDTH 15 0
BBX 12 13 1 0
BITMAP
1FC0
7FE0
3FF0
30F0
0070
1FF0
7FF0
F870
F070
F0F0
FFF0
7F70
3E30
ENDCHAR
STARTCHAR afii10066
ENCODING 1073
SWIDTH 622 0
DWIDTH 15 0
BBX 13 18 1 0
BITMAP
0078
07F8
1FF8
3F80
7800
7000
F3C0
FFF0
FFF0
F8F8
F078
F078
F078
7078
78F0
7FF0
3FE0
0F80
ENDCHAR
STARTCHAR afii10067
ENCODING 1074
SWIDTH 639 0
DWIDTH 15 0
BBX 12 13 2 0
BITMAP
FFC0
FFE0
E0F0
E0F0
E0E0
FFC0
FFE0
E0F0
E0F0
E0F0
E0F0
FFE0
FF80
ENDCHAR
STARTCHAR afii10068
ENCODING 1075
SWIDTH 478 0
DWIDTH 11 0
BBX 8 13 2 0
BITMAP
FF
FF
FF
E0
E0
E0
E0
E0
E0
E0
E0
E0
E0
ENDCHAR
STARTCHAR afii10069
ENCODING 1076
SWIDTH 664 0
DWIDTH 16 0
BBX 16 17 0 -4
BITMAP
0FFC
0FFC
0FFC
0E3C
0E3C
1E3C
1E3C
1C3C
3C3C
383C
FFFF
FFFF
FFFF
F00F
F00F
F00F
F00F
ENDCHAR
STARTCHAR afii10070
ENCODING 1077
SWIDTH 590 0
DWIDTH 14 0
BBX 12 13 1 0
BITMAP
1F80
3FE0
78E0
70F0
F070
FFF0
FFF0
F000
F000
7820
7FE0
3FE0
0FC0
ENDCHAR
STARTCHAR afii10072
ENCODING 1078
SWIDTH 873 0
DWIDTH 21 0
BBX 21 13 0 0
BITMAP
7870F0
3870E0
3C71E0
1E73C0
0E7780
077700
07FF00
0F7780
0E7380
1E71C0
3C71E0
7870F0
F07078
ENDCHAR
STARTCHAR afii10073
ENCODING 1079
SWIDTH 555 0
DWIDTH 13 0
BBX 11 13 1 0
BITMAP
3F80
FFC0
7FE0
41E0
01C0
1F80
1FC0
01E0
00E0
81E0
FFE0
FFC0
7F00
ENDCHAR
STARTCHAR afii10074
ENCODING 1080
SWIDTH 720 0
DWIDTH 17 0
BBX 13 13 2 0
BITMAP
E078
E0F8
E1F8
E1F8
E3F8
E7B8
E738
EF38
FE38
FC38
FC38
F838
F038
ENDCHAR
STARTCHAR afii10075
ENCODING 1081
SWIDTH 720 0
DWIDTH 17 0
BBX 13 19 2 0
BITMAP
7070
78F0
3FE0
1FC0
0000
0000
E078
E0F8
E1F8
E1F8
E3F8
E7B8
E738
EF38
FE38
FC38
FC38
F838
F038
ENDCHAR
STARTCHAR afii10076
ENCODING 1082
SWIDTH 619 0
DWIDTH 15 0
BBX 13 13 2 0
BITMAP
E0F0
E1E0
E1C0
E3C0
E780
EF00
FE00
EF00
E780
E3C0
E1E0
E0F0
E078
ENDCHAR
STARTCHAR afii10077
ENCODING 1083
SWIDTH 645 0
DWIDTH 15 0
BBX 13 13 0 0
BITMAP
1FF8
1FF8
1FF8
1E38
1C38
1C38
1C38
1C38
3C38
3C38
F838
F838
F038
ENDCHAR
STARTCHAR afii10078
ENCODING 1084
SWIDTH 844 0
DWIDTH 20 0
BBX 16 13 2 0
BITMAP
F81F
F81F
FC3F
FC3F
EE77
EE77
EE77
E7E7
E7E7
E7E7
E3C7
E3C7
E187
ENDCHAR
STARTCHAR afii10079
ENCODING 1085
SWIDTH 662 0
DWIDTH 16 0
BBX 12 13 2 0
BITMAP
E070
E070
E070
E070
E070
FFF0
FFF0
FFF0
E070
E070
E070
E070
E070
ENDCHAR
STARTCHAR afii10080
ENCODING 1086
SWIDTH 619 0
DWIDTH 15 0
BBX 13 13 1 0
BITMAP
0F80
3FE0
7FF0
78F0
F078
F078
F078
F078
F078
78F0
7FF0
3FE0
0F80
ENDCHAR
STARTCHAR afii10081
ENCODING 1087
SWIDTH 651 0
DWIDTH 16 0
BBX 12 13 2 0
BITMAP
FFF0
FFF0
FFF0
E070
E070
E070
E070
E070
E070
E070
E070
E070
E070
ENDCHAR
STARTCHAR afii10082
ENCODING 1088
SWIDTH 632 0
DWIDTH 15 0
BBX 12 19 2 -6
BITMAP
E780
EFC0
FFE0
F1F0
F0F0
E0F0
E0F0
E0F0
F0F0
F1E0
FFE0
EFC0
E780
E000
E000
E000
E000
E000
E000
ENDCHAR
STARTCHAR afii10083
ENCODING 1089
SWIDTH 514 0
DWIDTH 12 0
BBX 10 13 1 0
BITMAP
1F80
3FC0
7FC0
7800
F000
F000
F000
F000
F000
F840
7FC0
3FC0
1F80
ENDCHAR
STARTCHAR afii10084
ENCODING 1090
SWIDTH 553 0
DWIDTH 13 0
BBX 11 13 1 0
BITMAP
FFE0
FFE0
FFE0
0E00
0E00
0E00
0E00
0E00
0E00
0E00
0E00
0E00
0E00
ENDCHAR
STARTCHAR afii10085
ENCODING 1091
SWIDTH 568 0
DWIDTH 14 0
BBX 14 19 0 -6
BITMAP
F03C
7038
7878
7878
3C70
3CF0
1CF0
1EE0
0FE0
0FC0
0FC0
07C0
0780
0780
0700
0F00
7E00
7E00
7800
ENDCHAR
STARTCHAR afii10086
ENCODING 1092
SWIDTH 813 0
DWIDTH 20 0
BBX 18 24 1 -6
BITMAP
01E000
01E000
01E000
01E000
01E000
07F800
3FFE00
7FFF80
7DEF80
F1E3C0
F1E3C0
F1E3C0
F1E3C0
F1E3C0
7DEF80
3FFF80
1FFE00
07F800
01E000
01E000
01E000
01E000
01E000
01E000
ENDCHAR
STARTCHAR afii10087
ENCODING 1093
SWIDTH 578 0
DWIDTH 14 0
BBX 14 13 0 0
BITMAP
7878
7878
3CF0
1FE0
1FE0
0FC0
0F80
0FC0
1FE0
3CF0
3CF0
7878
F87C
ENDCHAR
STARTCHAR afii10088
ENCODING 1094
SWIDTH 687 0
DWIDTH 17 0
BBX 15 17 2 -4
BITMAP
E078
E078
E078
E078
E078
E078
E078
E078
E078
E078
FFFE
FFFE
FFFE
001E
001E
001E
001E
ENDCHAR
STARTCHAR afii10089
ENCODING 1095
SWIDTH 655 0
DWIDTH 16 0
BBX 13 13 1 0
BITMAP
F038
F038
F038
F038
F038
F078
7FF8
7FF8
3F38
0038
0038
0038
0038
ENDCHAR
STARTCHAR afii10090
ENCODING 1096
SWIDTH 969 0
DWIDTH 23 0
BBX 19 13 2 0
BITMAP
E0E0E0
E0E0E0
E0E0E0
E0E0E0
E0E0E0
E0E0E0
E0E0E0
E0E0E0
E0E0E0
E0E0E0
FFFFE0
FFFFE0
FFFFE0
ENDCHAR
STARTCHAR afii10091
ENCODING 1097
SWIDTH 984 0
DWIDTH 24 0
BBX 21 17 2 -4
BITMAP
E0E0E0
E0E0E0
E0E0E0
E0E0E0
E0E0E0
E0E0E0
E0E0E0
E0E0E0
E0E0E0
E0E0E0
FFFFF8
FFFFF8
FFFFF8
000038
000038
000038
000038
ENDCHAR
STARTCHAR afii10092
ENCODING 1098
SWIDTH 709 0
DWIDTH 17 0
BBX 16 13 0 0
BITMAP
FF00
FF00
FF00
0F00
0F00
0FFC
0FFE
0F0F
0F07
0F0F
0F0F
0FFE
0FFC
ENDCHAR
STARTCHAR afii10093
ENCODING 1099
SWIDTH 850 0
DWIDTH 20 0
BBX 16 13 2 0
BITMAP
E007
E007
E007
E007
E007
FF07
FFC7
E1C7
E1E7
E1E7
E1C7
FFC7
FF07
ENDCHAR
STARTCHAR afii10094
ENCODING 1100
SWIDTH 613 0
DWIDTH 15 0
BBX 12 13 2 0
BITMAP
E000
E000
E000
E000
E000
FFC0
FFE0
E0F0
E070
E0F0
E0F0
FFE0
FFC0
ENDCHAR
STARTCHAR afii10095
ENCODING 1101
SWIDTH 512 0
DWIDTH 12 0
BBX 10 13 1 0
BITMAP
7E00
FF00
FF80
43C0
03C0
7FC0
7FC0
03C0
03C0
8780
FF80
FF00
7E00
ENDCHAR
STARTCHAR afii10096
ENCODING 1102
SWIDTH 876 0
DWIDTH 21 0
BBX 18 13 2 0
BITMAP
E07E00
E0FF00
E1FF80
E3C780
E3C3C0
FF83C0
FF83C0
FF83C0
E3C3C0
E3C780
E1FF80
E1FF00
E07E00
ENDCHAR
STARTCHAR afii10097
ENCODING 1103
SWIDTH 592 0
DWIDTH 14 0
BBX 12 13 0 0
BITMAP
1FF0
3FF0
7870
7070
7870
7870
3FF0
1FF0
1C70
3C70
3870
7870
F070
ENDCHAR
STARTCHAR uni0450
ENCODING 1104
SWIDTH 590 0
DWIDTH 14 0
BBX 12 19 1 0
BITMAP
3C00
1E00
0700
0380
0000
0000
1F80
3FE0
78E0
70F0
F070
FFF0
FFF0
F000
F000
7820
7FE0
3FE0
0FC0
ENDCHAR
STARTCHAR afii10071
ENCODING 1105
SWIDTH 590 0
DWIDTH 14 0
BBX 12 18 1 0
BITMAP
18C0
3DE0
18C0
0000
0000
1F80
3FE0
78E0
70F0
F070
FFF0
FFF0
F000
F000
7820
7FE0
3FE0
0FC0
ENDCHAR
STARTCHAR afii10099
ENCODING 1106
SWIDTH 657 0
DWIDTH 16 0
BBX 14 24 0 -6
BITMAP
3800
3800
FF80
FF80
3800
3800
39F0
3BF8
3FFC
3E3C
3C3C
3C1C
381C
381C
381C
381C
381C
381C
001C
001C
003C
00FC
00F8
00F0
ENDCHAR
STARTCHAR afii10100
ENCODING 1107
SWIDTH 478 0
DWIDTH 11 0
BBX 9 19 2 0
BITMAP
0780
0F00
1E00
3800
0000
0000
FF00
FF00
FF00
E000
E000
E000
E000
E000
E000
E000
E000
E000
E000
ENDCHAR
STARTCHAR afii10101
ENCODING 1108
SWIDTH 523 0
DWIDTH 13 0
BBX 11 13 1 0
BITMAP
0FC0
3FE0
7FE0
7840
F000
FF80
FF80
F000
F000
7820
7FE0
3FE0
0FC0
ENDCHAR
STARTCHAR afii10102
ENCODING 1109
SWIDTH 497 0
DWIDTH 12 0
BBX 10 13 1 0
BITMAP
3F00
7FC0
FF80
F080
F000
7E00
3F80
0FC0
03C0
C3C0
FFC0
FF80
7F00
ENDCHAR
STARTCHAR afii10103
ENCODING 1110
SWIDTH 305 0
DWIDTH 7 0
BBX 4 18 2 0
BITMAP
E0
F0
F0
E0
00
E0
E0
E0
E0
E0
E0
E0
E0
E0
E0
E0
E0
E0
ENDCHAR
STARTCHAR afii10104
ENCODING 1111
SWIDTH 305 0
DWIDTH 7 0
BBX 8 18 0 0
BITMAP
E7
E7
E7
00
00
38
38
38
38
38
38
38
38
38
38
38
38
38
ENDCHAR
STARTCHAR afii10105
ENCODING 1112
SWIDTH 305 0
DWIDTH 7 0
BBX 8 24 -2 -6
BITMAP
0E
0F
0F
0E
00
0E
0E
0E
0E
0E
0E
0E
0E
0E
0E
0E
0E
0E
0E
0E
1E
FE
FE
F8
ENDCHAR
STARTCHAR afii10106
ENCODING 1113
SWIDTH 888 0
DWIDTH 21 0
BBX 20 13 0 0
BITMAP
0FF800
1FF800
1FF800
1E7800
1E7800
1C7FC0
1C7FE0
1C78F0
3C7870
3C78F0
F878F0
F87FE0
F07FC0
ENDCHAR
STARTCHAR afii10107
ENCODING 1114
SWIDTH 888 0
DWIDTH 21 0
BBX 18 13 2 0
BITMAP
E1E000
E1E000
E1E000
E1E000
E1E000
FFFF00
FFFF80
FFE3C0
E1E1C0
E1E3C0
E1E3C0
E1FF80
E1FF00
ENDCHAR
STARTCHAR afii10108
ENCODING 1115
SWIDTH 657 0
DWIDTH 16 0
BBX 14 18 0 0
BITMAP
3800
3800
FF80
FF80
3800
3800
39F0
3BF8
3FFC
3E3C
3C3C
3C1C
381C
381C
381C
381C
381C
381C
ENDCHAR
STARTCHAR afii10109
ENCODING 1116
SWIDTH 619 0
DWIDTH 15 0
BBX 13 19 2 0
BITMAP
03E0
0380
0700
0E00
0000
0000
E0F0
E1E0
E1C0
E3C0
E780
EF00
FE00
EF00
E780
E3C0
E1E0
E0F0
E078
ENDCHAR
STARTCHAR uni045D
ENCODING 1117
SWIDTH 720 0
DWIDTH 17 0
BBX 13 19 2 0
BITMAP
1E00
0E00
0700
0380
0000
0000
E078
E0F8
E1F8
E1F8
E3F8
E7B8
E738
EF38
FE38
FC38
FC38
F838
F038
ENDCHAR
STARTCHAR afii10110
ENCODING 1118
SWIDTH 568 0
DWIDTH 14 0
BBX 14 25 0 -6
BITMAP
7078
7870
3FF0
1FC0
0000
0000
F03C
7038
7878
7878
3C70
3CF0
1CF0
1EE0
0FE0
0FC0
0FC0
07C0
0780
0780
0700
0F00
7E00
7E00
7800
ENDCHAR
STARTCHAR afii10193
ENCODING 1119
SWIDTH 671 0
DWIDTH 16 0
BBX 12 17 2 -4
BITMAP
E070
E070
E070
E070
E070
E070
E070
E070
E070
E070
FFF0
FFF0
FFF0
0F00
0F00
0F00
0F00
ENDCHAR
STARTCHAR uni0460
ENCODING 1120
SWIDTH 1087 0
DWIDTH 26 0
BBX 24 17 1 0
BITMAP
0F81F0
1FE7F8
3FC3FC
7C423E
78001E
70000E
F0000F
F0000F
F0000F
F03C0F
703C0E
703C1E
783C1E
3C3C3C
3FFFFC
1FFFF8
07C3E0
ENDCHAR
STARTCHAR uni0461
ENCODING 1121
SWIDTH 884 0
DWIDTH 21 0
BBX 20 13 0 0
BITMAP
F1E0F0
70F0F0
78F0F0
7870F0
3878F0
38F8F0
3CF8E0
1DFDE0
1DFDE0
1DDFC0
0F9F80
0F9F80
0F8F00
ENDCHAR
STARTCHAR uni0462
ENCODING 1122
SWIDTH 672 0
DWIDTH 16 0
BBX 15 18 0 0
BITMAP
1E00
1E00
FFE0
FFE0
FFE0
1E00
1E00
1E00
1FF0
1FF8
1FFC
1E3E
1E1E
1E1E
1E3E
1FFC
1FF8
1FF0
ENDCHAR
STARTCHAR uni0463
ENCODING 1123
SWIDTH 662 0
DWIDTH 16 0
BBX 15 15 0 0
BITMAP
1E00
1E00
FFE0
FFE0
FFE0
1E00
1E00
1FF8
1FFC
1E1E
1E0E
1E1E
1E1E
1FFC
1FF8
ENDCHAR
STARTCHAR uni0464
ENCODING 1124
SWIDTH 950 0
DWIDTH 23 0
BBX 20 17 2 0
BITMAP
F00FC0
F03FF0
F0FFF0
F0F060
F1E000
F1C000
F3C000
FFFF80
FFFF80
FFFF80
F3C000
F3C000
F1E000
F1F030
F0FFF0
F07FF0
F01FC0
ENDCHAR
STARTCHAR uni0465
ENCODING 1125
SWIDTH 799 0
DWIDTH 19 0
BBX 16 13 2 0
BITMAP
E07E
E1FF
E1FF
E3C2
E3C0
FFFC
FFFC
FFFC
E3C0
E3C1
E1FF
E0FF
E07E
ENDCHAR
STARTCHAR uni0466
ENCODING 1126
SWIDTH 729 0
DWIDTH 18 0
BBX 18 17 0 0
BITMAP
03E000
03F000
03F000
077000
073800
0E3800
0E1C00
0FFC00
1FFC00
1FFE00
3DCE00
39CF00
39C700
79C780
71C380
71C380
F1C3C0
ENDCHAR
STARTCHAR uni0467
ENCODING 1127
SWIDTH 640 0
DWIDTH 15 0
BBX 15 13 0 0
BITMAP
07C0
07C0
0EE0
0EE0
1EF0
1C70
1FF0
3FF8
3BB8
7BBC
739C
739C
F39E
ENDCHAR
STARTCHAR uni0468
ENCODING 1128
SWIDTH 1004 0
DWIDTH 24 0
BBX 22 17 2 0
BITMAP
F01F00
F01F00
F03B80
F03B80
F03B80
F071C0
F071C0
FFFFC0
FFFFE0
FFFFE0
F1EEF0
F1CE70
F1CE70
F3CE78
F38E38
F38E38
F78E3C
ENDCHAR
STARTCHAR uni0469
ENCODING 1129
SWIDTH 901 0
DWIDTH 22 0
BBX 20 13 2 0
BITMAP
E03C00
E07E00
E07E00
E0E700
E0E700
FFFF80
FFFF80
FFFFC0
E3BDC0
E3BDC0
E73CE0
E73CE0
EF3CF0
ENDCHAR
STARTCHAR uni046A
ENCODING 1130
SWIDTH 804 0
DWIDTH 19 0
BBX 17 17 1 0
BITMAP
7FFF00
7FFF00
3FFE00
1C1E00
1E3C00
0F7800
077000
0FF800
1FFC00
3FFE00
3DDE00
79CF00
79CF00
71C700
F1C780
F1C780
E1C380
ENDCHAR
STARTCHAR uni046B
ENCODING 1131
SWIDTH 623 0
DWIDTH 15 0
BBX 15 13 0 0
BITMAP
7FFC
3FF8
3C78
1EF0
0FE0
0FE0
1FF0
3BB8
3BB8
739C
739C
739C
E38E
ENDCHAR
STARTCHAR uni046C
ENCODING 1132
SWIDTH 1073 0
DWIDTH 26 0
BBX 23 17 2 0
BITMAP
F1FFFC
F1FFFC
F0FFF8
F0F078
F078F0
F03DE0
F01DC0
FFFFE0
FFFFF0
FFFFF8
F0F778
F1E73C
F1E73C
F1C71C
F3C71E
F3C71E
F3870E
ENDCHAR
STARTCHAR uni046D
ENCODING 1133
SWIDTH 879 0
DWIDTH 21 0
BBX 19 13 2 0
BITMAP
E7FFC0
E3FF80
E3C780
E1C700
E0EE00
FFFE00
FFFF00
FFBB80
E3BB80
E739C0
E739C0
E739C0
EE38E0
ENDCHAR
STARTCHAR uni046E
ENCODING 1134
SWIDTH 631 0
DWIDTH 15 0
BBX 14 26 0 -5
BITMAP
1838
1C78
0EC0
07C0
1FE0
7FF0
7FF8
3078
0038
0038
0078
1FF0
1FC0
1FF8
007C
003C
003C
007C
1FF8
7FF0
7FC0
F000
F000
7FF0
7FF0
3FF0
ENDCHAR
STARTCHAR uni046F
ENCODING 1135
SWIDTH 555 0
DWIDTH 13 0
BBX 12 21 0 -5
BITMAP
3870
19F0
1D80
3FC0
7FE0
20F0
0070
00E0
0FC0
0FE0
00F0
0070
00F0
1FF0
7FE0
7F80
F000
F000
FFC0
7FC0
3FC0
ENDCHAR
STARTCHAR uni0470
ENCODING 1136
SWIDTH 875 0
DWIDTH 21 0
BBX 19 17 1 0
BITMAP
F0E1E0
F0E1E0
F0E1E0
F0E1E0
F0E1E0
F0E1E0
F0E1E0
F0E1E0
78E3C0
7FFFC0
3FFF80
0FFE00
00E000
00E000
00E000
00E000
00E000
ENDCHAR
STARTCHAR uni0471
ENCODING 1137
SWIDTH 836 0
DWIDTH 20 0
BBX 17 24 2 -6
BITMAP
03C000
03C000
03C000
03C000
03C000
E3C700
E3C700
E3C700
E3C780
E3C780
E3C780
E3C780
E3C780
E3C700
F3CF00
7FFF00
3FFC00
1FF800
03C000
03C000
03C000
03C000
03C000
03C000
ENDCHAR
STARTCHAR uni0472
ENCODING 1138
SWIDTH 795 0
DWIDTH 19 0
BBX 17 17 1 0
BITMAP
07F000
1FFC00
3FFE00
7C1E00
780F00
780F00
700700
FFFF80
FFFF80
FFFF80
700700
780F00
780F00
3C1E00
3FFE00
1FFC00
07F000
ENDCHAR
STARTCHAR uni0473
ENCODING 1139
SWIDTH 619 0
DWIDTH 15 0
BBX 13 13 1 0
BITMAP
0F80
3FE0
7FF0
78F0
F078
FFF8
FFF8
F078
F078
78F0
7FF0
3FE0
0F80
ENDCHAR
STARTCHAR uni0474
ENCODING 1140
SWIDTH 716 0
DWIDTH 17 0
BBX 17 17 0 0
BITMAP
F00780
F00F80
701F80
781E00
383C00
383C00
3C3800
1C3800
1C7800
1E7000
0E7000
0EF000
0EE000
07E000
07E000
07C000
03C000
ENDCHAR
STARTCHAR uni0475
ENCODING 1141
SWIDTH 604 0
DWIDTH 15 0
BBX 15 13 0 0
BITMAP
F01E
703E
783E
7878
3878
3C70
1CF0
1CE0
1FE0
0FC0
0FC0
07C0
0780
ENDCHAR
STARTCHAR uni0476
ENCODING 1142
SWIDTH 716 0
DWIDTH 17 0
BBX 17 23 0 0
BITMAP
3DC000
1CE000
0E6000
063000
000000
000000
F00780
F00F80
701F80
781E00
383C00
383C00
3C3800
1C3800
1C7800
1E7000
0E7000
0EF000
0EE000
07E000
07E000
07C000
03C000
ENDCHAR
STARTCHAR uni0477
ENCODING 1143
SWIDTH 604 0
DWIDTH 15 0
BBX 15 19 0 0
BITMAP
7B80
39C0
1CC0
0C60
0000
0000
F01E
703E
783E
7878
3878
3C70
1CF0
1CE0
1FE0
0FC0
0FC0
07C0
0780
ENDCHAR
STARTCHAR uni0478
ENCODING 1144
SWIDTH 1318 0
DWIDTH 32 0
BBX 31 23 1 -6
BITMAP
07E00000
1FF80000
3FFC0000
7C3E0000
781E781E
780E381C
F00F3C3C
F00F3C3C
F00F1E38
F00F1E78
700F0E78
780E0F70
781E07F0
7C3E07E0
3FFC07E0
1FF803E0
07E003C0
000003C0
00000380
00000780
00003F00
00003F00
00003C00
ENDCHAR
STARTCHAR uni0479
ENCODING 1145
SWIDTH 1145 0
DWIDTH 27 0
BBX 26 19 1 -6
BITMAP
1F8F03C0
3FC70380
7FE78780
79E78780
F0F3C700
F0F3CF00
F0F1CF00
F0F1EE00
F0F0FE00
79E0FC00
7FE0FC00
3FC07C00
1F807800
00007800
00007000
0000F000
0007E000
0007E000
00078000
ENDCHAR
STARTCHAR uni047A
ENCODING 1146
SWIDTH 835 0
DWIDTH 20 0
BBX 18 19 1 -1
BITMAP
00E000
07F800
1FFE00
3FFF00
3CCF00
780780
780780
700380
F003C0
F003C0
F003C0
700380
780780
780780
3CCF00
3FFF00
1FFE00
07F800
01E000
ENDCHAR
STARTCHAR uni047B
ENCODING 1147
SWIDTH 679 0
DWIDTH 16 0
BBX 14 15 1 -1
BITMAP
0300
0FC0
3FF0
7FF8
7B78
F03C
F03C
F03C
F03C
F03C
7B78
7FF8
3FF0
0FC0
0300
ENDCHAR
STARTCHAR uni047C
ENCODING 1148
SWIDTH 1087 0
DWIDTH 26 0
BBX 24 26 1 0
BITMAP
00F800
01FE00
01DF80
018380
001800
003C00
001C00
001800
003000
0F81F0
1FC3F8
3FC3FC
7C423E
78001E
70000E
F0000F
F0000F
F0000F
F0000F
70000E
70000E
78181E
3C3C3C
3FFFFC
1FFFF8
07C3E0
ENDCHAR
STARTCHAR uni047D
ENCODING 1149
SWIDTH 890 0
DWIDTH 21 0
BBX 19 22 1 0
BITMAP
03C000
07F800
07FE00
061E00
00E000
00E000
006000
006000
00C000
1F1F00
3F1F80
7F1FC0
F803E0
F001E0
F001E0
F001E0
F001E0
F041E0
78E3C0
7FFFC0
3FFF80
1F1F00
ENDCHAR
STARTCHAR uni047E
ENCODING 1150
SWIDTH 1087 0
DWIDTH 26 0
BBX 24 21 1 0
BITMAP
01FF80
01FF80
009900
000000
0F81F0
1FC3F8
3FC3FC
7C423E
78001E
70000E
F0000F
F0000F
F0000F
F03C0F
703C0E
703C1E
783C1E
3C3C3C
3FFFFC
1FFFF8
07C3E0
ENDCHAR
STARTCHAR uni047F
ENCODING 1151
SWIDTH 884 0
DWIDTH 21 0
BBX 20 17 0 0
BITMAP
07FE00
03FE00
022400
000000
F1E0F0
70E0F0
78F0F0
7870F0
3870F0
38F8E0
3CF8E0
1CF9E0
1DFDC0
0FDFC0
0FDF80
0F9F00
078F00
ENDCHAR
STARTCHAR uni0480
ENCODING 1152
SWIDTH 676 0
DWIDTH 16 0
BBX 14 23 1 -6
BITMAP
03F0
0FFC
3FFC
3E18
7800
7800
7000
F000
F000
F000
7000
7800
7800
3E00
3FF0
1FF0
07F0
0070
0070
0070
0070
0070
0070
ENDCHAR
STARTCHAR uni0481
ENCODING 1153
SWIDTH 523 0
DWIDTH 13 0
BBX 11 19 1 -6
BITMAP
0FC0
3FE0
7FE0
7840
F000
F000
F000
F000
F000
7800
7FC0
3FC0
0FC0
03C0
03C0
03C0
03C0
03C0
03C0
ENDCHAR
STARTCHAR uni0482
ENCODING 1154
SWIDTH 608 0
DWIDTH 15 0
BBX 13 15 1 0
BITMAP
0020
0060
0CE0
0FC0
0380
01E0
0378
4710
E600
3C00
0E00
1F80
3980
3000
2000
ENDCHAR
STARTCHAR uni0483
ENCODING 1155
SWIDTH 557 0
DWIDTH 13 0
BBX 9 4 2 14
BITMAP
0180
7F80
FF80
C000
ENDCHAR
STARTCHAR uni0484
ENCODING 1156
SWIDTH 577 0
DWIDTH 14 0
BBX 9 4 3 15
BITMAP
0F00
7F80
FB80
E180
ENDCHAR
STARTCHAR uni0485
ENCODING 1157
SWIDTH 577 0
DWIDTH 14 0
BBX 3 5 6 14
BITMAP
E0
E0
C0
C0
60
ENDCHAR
STARTCHAR uni0486
ENCODING 1158
SWIDTH 577 0
DWIDTH 14 0
BBX 4 5 5 14
BITMAP
70
F0
30
70
C0
ENDCHAR
STARTCHAR uni0488
ENCODING 1160
SWIDTH 988 0
DWIDTH 24 0
BBX 22 20 1 -4
BITMAP
007800
008800
000000
3C00F0
240110
000000
000000
000000
000000
F0003C
900024
000000
000000
000000
000000
3C00F0
240110
000000
007800
008800
ENDCHAR
STARTCHAR uni0489
ENCODING 1161
SWIDTH 956 0
DWIDTH 23 0
BBX 23 21 0 -4
BITMAP
001800
001000
081000
083010
0C0070
0600C0
040000
000000
000000
C00030
78003C
180006
000000
000000
000000
0200C0
0E0040
181860
001020
001000
003000
ENDCHAR
STARTCHAR uni048A
ENCODING 1162
SWIDTH 916 0
DWIDTH 22 0
BBX 20 27 2 -5
BITMAP
3C3C00
1C3800
1FF800
0FE000
000000
E01F00
E03F00
E03F00
E07F00
E07700
E0F700
E1E700
E1E700
E3C700
E78700
E78700
EF0700
EE0700
FE0700
FC07F0
F807E0
F807E0
0000E0
0001E0
0001C0
0003C0
0003C0
ENDCHAR
STARTCHAR uni048B
ENCODING 1163
SWIDTH 801 0
DWIDTH 19 0
BBX 17 22 2 -4
BITMAP
707000
78F000
3FE000
1FC000
000000
E07800
E0F800
E1F800
E1F800
E3F800
E7B800
E73800
EF3800
FE3800
FC3800
FC3F80
F83F00
F03F00
000700
000700
000E00
000E00
ENDCHAR
STARTCHAR uni048C
ENCODING 1164
SWIDTH 616 0
DWIDTH 15 0
BBX 13 17 1 0
BITMAP
7800
7800
FF00
FF00
FF00
7800
7800
7FC0
7FF0
7FF8
7878
7838
7838
7878
7FF8
7FF0
7FC0
ENDCHAR
STARTCHAR uni048D
ENCODING 1165
SWIDTH 613 0
DWIDTH 15 0
BBX 14 18 0 0
BITMAP
3800
3800
3800
FFC0
FFC0
3800
3800
3800
3800
3800
3FF0
3FF8
383C
381C
383C
383C
3FF8
3FF0
ENDCHAR
STARTCHAR uni048E
ENCODING 1166
SWIDTH 627 0
DWIDTH 15 0
BBX 12 17 2 0
BITMAP
FF80
FFC0
FFE0
F1F0
F0F0
F0F0
F2F0
F7F0
FFE0
FFC0
FFC0
F0E0
F000
F000
F000
F000
F000
ENDCHAR
STARTCHAR uni048F
ENCODING 1167
SWIDTH 632 0
DWIDTH 15 0
BBX 12 19 2 -6
BITMAP
E780
EFC0
FFE0
F1F0
F0F0
E0F0
E0F0
E0F0
F7F0
F3F0
FFE0
EFC0
E7E0
E060
E000
E000
E000
E000
E000
ENDCHAR
STARTCHAR afii10050
ENCODING 1168
SWIDTH 581 0
DWIDTH 14 0
BBX 12 21 2 0
BITMAP
00F0
00F0
00F0
00F0
FFF0
FFF0
FFF0
F000
F000
F000
F000
F000
F000
F000
F000
F000
F000
F000
F000
F000
F000
ENDCHAR
STARTCHAR afii10098
ENCODING 1169
SWIDTH 512 0
DWIDTH 12 0
BBX 9 17 2 0
BITMAP
0380
0380
0380
0380
FF80
FF80
FF80
E000
E000
E000
E000
E000
E000
E000
E000
E000
E000
ENDCHAR
STARTCHAR uni0492
ENCODING 1170
SWIDTH 559 0
DWIDTH 13 0
BBX 12 17 1 0
BITMAP
7FF0
7FF0
7FF0
7800
7800
7800
7800
FF80
FF80
FF80
7800
7800
7800
7800
7800
7800
7800
ENDCHAR
STARTCHAR uni0493
ENCODING 1171
SWIDTH 491 0
DWIDTH 12 0
BBX 11 13 0 0
BITMAP
3FE0
3FE0
3FE0
3800
3800
FF80
FF80
FF80
3800
3800
3800
3800
3800
ENDCHAR
STARTCHAR uni0494
ENCODING 1172
SWIDTH 733 0
DWIDTH 18 0
BBX 15 23 2 -6
BITMAP
FFE0
FFE0
FFE0
F000
F000
F000
F000
FFC0
FFF0
FFF8
F0FC
F03C
F01C
F01E
F01E
F01E
F01E
001E
003C
007C
0FF8
0FF0
0FE0
ENDCHAR
STARTCHAR uni0495
ENCODING 1173
SWIDTH 602 0
DWIDTH 14 0
BBX 11 19 2 -6
BITMAP
FF80
FF80
FF80
E000
E000
E000
FF00
FF80
FFC0
E3E0
E1E0
E0E0
E0E0
00E0
01E0
01E0
1FC0
1F80
1F00
ENDCHAR
STARTCHAR uni0496
ENCODING 1174
SWIDTH 1028 0
DWIDTH 25 0
BBX 25 22 0 -5
BITMAP
70381C00
78383C00
3C387800
1E38F000
0E38E000
0F39E000
07BBC000
03BB8000
03FF8000
07BBC000
0739C000
0F39E000
1E38F000
3C387000
3C387F80
78383F80
F0381F80
00000780
00000780
00000780
00000780
00000780
ENDCHAR
STARTCHAR uni0497
ENCODING 1175
SWIDTH 941 0
DWIDTH 23 0
BBX 22 17 0 -4
BITMAP
7870F0
3870E0
3C71E0
1E73C0
0E7780
077700
07FF00
0F7780
0E73C0
1E71E0
3C71FC
7870FC
F0707C
00001C
00001C
00001C
00001C
ENDCHAR
STARTCHAR uni0498
ENCODING 1176
SWIDTH 647 0
DWIDTH 16 0
BBX 14 23 1 -6
BITMAP
1FC0
7FF0
FFF8
7078
0038
0038
0078
1FF0
1FC0
1FF0
0078
003C
003C
C07C
FFF8
FFF0
3FC0
0600
0300
0380
0380
0F00
0F00
ENDCHAR
STARTCHAR uni0499
ENCODING 1177
SWIDTH 555 0
DWIDTH 13 0
BBX 11 19 1 -6
BITMAP
3F80
FFC0
7FE0
41E0
01C0
1F80
1FC0
01E0
00E0
81E0
FFE0
FFC0
7F00
0C00
0600
0600
0600
1E00
1C00
ENDCHAR
STARTCHAR uni049A
ENCODING 1178
SWIDTH 755 0
DWIDTH 18 0
BBX 16 22 2 -5
BITMAP
F078
F078
F0F0
F1E0
F1C0
F3C0
F780
FF00
FF00
F780
F780
F3C0
F1E0
F1E0
F0FF
F07F
F03F
000F
000F
000F
000F
000F
ENDCHAR
STARTCHAR uni049B
ENCODING 1179
SWIDTH 665 0
DWIDTH 16 0
BBX 14 17 2 -4
BITMAP
E0F0
E1E0
E1C0
E3C0
E780
EF00
FE00
EF00
E780
E3C0
E1FC
E0FC
E07C
001C
001C
001C
001C
ENDCHAR
STARTCHAR uni049C
ENCODING 1180
SWIDTH 664 0
DWIDTH 16 0
BBX 14 17 2 0
BITMAP
F07C
F078
F6F0
F7E0
F7C0
F7C0
F780
FF00
FF80
FF80
F7C0
F7C0
F7E0
F6F0
F6F0
F078
F03C
ENDCHAR
STARTCHAR uni049D
ENCODING 1181
SWIDTH 599 0
DWIDTH 14 0
BBX 12 13 2 0
BITMAP
E1E0
EDC0
EFC0
EF80
EF00
EE00
FE00
EF00
EF80
EF80
EFC0
EDE0
E0F0
ENDCHAR
STARTCHAR uni049E
ENCODING 1182
SWIDTH 643 0
DWIDTH 15 0
BBX 15 17 0 0
BITMAP
381E
383C
FE78
FEF0
FEF0
39E0
3BC0
3F80
3FC0
3FE0
3DE0
38F0
38F0
3878
387C
383C
381E
ENDCHAR
STARTCHAR uni049F
ENCODING 1183
SWIDTH 620 0
DWIDTH 15 0
BBX 15 18 0 0
BITMAP
3800
3800
FF80
FF80
3800
383C
3878
38F0
39E0
3BC0
3BC0
3FC0
3FE0
3CF0
38F0
3878
383C
383E
ENDCHAR
STARTCHAR uni04A0
ENCODING 1184
SWIDTH 732 0
DWIDTH 18 0
BBX 18 17 0 0
BITMAP
FF03C0
FF0780
FF0F00
0F1E00
0F3C00
0F7C00
0F7800
0FF000
0FF800
0FF800
0F3C00
0F3C00
0F1E00
0F0F00
0F0F00
0F0780
0F03C0
ENDCHAR
STARTCHAR uni04A1
ENCODING 1185
SWIDTH 694 0
DWIDTH 17 0
BBX 17 13 0 0
BITMAP
FF0F00
FF0E00
FF1E00
073C00
073800
077000
07F000
077800
073C00
071C00
071E00
070F00
070780
ENDCHAR
STARTCHAR uni04A2
ENCODING 1186
SWIDTH 840 0
DWIDTH 20 0
BBX 17 22 2 -5
BITMAP
F03C00
F03C00
F03C00
F03C00
F03C00
F03C00
F03C00
FFFC00
FFFC00
FFFC00
F03C00
F03C00
F03C00
F03C00
F03F80
F03F80
F03F80
000380
000380
000380
000380
000380
ENDCHAR
STARTCHAR uni04A3
ENCODING 1187
SWIDTH 743 0
DWIDTH 18 0
BBX 15 17 2 -4
BITMAP
E070
E070
E070
E070
E070
FFF0
FFF0
FFF0
E070
E070
E07E
E07E
E07E
000E
000E
000E
000E
ENDCHAR
STARTCHAR uni04A4
ENCODING 1188
SWIDTH 833 0
DWIDTH 20 0
BBX 18 17 2 0
BITMAP
F03FC0
F03FC0
F03FC0
F03C00
F03C00
F03C00
F03C00
FFFC00
FFFC00
FFFC00
F03C00
F03C00
F03C00
F03C00
F03C00
F03C00
F03C00
ENDCHAR
STARTCHAR uni04A5
ENCODING 1189
SWIDTH 757 0
DWIDTH 18 0
BBX 16 13 2 0
BITMAP
E07F
E07F
E07F
E070
E070
FFF0
FFF0
FFF0
E070
E070
E070
E070
E070
ENDCHAR
STARTCHAR uni04A6
ENCODING 1190
SWIDTH 1125 0
DWIDTH 27 0
BBX 24 23 2 -6
BITMAP
FFF800
FFF800
FFF800
F03800
F03800
F03800
F03800
F03FE0
F03FF8
F03FFC
F0383E
F0381E
F0380F
F0380F
F0380F
F0380F
F0380F
00000F
00001E
00003E
0003FC
0003F8
0003F0
ENDCHAR
STARTCHAR uni04A7
ENCODING 1191
SWIDTH 889 0
DWIDTH 21 0
BBX 18 19 2 -6
BITMAP
FFE000
FFE000
FFE000
E0E000
E0E000
E0E000
E0FE00
E0FF00
E0FF80
E0E7C0
E0E3C0
E0E1C0
E0E1C0
0001C0
0003C0
0003C0
003F80
003F00
003E00
ENDCHAR
STARTCHAR uni04A8
ENCODING 1192
SWIDTH 776 0
DWIDTH 19 0
BBX 17 18 1 -1
BITMAP
07E000
1FE000
3FC000
7C0000
783C00
78FF00
70FF00
F0E780
F1E780
F1E780
71E780
78E700
78EF00
3E7E00
3FFE00
1FFF80
07FF80
000780
ENDCHAR
STARTCHAR uni04A9
ENCODING 1193
SWIDTH 655 0
DWIDTH 16 0
BBX 14 14 1 -1
BITMAP
0F80
3F80
7F00
78F0
F1F8
F3FC
F39C
F39C
F39C
79FC
7FF8
3FF0
0FFC
003C
ENDCHAR
STARTCHAR uni04AA
ENCODING 1194
SWIDTH 637 0
DWIDTH 15 0
BBX 13 23 1 -6
BITMAP
07E0
1FF8
3FF8
3C10
7800
7800
7000
F000
F000
F000
7000
7800
7800
7C18
3FF8
1FF8
07F0
0180
00C0
00C0
00E0
03C0
0380
ENDCHAR
STARTCHAR uni04AB
ENCODING 1195
SWIDTH 514 0
DWIDTH 12 0
BBX 10 19 1 -6
BITMAP
1F80
3FC0
7FC0
7800
F000
F000
F000
F000
F000
F840
7FC0
3FC0
1F80
0600
0300
0380
0380
0F00
0F00
ENDCHAR
STARTCHAR uni04AC
ENCODING 1196
SWIDTH 579 0
DWIDTH 14 0
BBX 12 22 1 -5
BITMAP
FFF0
FFF0
FFF0
0F00
0F00
0F00
0F00
0F00
0F00
0F00
0F00
0F00
0F00
0F00
0FE0
0FE0
0FE0
00E0
00E0
00E0
00E0
00E0
ENDCHAR
STARTCHAR uni04AD
ENCODING 1197
SWIDTH 549 0
DWIDTH 13 0
BBX 12 17 1 -4
BITMAP
FFF0
FFF0
FFF0
0E00
0E00
0E00
0E00
0E00
0E00
0E00
0FE0
0FE0
0FE0
01E0
01E0
01E0
01E0
ENDCHAR
STARTCHAR uni04AE
ENCODING 1198
SWIDTH 624 0
DWIDTH 15 0
BBX 15 17 0 0
BITMAP
F01E
783C
783C
3C78
3C78
1EF0
0EE0
0FE0
07C0
07C0
0380
0380
0380
0380
0380
0380
0380
ENDCHAR
STARTCHAR uni04AF
ENCODING 1199
SWIDTH 574 0
DWIDTH 14 0
BBX 14 19 0 -6
BITMAP
F03C
7038
7878
7878
3CF0
3CF0
1CE0
1FE0
1FE0
0FC0
0FC0
0780
0780
0780
0780
0780
0780
0780
0780
ENDCHAR
STARTCHAR uni04B0
ENCODING 1200
SWIDTH 624 0
DWIDTH 15 0
BBX 15 17 0 0
BITMAP
F01E
783C
783C
3C78
3C78
1EF0
1EF0
0FE0
07C0
07C0
0380
3FF8
3FF8
3FF8
0380
0380
0380
ENDCHAR
STARTCHAR uni04B1
ENCODING 1201
SWIDTH 574 0
DWIDTH 14 0
BBX 14 19 0 -6
BITMAP
F03C
7038
7878
7878
3CF0
3CF0
1CE0
1FE0
1FE0
0FC0
0FC0
0780
0780
3FF0
3FF0
3FF0
0780
0780
0780
ENDCHAR
STARTCHAR uni04B2
ENCODING 1202
SWIDTH 743 0
DWIDTH 18 0
BBX 17 22 0 -5
BITMAP
781E00
781E00
3C3C00
1C3800
1E7800
0FF000
07E000
07E000
03C000
07E000
0FF000
0EF000
1E7800
3C3C00
383F80
781F80
F00F80
000380
000380
000380
000380
000380
ENDCHAR
STARTCHAR uni04B3
ENCODING 1203
SWIDTH 640 0
DWIDTH 15 0
BBX 15 17 0 -4
BITMAP
7878
7878
3CF0
1FE0
1FE0
0FC0
0F80
0FC0
1FE0
3CF0
3CFE
787E
F87E
000E
000E
000E
000E
ENDCHAR
STARTCHAR uni04B4
ENCODING 1204
SWIDTH 930 0
DWIDTH 22 0
BBX 22 22 0 -5
BITMAP
FFFBC0
FFFBC0
FFFBC0
0703C0
0703C0
0703C0
0703C0
0703C0
0703C0
0703C0
0703C0
0703C0
0703C0
0703C0
07FFFC
07FFFC
07FFFC
00003C
00003C
00003C
00003C
00003C
ENDCHAR
STARTCHAR uni04B5
ENCODING 1205
SWIDTH 791 0
DWIDTH 19 0
BBX 18 17 1 -4
BITMAP
FFDC00
FFDC00
FFDC00
1C1C00
1C1C00
1C1C00
1C1C00
1C1C00
1C1C00
1C1C00
1FFFC0
1FFFC0
1FFFC0
0003C0
0003C0
0003C0
0003C0
ENDCHAR
STARTCHAR uni04B6
ENCODING 1206
SWIDTH 804 0
DWIDTH 19 0
BBX 17 22 1 -5
BITMAP
F03C00
F03C00
F03C00
F03C00
F03C00
F03C00
F03C00
F87C00
7FFC00
7FFC00
3F3C00
003C00
003C00
003C00
003F80
003F80
003F80
000380
000380
000380
000380
000380
ENDCHAR
STARTCHAR uni04B7
ENCODING 1207
SWIDTH 726 0
DWIDTH 17 0
BBX 16 17 1 -4
BITMAP
F038
F038
F038
F038
F038
F078
7FF8
7FF8
3F38
0038
003F
003F
003F
0007
0007
0007
0007
ENDCHAR
STARTCHAR uni04B8
ENCODING 1208
SWIDTH 728 0
DWIDTH 17 0
BBX 14 17 1 0
BITMAP
F03C
F03C
F03C
F03C
F33C
F33C
F33C
FB7C
7FFC
7FFC
1FBC
033C
033C
033C
033C
003C
003C
ENDCHAR
STARTCHAR uni04B9
ENCODING 1209
SWIDTH 655 0
DWIDTH 16 0
BBX 13 13 1 0
BITMAP
F038
F038
F038
F238
F238
F278
7FF8
7FF8
1F38
0238
0238
0238
0038
ENDCHAR
STARTCHAR uni04BA
ENCODING 1210
SWIDTH 728 0
DWIDTH 17 0
BBX 14 17 2 0
BITMAP
F000
F000
F000
F000
F000
F000
F3E0
FFF8
FFF8
F87C
F03C
F03C
F03C
F03C
F03C
F03C
F03C
ENDCHAR
STARTCHAR uni04BB
ENCODING 1211
SWIDTH 666 0
DWIDTH 16 0
BBX 12 13 2 0
BITMAP
E000
E000
E000
E000
E7C0
FFF0
FFF0
F0F0
E070
E070
E070
E070
E070
ENDCHAR
STARTCHAR uni04BC
ENCODING 1212
SWIDTH 948 0
DWIDTH 23 0
BBX 21 17 0 0
BITMAP
003F00
00FFC0
03FFE0
03E1F0
078070
E78078
E70078
FFFFF8
FFFFF8
7FFFF8
070000
078000
078010
03E070
01FFF0
00FFF0
003F80
ENDCHAR
STARTCHAR uni04BD
ENCODING 1213
SWIDTH 714 0
DWIDTH 17 0
BBX 16 13 0 0
BITMAP
01F8
03FC
078E
EF0F
EF07
FFFF
7FFF
0E00
0F00
0F82
07FE
03FE
00FC
ENDCHAR
STARTCHAR uni04BE
ENCODING 1214
SWIDTH 948 0
DWIDTH 23 0
BBX 21 22 0 -5
BITMAP
003F00
00FFC0
03FFE0
03E1F0
078070
E78078
E70078
FFFFF8
FFFFF8
7FFFF8
070000
078000
078010
03E070
01FFF0
00FFF0
003FC0
001E00
001E00
001E00
001E00
001E00
ENDCHAR
STARTCHAR uni04BF
ENCODING 1215
SWIDTH 714 0
DWIDTH 17 0
BBX 16 17 0 -4
BITMAP
01F8
03FC
078E
EF0F
EF07
FFFF
7FFF
0E00
0F00
0F82
07FE
03FE
01FC
00F0
00F0
00F0
00F0
ENDCHAR
STARTCHAR uni04C0
ENCODING 1216
SWIDTH 331 0
DWIDTH 8 0
BBX 4 17 2 0
BITMAP
F0
F0
F0
F0
F0
F0
F0
F0
F0
F0
F0
F0
F0
F0
F0
F0
F0
ENDCHAR
STARTCHAR uni04C1
ENCODING 1217
SWIDTH 942 0
DWIDTH 23 0
BBX 23 23 0 0
BITMAP
038380
038780
03FF00
00FE00
000000
000000
70381C
78383C
3C3878
1E38F0
0E38E0
0F39E0
07BBC0
03BB80
03FF80
07BBC0
0739C0
0F39E0
1E38F0
3C3878
3C3878
78383C
F0381E
ENDCHAR
STARTCHAR uni04C2
ENCODING 1218
SWIDTH 873 0
DWIDTH 21 0
BBX 21 19 0 0
BITMAP
070700
078F00
03FE00
01FC00
000000
000000
7870F0
3870E0
3C71E0
1E73C0
0E7780
077700
07FF00
0F7780
0E7380
1E71C0
3C71E0
7870F0
F07078
ENDCHAR
STARTCHAR uni04C3
ENCODING 1219
SWIDTH 759 0
DWIDTH 18 0
BBX 15 23 2 -6
BITMAP
F07C
F078
F0F0
F1E0
F3C0
F380
F780
FF00
FFC0
FFF0
FFF8
F07C
F03C
F01E
F01E
F01E
F01E
001E
001C
003C
07F8
07F0
07E0
ENDCHAR
STARTCHAR uni04C4
ENCODING 1220
SWIDTH 661 0
DWIDTH 16 0
BBX 13 19 2 -6
BITMAP
E0F0
E1E0
E3C0
E380
E700
EF00
FFC0
FFE0
FFF0
E0F8
E078
E078
E038
0078
0078
08F8
0FF0
0FE0
0FC0
ENDCHAR
STARTCHAR uni04C5
ENCODING 1221
SWIDTH 837 0
DWIDTH 20 0
BBX 20 22 0 -5
BITMAP
07FF00
07FF00
07FF00
0F0F00
0F0F00
0F0F00
0F0F00
0E0F00
0E0F00
0E0F00
1E0F00
1E0F00
1E0F00
3C0F00
FC0FF0
F80FE0
F00FE0
0000E0
0001E0
0001C0
0003C0
0003C0
ENDCHAR
STARTCHAR uni04C6
ENCODING 1222
SWIDTH 727 0
DWIDTH 17 0
BBX 17 17 0 -4
BITMAP
1FF800
1FF800
1FF800
1E3800
1C3800
1C3800
1C3800
1C3800
3C3800
3C3800
F83F80
F83F00
F03F00
000700
000700
000E00
000E00
ENDCHAR
STARTCHAR uni04C7
ENCODING 1223
SWIDTH 765 0
DWIDTH 18 0
BBX 14 23 2 -6
BITMAP
F03C
F03C
F03C
F03C
F03C
F03C
F03C
FFFC
FFFC
FFFC
F03C
F03C
F03C
F03C
F03C
F03C
F03C
003C
003C
0078
0FF8
0FF0
0FC0
ENDCHAR
STARTCHAR uni04C8
ENCODING 1224
SWIDTH 662 0
DWIDTH 16 0
BBX 12 19 2 -6
BITMAP
E070
E070
E070
E070
E070
FFF0
FFF0
FFF0
E070
E070
E070
E070
E070
00F0
00F0
10F0
1FE0
1FC0
0F80
ENDCHAR
STARTCHAR uni04C9
ENCODING 1225
SWIDTH 857 0
DWIDTH 21 0
BBX 18 22 2 -5
BITMAP
F03C00
F03C00
F03C00
F03C00
F03C00
F03C00
F03C00
FFFC00
FFFC00
FFFC00
F03C00
F03C00
F03C00
F03C00
F03FC0
F03F80
F03F80
000380
000780
000700
000F00
000F00
ENDCHAR
STARTCHAR uni04CA
ENCODING 1226
SWIDTH 744 0
DWIDTH 18 0
BBX 16 17 2 -4
BITMAP
E070
E070
E070
E070
E070
FFF0
FFF0
FFF0
E070
E070
E07F
E07E
E07E
000E
001E
001C
001C
ENDCHAR
STARTCHAR uni04CB
ENCODING 1227
SWIDTH 728 0
DWIDTH 17 0
BBX 14 22 1 -5
BITMAP
F03C
F03C
F03C
F03C
F03C
F03C
F03C
F87C
7FFC
7FFC
3F3C
003C
003C
003C
01FC
01FC
01FC
01E0
01E0
01E0
01E0
01E0
ENDCHAR
STARTCHAR uni04CC
ENCODING 1228
SWIDTH 655 0
DWIDTH 16 0
BBX 13 17 1 -4
BITMAP
F038
F038
F038
F038
F038
F078
7FF8
7FF8
3F38
0038
01F8
01F8
01F8
01C0
01C0
01C0
01C0
ENDCHAR
STARTCHAR uni04CD
ENCODING 1229
SWIDTH 1036 0
DWIDTH 25 0
BBX 23 22 2 -5
BITMAP
F803E0
FC07E0
FC07E0
FC07E0
EE0EE0
EE0EE0
EE0EE0
E71DE0
E71DE0
E71DE0
E7B9E0
E3B9E0
E3B1E0
E3F1E0
E1F1FE
E1E1FC
E1E1FC
00001C
00003C
000038
000078
000078
ENDCHAR
STARTCHAR uni04CE
ENCODING 1230
SWIDTH 925 0
DWIDTH 22 0
BBX 20 17 2 -4
BITMAP
F81F00
F81F00
FC3F00
FC3F00
EE7700
EE7700
EE7700
E7E700
E7E700
E7E700
E3C7F0
E3C7E0
E187E0
0000E0
0001E0
0001C0
0001C0
ENDCHAR
STARTCHAR uni04CF
ENCODING 1231
SWIDTH 331 0
DWIDTH 8 0
BBX 4 17 2 0
BITMAP
F0
F0
F0
F0
F0
F0
F0
F0
F0
F0
F0
F0
F0
F0
F0
F0
F0
ENDCHAR
STARTCHAR uni04D0
ENCODING 1232
SWIDTH 689 0
DWIDTH 17 0
BBX 17 23 0 0
BITMAP
1C1C00
1C3C00
1FF800
07F000
000000
000000
03E000
03E000
07F000
077000
077000
0F7800
0E3800
1E3800
1E3C00
1C1C00
3FFE00
3FFE00
3FFE00
780F00
780F00
700700
F00780
ENDCHAR
STARTCHAR uni04D1
ENCODING 1233
SWIDTH 604 0
DWIDTH 15 0
BBX 12 19 1 0
BITMAP
7070
78F0
3FE0
1FC0
0000
0000
1FC0
7FE0
3FF0
30F0
0070
1FF0
7FF0
F870
F070
F0F0
FFF0
7F70
3E30
ENDCHAR
STARTCHAR uni04D2
ENCODING 1234
SWIDTH 689 0
DWIDTH 17 0
BBX 17 22 0 0
BITMAP
063000
0F7800
063000
000000
000000
03E000
03E000
07F000
077000
077000
0F7800
0E3800
1E3800
1E3C00
1C1C00
3FFE00
3FFE00
3FFE00
780F00
780F00
700700
F00780
ENDCHAR
STARTCHAR uni04D3
ENCODING 1235
SWIDTH 604 0
DWIDTH 15 0
BBX 12 18 1 0
BITMAP
18C0
3DE0
18C0
0000
0000
1FC0
7FE0
3FF0
30F0
0070
1FF0
7FF0
F870
F070
F0F0
FFF0
7F70
3E30
ENDCHAR
STARTCHAR uni04D4
ENCODING 1236
SWIDTH 952 0
DWIDTH 23 0
BBX 22 17 0 0
BITMAP
01FFFC
01FFFC
01FFFC
03DE00
039E00
079E00
071E00
0F1FF8
0E1FF8
1E1FF8
1FFE00
3FFE00
3FFE00
381E00
781FFC
701FFC
F01FFC
ENDCHAR
STARTCHAR uni04D5
ENCODING 1237
SWIDTH 916 0
DWIDTH 22 0
BBX 20 13 1 0
BITMAP
1F8F80
7FFFE0
3FF8E0
20F0F0
00F070
1FFFF0
7FFFF0
F0F000
F0F000
F1F820
FFFFE0
7FBFE0
3E0FC0
ENDCHAR
STARTCHAR uni04D6
ENCODING 1238
SWIDTH 560 0
DWIDTH 13 0
BBX 12 23 1 0
BITMAP
F0F0
70E0
7FE0
1F80
0000
0000
7FE0
7FE0
7FE0
7800
7800
7800
7800
7FC0
7FC0
7FC0
7800
7800
7800
7800
7FE0
7FE0
7FE0
ENDCHAR
STARTCHAR uni04D7
ENCODING 1239
SWIDTH 590 0
DWIDTH 14 0
BBX 12 19 1 0
BITMAP
7070
70F0
7FE0
1F80
0000
0000
1F80
3FE0
78E0
70F0
F070
FFF0
FFF0
F000
F000
7820
7FE0
3FE0
0FC0
ENDCHAR
STARTCHAR uni04D8
ENCODING 1240
SWIDTH 816 0
DWIDTH 20 0
BBX 17 17 2 0
BITMAP
0FE000
7FF800
7FFC00
703E00
400F00
000F00
000700
FFFF80
FFFF80
FFFF80
F00700
F00F00
700F00
7C1E00
3FFE00
1FFC00
07F000
ENDCHAR
STARTCHAR uni04D9
ENCODING 1241
SWIDTH 601 0
DWIDTH 14 0
BBX 12 13 1 0
BITMAP
3F00
7FC0
7FE0
41E0
00F0
00F0
FFF0
FFF0
F0F0
F0E0
71E0
3FC0
1F80
ENDCHAR
STARTCHAR uni04DA
ENCODING 1242
SWIDTH 816 0
DWIDTH 20 0
BBX 17 22 2 0
BITMAP
0E7000
0E7000
063000
000000
000000
0FE000
7FF800
7FFC00
703E00
400F00
000F00
000700
FFFF80
FFFF80
FFFF80
F00700
F00F00
700F00
7C1E00
3FFE00
1FFC00
07F000
ENDCHAR
STARTCHAR uni04DB
ENCODING 1243
SWIDTH 601 0
DWIDTH 14 0
BBX 12 18 1 0
BITMAP
18C0
3DE0
18C0
0000
0000
3F00
7FC0
7FE0
41E0
00F0
00F0
FFF0
FFF0
F0F0
F0E0
71E0
3FC0
1F80
ENDCHAR
STARTCHAR uni04DC
ENCODING 1244
SWIDTH 942 0
DWIDTH 23 0
BBX 23 22 0 0
BITMAP
00C600
01EF00
00C600
000000
000000
70381C
78383C
3C3878
1E38F0
0E38E0
0F39E0
07BBC0
03BB80
03FF80
07BBC0
0739C0
0F39E0
1E38F0
3C3878
3C3878
78383C
F0381E
ENDCHAR
STARTCHAR uni04DD
ENCODING 1245
SWIDTH 873 0
DWIDTH 21 0
BBX 21 18 0 0
BITMAP
01CE00
01CE00
018C00
000000
000000
7870F0
3870E0
3C71E0
1E73C0
0E7780
077700
07FF00
0F7780
0E7380
1E71C0
3C71E0
7870F0
F07078
ENDCHAR
STARTCHAR uni04DE
ENCODING 1246
SWIDTH 647 0
DWIDTH 16 0
BBX 14 22 1 0
BITMAP
1CE0
1CE0
1CE0
0000
0000
1FC0
7FF0
FFF8
7078
0038
0038
0078
1FF0
1FC0
1FF0
0078
003C
003C
C07C
FFF8
FFF0
3FC0
ENDCHAR
STARTCHAR uni04DF
ENCODING 1247
SWIDTH 555 0
DWIDTH 13 0
BBX 11 18 1 0
BITMAP
39C0
39C0
39C0
0000
0000
3F80
FFC0
7FE0
41E0
01C0
1F80
1FC0
01E0
00E0
81E0
FFE0
FFC0
7F00
ENDCHAR
STARTCHAR uni04E0
ENCODING 1248
SWIDTH 590 0
DWIDTH 14 0
BBX 12 17 1 0
BITMAP
FFE0
FFE0
FFE0
03C0
0F00
1E00
3F80
3FE0
3FE0
01F0
00F0
00F0
00F0
81F0
FFE0
FFC0
7F00
ENDCHAR
STARTCHAR uni04E1
ENCODING 1249
SWIDTH 581 0
DWIDTH 14 0
BBX 12 19 1 -6
BITMAP
FFF0
FFF0
FFF0
01C0
0780
0F00
1E00
3F00
3FC0
3FE0
01F0
00F0
00F0
00F0
00F0
81F0
FFE0
FFC0
7F00
ENDCHAR
STARTCHAR uni04E2
ENCODING 1250
SWIDTH 823 0
DWIDTH 20 0
BBX 16 21 2 0
BITMAP
0FF0
0FF0
0000
0000
E01F
E03F
E03F
E07F
E077
E0F7
E1E7
E1E7
E3C7
E787
E787
EF07
EE07
FE07
FC07
F807
F807
ENDCHAR
STARTCHAR uni04E3
ENCODING 1251
SWIDTH 720 0
DWIDTH 17 0
BBX 13 17 2 0
BITMAP
1FE0
1FE0
0000
0000
E078
E0F8
E1F8
E1F8
E3F8
E7B8
E738
EF38
FE38
FC38
FC38
F838
F038
ENDCHAR
STARTCHAR uni04E4
ENCODING 1252
SWIDTH 823 0
DWIDTH 20 0
BBX 16 22 2 0
BITMAP
0E70
0E70
0E70
0000
0000
E01F
E03F
E03F
E07F
E077
E0F7
E1E7
E1E7
E3C7
E787
E787
EF07
EE07
FE07
FC07
F807
F807
ENDCHAR
STARTCHAR uni04E5
ENCODING 1253
SWIDTH 720 0
DWIDTH 17 0
BBX 13 18 2 0
BITMAP
1CE0
1CE0
1CE0
0000
0000
E078
E0F8
E1F8
E1F8
E3F8
E7B8
E738
EF38
FE38
FC38
FC38
F838
F038
ENDCHAR
STARTCHAR uni04E6
ENCODING 1254
SWIDTH 795 0
DWIDTH 19 0
BBX 17 22 1 0
BITMAP
073800
073800
073800
000000
000000
07F000
1FFC00
3FFE00
7C1E00
780F00
780F00
700700
F00780
F00780
F00780
700700
780F00
780F00
3C1E00
3FFE00
1FFC00
07F000
ENDCHAR
STARTCHAR uni04E7
ENCODING 1255
SWIDTH 619 0
DWIDTH 15 0
BBX 13 18 1 0
BITMAP
1CE0
1CE0
18C0
0000
0000
0F80
3FE0
7FF0
78F0
F078
F078
F078
F078
F078
78F0
7FF0
3FE0
0F80
ENDCHAR
STARTCHAR uni04E8
ENCODING 1256
SWIDTH 795 0
DWIDTH 19 0
BBX 17 17 1 0
BITMAP
07F000
1FFC00
3FFE00
7C1E00
780F00
780F00
700700
FFFF80
FFFF80
FFFF80
700700
780F00
780F00
3C1E00
3FFE00
1FFC00
07F000
ENDCHAR
STARTCHAR uni04E9
ENCODING 1257
SWIDTH 619 0
DWIDTH 15 0
BBX 13 13 1 0
BITMAP
0F80
3FE0
7FF0
78F0
F078
FFF8
FFF8
F078
F078
78F0
7FF0
3FE0
0F80
ENDCHAR
STARTCHAR uni04EA
ENCODING 1258
SWIDTH 795 0
DWIDTH 19 0
BBX 17 22 1 0
BITMAP
073800
073800
073800
000000
000000
07F000
1FFC00
3FFE00
7C1E00
780F00
780F00
700700
FFFF80
FFFF80
FFFF80
700700
780F00
780F00
3C1E00
3FFE00
1FFC00
07F000
ENDCHAR
STARTCHAR uni04EB
ENCODING 1259
SWIDTH 619 0
DWIDTH 15 0
BBX 13 18 1 0
BITMAP
18E0
1CE0
18C0
0000
0000
0F80
3FE0
7FF0
78F0
F078
FFF8
FFF8
F078
F078
78F0
7FF0
3FE0
0F80
ENDCHAR
STARTCHAR uni04EC
ENCODING 1260
SWIDTH 663 0
DWIDTH 16 0
BBX 14 22 1 0
BITMAP
1CE0
1CE0
1CE0
0000
0000
3F80
FFE0
FFF0
60F0
0078
0078
0038
3FFC
3FFC
3FFC
0038
0078
0078
C0F0
FFF0
FFE0
7F80
ENDCHAR
STARTCHAR uni04ED
ENCODING 1261
SWIDTH 512 0
DWIDTH 12 0
BBX 10 18 1 0
BITMAP
7380
7380
7180
0000
0000
7E00
FF00
FF80
43C0
03C0
7FC0
7FC0
03C0
03C0
8780
FF80
FF00
7E00
ENDCHAR
STARTCHAR uni04EE
ENCODING 1262
SWIDTH 652 0
DWIDTH 16 0
BBX 16 21 0 0
BITMAP
0FF0
0FF0
0000
0000
F00F
780E
781E
381C
3C3C
1C38
1E38
0E78
0F70
07F0
07E0
03E0
03C0
07C0
7F80
7F00
7E00
ENDCHAR
STARTCHAR uni04EF
ENCODING 1263
SWIDTH 568 0
DWIDTH 14 0
BBX 14 23 0 -6
BITMAP
1FE0
1FE0
0000
0000
F03C
7038
7878
7878
3C70
3CF0
1CF0
1EE0
0FE0
0FC0
0FC0
07C0
0780
0780
0700
0F00
7E00
7E00
7800
ENDCHAR
STARTCHAR uni04F0
ENCODING 1264
SWIDTH 652 0
DWIDTH 16 0
BBX 16 22 0 0
BITMAP
0E70
0E70
0E70
0000
0000
F00F
780E
781E
381C
3C3C
1C38
1E38
0E78
0F70
07F0
07E0
03E0
03C0
07C0
7F80
7F00
7E00
ENDCHAR
STARTCHAR uni04F1
ENCODING 1265
SWIDTH 568 0
DWIDTH 14 0
BBX 14 24 0 -6
BITMAP
1CE0
1CE0
1CE0
0000
0000
F03C
7038
7878
7878
3C70
3CF0
1CF0
1EE0
0FE0
0FC0
0FC0
07C0
0780
0780
0700
0F00
7E00
7E00
7800
ENDCHAR
STARTCHAR uni04F2
ENCODING 1266
SWIDTH 652 0
DWIDTH 16 0
BBX 16 23 0 0
BITMAP
03DE
07BC
0738
0E60
0000
0000
F00F
780E
781E
381C
3C3C
1C38
1E38
0E78
0F70
07F0
07E0
03E0
03C0
07C0
7F80
7F00
7E00
ENDCHAR
STARTCHAR uni04F3
ENCODING 1267
SWIDTH 568 0
DWIDTH 14 0
BBX 14 25 0 -6
BITMAP
0738
0F78
0C60
18C0
0000
0000
F03C
7038
7878
7878
3C70
3CF0
1CF0
1EE0
0FE0
0FC0
0FC0
07C0
0780
0780
0700
0F00
7E00
7E00
7800
ENDCHAR
STARTCHAR uni04F4
ENCODING 1268
SWIDTH 728 0
DWIDTH 17 0
BBX 14 22 1 0
BITMAP
0C60
1EF0
0C60
0000
0000
F03C
F03C
F03C
F03C
F03C
F03C
F03C
F87C
7FFC
7FFC
3F3C
003C
003C
003C
003C
003C
003C
ENDCHAR
STARTCHAR uni04F5
ENCODING 1269
SWIDTH 655 0
DWIDTH 16 0
BBX 13 18 1 0
BITMAP
1CE0
1CE0
1CE0
0000
0000
F038
F038
F038
F038
F038
F078
7FF8
7FF8
3F38
0038
0038
0038
0038
ENDCHAR
STARTCHAR uni04F6
ENCODING 1270
SWIDTH 561 0
DWIDTH 13 0
BBX 11 22 2 -5
BITMAP
FFE0
FFE0
FFE0
F000
F000
F000
F000
F000
F000
F000
F000
F000
F000
F000
FE00
FE00
FE00
0E00
0E00
0E00
0E00
0E00
ENDCHAR
STARTCHAR uni04F7
ENCODING 1271
SWIDTH 478 0
DWIDTH 11 0
BBX 8 17 2 -4
BITMAP
FF
FF
FF
E0
E0
E0
E0
E0
E0
E0
FE
FE
FE
1E
1E
1E
1E
ENDCHAR
STARTCHAR uni04F8
ENCODING 1272
SWIDTH 905 0
DWIDTH 22 0
BBX 18 22 2 0
BITMAP
073800
073800
073800
000000
000000
F003C0
F003C0
F003C0
F003C0
F003C0
F003C0
F003C0
FF83C0
FFC3C0
FFE3C0
F0F3C0
F0F3C0
F0F3C0
F1F3C0
FFE3C0
FFE3C0
FF83C0
ENDCHAR
STARTCHAR uni04F9
ENCODING 1273
SWIDTH 850 0
DWIDTH 20 0
BBX 16 18 2 0
BITMAP
0630
0F78
0630
0000
0000
E007
E007
E007
E007
E007
FF07
FFC7
E1C7
E1E7
E1E7
E1C7
FFC7
FF07
ENDCHAR
STARTCHAR uni04FA
ENCODING 1274
SWIDTH 559 0
DWIDTH 13 0
BBX 12 23 1 -6
BITMAP
7FF0
7FF0
7FF0
7800
7800
7800
7800
FF80
FF80
FF80
7800
7800
7800
7F00
7F00
7F00
7F00
0700
0700
0F00
3F00
3E00
3C00
ENDCHAR
STARTCHAR uni04FB
ENCODING 1275
SWIDTH 491 0
DWIDTH 12 0
BBX 11 19 0 -6
BITMAP
3FE0
3FE0
3FE0
3800
3800
FF80
FF80
FF80
3800
3800
3F80
3F80
3F80
0780
0780
0780
3F00
3F00
3E00
ENDCHAR
STARTCHAR uni04FC
ENCODING 1276
SWIDTH 731 0
DWIDTH 18 0
BBX 17 23 0 -6
BITMAP
781E00
781E00
3C3C00
1C3800
1E7800
0FF000
07E000
07E000
03C000
07E000
0FF000
0EF000
1E7800
3C3F80
383F80
781F80
F00F80
000380
000380
000780
001F80
001F00
001E00
ENDCHAR
STARTCHAR uni04FD
ENCODING 1277
SWIDTH 645 0
DWIDTH 15 0
BBX 15 19 0 -6
BITMAP
7878
7878
3CF0
1FE0
1FE0
0FC0
0F80
0FC0
1FE0
3CF0
3CFE
787E
F87E
000E
000E
001E
007E
007C
0078
ENDCHAR
STARTCHAR uni04FE
ENCODING 1278
SWIDTH 666 0
DWIDTH 16 0
BBX 16 17 0 0
BITMAP
781E
781E
3C3C
1C38
1E78
0FF0
0FF0
7FFE
7FFE
7FFE
0FF0
0EF0
1E78
3C3C
383C
781E
F00F
ENDCHAR
STARTCHAR uni04FF
ENCODING 1279
SWIDTH 578 0
DWIDTH 14 0
BBX 14 13 0 0
BITMAP
7878
7878
3CF0
1FE0
1FE0
7FF8
7FF8
7FF8
1FE0
1CE0
3CF0
7878
F87C
ENDCHAR
STARTCHAR uni0500
ENCODING 1280
SWIDTH 638 0
DWIDTH 15 0
BBX 12 17 1 0
BITMAP
00F0
00F0
00F0
00F0
00F0
00F0
00F0
1FF0
3FF0
7FF0
F8F0
F0F0
F0F0
F8F0
7FF0
7FF0
1FF0
ENDCHAR
STARTCHAR uni0501
ENCODING 1281
SWIDTH 632 0
DWIDTH 15 0
BBX 12 18 1 0
BITMAP
0070
0070
0070
0070
0070
1E70
3F70
7FF0
F8F0
F070
F070
F070
F070
F070
F8F0
7FF0
3F70
1E70
ENDCHAR
STARTCHAR uni0502
ENCODING 1282
SWIDTH 925 0
DWIDTH 22 0
BBX 19 17 1 0
BITMAP
00F000
00F000
00F000
00F000
00F000
00F000
0FF000
3FF1E0
7FF1E0
F8F1E0
F0F1E0
F0F1E0
F0F1E0
F1F1E0
7FFFE0
7FBFC0
1F1F00
ENDCHAR
STARTCHAR uni0503
ENCODING 1283
SWIDTH 922 0
DWIDTH 22 0
BBX 19 18 1 0
BITMAP
00F000
00F000
00F000
00F000
00F000
1EF000
3FF000
7FF000
F8F000
F0F000
F0F0E0
F070E0
F0F0E0
F0F0E0
78F1E0
7FFFE0
3FFFC0
1F1F80
ENDCHAR
STARTCHAR uni0504
ENCODING 1284
SWIDTH 913 0
DWIDTH 22 0
BBX 19 17 1 0
BITMAP
3F0000
FFC000
FFE000
41E000
01E000
01E000
03C000
7F81E0
7F01E0
7FC1E0
03E1E0
00E1E0
00E1E0
00F1E0
00FFE0
007FC0
003F00
ENDCHAR
STARTCHAR uni0505
ENCODING 1285
SWIDTH 870 0
DWIDTH 21 0
BBX 18 13 1 0
BITMAP
7F0000
FFC000
FFC000
01C000
01C000
3F81C0
3FC1C0
03E1C0
01E1C0
01E3C0
01FFC0
00FF80
007F00
ENDCHAR
STARTCHAR uni0506
ENCODING 1286
SWIDTH 701 0
DWIDTH 17 0
BBX 16 22 1 -5
BITMAP
3F80
FFC0
FFE0
61E0
00E0
00E0
01E0
7FC0
7F80
7FE0
01F0
00F0
00F0
00F0
00FF
00FF
00FF
000F
000F
000F
000F
000F
ENDCHAR
STARTCHAR uni0507
ENCODING 1287
SWIDTH 661 0
DWIDTH 16 0
BBX 15 17 1 -4
BITMAP
3F80
FFC0
7FE0
40E0
00E0
3FC0
3FC0
01E0
00E0
00E0
00FE
00FE
00FE
001E
001E
001E
001E
ENDCHAR
STARTCHAR uni0508
ENCODING 1288
SWIDTH 1033 0
DWIDTH 25 0
BBX 23 17 0 0
BITMAP
07FE00
07FE00
07FE00
0F0E00
0F0E00
0F0E00
0F0E00
0E0E1E
0E0E1E
0E0E1E
1E0E1E
1E0E1E
1E0E1E
3C0F1E
FC0FFE
F807FC
F003F0
ENDCHAR
STARTCHAR uni0509
ENCODING 1289
SWIDTH 935 0
DWIDTH 22 0
BBX 20 13 0 0
BITMAP
0FF800
1FF800
1FF800
1E7800
1C7800
1C7870
1C7870
1C7870
3C7870
3C78F0
F83FF0
F83FE0
F00FC0
ENDCHAR
STARTCHAR uni050A
ENCODING 1290
SWIDTH 1042 0
DWIDTH 25 0
BBX 21 17 2 0
BITMAP
F03C00
F03C00
F03C00
F03C00
F03C00
F03C00
F03C00
FFFC78
FFFC78
FFFC78
F03C78
F03C78
F03C78
F03C78
F03FF8
F01FF0
F007C0
ENDCHAR
STARTCHAR uni050B
ENCODING 1291
SWIDTH 952 0
DWIDTH 23 0
BBX 19 13 2 0
BITMAP
E0F000
E0F000
E0F000
E0F000
E0F000
FFF0E0
FFF0E0
FFF0E0
E0F0E0
E0F1E0
E07FE0
E07FC0
E01F80
ENDCHAR
STARTCHAR uni050C
ENCODING 1292
SWIDTH 799 0
DWIDTH 19 0
BBX 17 17 1 0
BITMAP
03F800
0FFE00
3FFC00
3E0C00
780000
780000
700000
F07F80
F07F80
F07F80
700700
780700
780F00
3E1F00
3FFE00
1FFC00
07F000
ENDCHAR
STARTCHAR uni050D
ENCODING 1293
SWIDTH 663 0
DWIDTH 16 0
BBX 14 13 1 0
BITMAP
0FE0
3FF0
7FF0
7820
F000
F1FC
F1FC
F1FC
F03C
7878
7FF8
3FF0
0FC0
ENDCHAR
STARTCHAR uni050E
ENCODING 1294
SWIDTH 757 0
DWIDTH 18 0
BBX 16 17 0 0
BITMAP
FFF8
FFF8
FFF8
0780
0780
0780
0780
078F
078F
078F
078F
078F
078F
078F
07FF
03FE
00FC
ENDCHAR
STARTCHAR uni050F
ENCODING 1295
SWIDTH 733 0
DWIDTH 18 0
BBX 15 13 1 0
BITMAP
FFF0
FFF0
FFF0
0F00
0F00
0F0E
0F0E
0F0E
0F0E
0F1E
0FFE
07FC
01F8
ENDCHAR
STARTCHAR uni0510
ENCODING 1296
SWIDTH 647 0
DWIDTH 16 0
BBX 14 17 1 0
BITMAP
0FE0
3FFC
7FF8
7838
7000
7000
7800
3FE0
0FE0
7FE0
F800
F000
F000
F80C
7FFC
3FFC
0FF8
ENDCHAR
STARTCHAR uni0511
ENCODING 1297
SWIDTH 556 0
DWIDTH 13 0
BBX 11 13 1 0
BITMAP
1F80
7FE0
7FE0
7040
7000
3F80
3F80
F000
E000
F020
FFE0
7FE0
3FC0
ENDCHAR
STARTCHAR uni0512
ENCODING 1298
SWIDTH 817 0
DWIDTH 20 0
BBX 19 23 0 -6
BITMAP
07FF00
07FF00
07FF00
0F0F00
0F0F00
0F0F00
0F0F00
0E0F00
0E0F00
0E0F00
1E0F00
1E0F00
1E0F00
3C0FE0
FC0FE0
F80FE0
F00FE0
0000E0
0000E0
0001E0
0007E0
0007C0
000780
ENDCHAR
STARTCHAR uni0513
ENCODING 1299
SWIDTH 724 0
DWIDTH 17 0
BBX 17 19 0 -6
BITMAP
1FF800
1FF800
1FF800
1E3800
1C3800
1C3800
1C3800
1C3800
3C3800
3C3800
F83B80
F83B80
F03B80
000380
000380
000780
001F80
001F00
001E00
ENDCHAR
STARTCHAR uni1E00
ENCODING 7680
SWIDTH 689 0
DWIDTH 17 0
BBX 17 24 0 -7
BITMAP
03E000
03E000
07F000
077000
077000
0F7800
0E3800
1E3800
1E3C00
1C1C00
3FFE00
3FFE00
3FFE00
780F00
780F00
700700
F00780
000000
01C000
03E000
066000
066000
03E000
01C000
ENDCHAR
STARTCHAR uni1E01
ENCODING 7681
SWIDTH 604 0
DWIDTH 15 0
BBX 12 20 1 -7
BITMAP
1FC0
7FE0
3FF0
30F0
0070
1FF0
7FF0
F870
F070
F0F0
FFF0
7F70
3E30
0000
0F00
1F80
1980
1980
1F80
0F00
ENDCHAR
STARTCHAR uni1E3E
ENCODING 7742
SWIDTH 942 0
DWIDTH 23 0
BBX 19 23 2 0
BITMAP
003C00
007800
00F000
01C000
000000
000000
F803E0
FC07E0
FC07E0
FC07E0
EE0EE0
EE0EE0
EE0EE0
E71DE0
E71DE0
E71DE0
E7B9E0
E3B9E0
E3B1E0
E3F1E0
E1F1E0
E1E1E0
E1E1E0
ENDCHAR
STARTCHAR uni1E3F
ENCODING 7743
SWIDTH 981 0
DWIDTH 24 0
BBX 20 19 2 0
BITMAP
003C00
003800
007000
00E000
000000
000000
E7C7C0
EFEFE0
FFFFF0
F8F8F0
F0F0F0
F0F070
E0F070
E0F070
E0F070
E0F070
E0F070
E0F070
E0F070
ENDCHAR
STARTCHAR Wgrave
ENCODING 7808
SWIDTH 966 0
DWIDTH 23 0
BBX 23 23 0 0
BITMAP
01E000
00F000
003800
001C00
000000
000000
F0381E
F07C1E
707C1C
707C1C
786C3C
78EE3C
38EE38
38EE38
3CEE78
3DC778
1DC770
1DC770
1DC770
1F83F0
0F83E0
0F83E0
0F83E0
ENDCHAR
STARTCHAR wgrave
ENCODING 7809
SWIDTH 855 0
DWIDTH 21 0
BBX 21 19 0 0
BITMAP
03C000
01E000
00F000
007000
000000
000000
F0F878
70F870
70F870
78D8F0
39DCE0
39DCE0
3D9DE0
3D8DE0
1F8FC0
1F8FC0
1F8FC0
0F0780
0F0780
ENDCHAR
STARTCHAR Wacute
ENCODING 7810
SWIDTH 966 0
DWIDTH 23 0
BBX 23 23 0 0
BITMAP
000F00
001E00
003800
007000
000000
000000
F0381E
F07C1E
707C1C
707C1C
786C3C
78EE3C
38EE38
38EE38
3CEE78
3DC778
1DC770
1DC770
1DC770
1F83F0
0F83E0
0F83E0
0F83E0
ENDCHAR
STARTCHAR wacute
ENCODING 7811
SWIDTH 855 0
DWIDTH 21 0
BBX 21 19 0 0
BITMAP
001E00
003C00
007000
00E000
000000
000000
F0F878
70F870
70F870
78D8F0
39DCE0
39DCE0
3D9DE0
3D8DE0
1F8FC0
1F8FC0
1F8FC0
0F0780
0F0780
ENDCHAR
STARTCHAR Wdieresis
ENCODING 7812
SWIDTH 966 0
DWIDTH 23 0
BBX 23 22 0 0
BITMAP
00E700
00E700
00E700
000000
000000
F0381E
F07C1E
707C1C
707C1C
786C3C
78EE3C
38EE38
38EE38
3CEE78
3DC778
1DC770
1DC770
1DC770
1F83F0
0F83E0
0F83E0
0F83E0
ENDCHAR
STARTCHAR wdieresis
ENCODING 7813
SWIDTH 855 0
DWIDTH 21 0
BBX 21 18 0 0
BITMAP
018C00
03DE00
018C00
000000
000000
F0F878
70F870
70F870
78D8F0
39DCE0
39DCE0
3D9DE0
3D8DE0
1F8FC0
1F8FC0
1F8FC0
0F0780
0F0780
ENDCHAR
STARTCHAR uni1EA0
ENCODING 7840
SWIDTH 689 0
DWIDTH 17 0
BBX 17 22 0 -5
BITMAP
03E000
03E000
07F000
077000
077000
0F7800
0E3800
1E3800
1E3C00
1C1C00
3FFE00
3FFE00
3FFE00
780F00
780F00
700700
F00780
000000
000000
01C000
03C000
03C000
ENDCHAR
STARTCHAR uni1EA1
ENCODING 7841
SWIDTH 604 0
DWIDTH 15 0
BBX 12 19 1 -6
BITMAP
1FC0
7FE0
3FF0
30F0
0070
1FF0
7FF0
F870
F070
F0F0
FFF0
7F70
3E30
0000
0000
0E00
0F00
0F00
0400
ENDCHAR
STARTCHAR uni1EA2
ENCODING 7842
SWIDTH 689 0
DWIDTH 17 0
BBX 17 24 0 0
BITMAP
03C000
03E000
00E000
00E000
01C000
018000
000000
03E000
03E000
07F000
077000
077000
0F7800
0E3800
1E3800
1E3C00
1C1C00
3FFE00
3FFE00
3FFE00
780F00
780F00
700700
F00780
ENDCHAR
STARTCHAR uni1EA3
ENCODING 7843
SWIDTH 604 0
DWIDTH 15 0
BBX 12 20 1 0
BITMAP
0F00
0F80
0380
0380
0700
0600
0000
1FC0
7FE0
3FF0
30F0
0070
1FF0
7FF0
F870
F070
F0F0
FFF0
7F70
3E30
ENDCHAR
STARTCHAR uni1EA4
ENCODING 7844
SWIDTH 689 0
DWIDTH 17 0
BBX 17 25 0 0
BITMAP
000700
000E00
03CC00
07E000
067000
0C3800
000000
000000
03E000
03E000
07F000
077000
077000
0F7800
0E3800
1E3800
1E3C00
1C1C00
3FFE00
3FFE00
3FFE00
780F00
780F00
700700
F00780
ENDCHAR
STARTCHAR uni1EA5
ENCODING 7845
SWIDTH 604 0
DWIDTH 15 0
BBX 14 21 1 0
BITMAP
001C
0038
0F30
1F80
19C0
30C0
0000
0000
1FC0
7FE0
3FF0
30F0
0070
1FF0
7FF0
F870
F070
F0F0
FFF0
7F70
3E30
ENDCHAR
STARTCHAR uni1EA6
ENCODING 7846
SWIDTH 689 0
DWIDTH 17 0
BBX 17 25 0 0
BITMAP
700000
700000
1BC000
07E000
077000
0C3800
000000
000000
03E000
03E000
07F000
077000
077000
0F7800
0E3800
1E3800
1E3C00
1C1C00
3FFE00
3FFE00
3FFE00
780F00
780F00
700700
F00780
ENDCHAR
STARTCHAR uni1EA7
ENCODING 7847
SWIDTH 604 0
DWIDTH 15 0
BBX 13 21 0 0
BITMAP
E000
E000
3780
0FC0
0CE0
1870
0000
0000
0FE0
3FF0
1FF8
1878
0038
0FF8
3FF8
7C38
7838
7878
7FF8
3FB8
1F18
ENDCHAR
STARTCHAR uni1EA8
ENCODING 7848
SWIDTH 689 0
DWIDTH 17 0
BBX 17 25 0 0
BITMAP
001C00
001600
03C600
07EC00
067000
0C3800
000000
000000
03E000
03E000
07F000
077000
077000
0F7800
0E3800
1E3800
1E3C00
1C1C00
3FFE00
3FFE00
3FFE00
780F00
780F00
700700
F00780
ENDCHAR
STARTCHAR uni1EA9
ENCODING 7849
SWIDTH 604 0
DWIDTH 15 0
BBX 13 21 1 0
BITMAP
0070
0058
0F18
1FA0
19C0
30E0
0000
0000
1FC0
7FE0
3FF0
30F0
0070
1FF0
7FF0
F870
F070
F0F0
FFF0
7F70
3E30
ENDCHAR
STARTCHAR uni1EAA
ENCODING 7850
SWIDTH 689 0
DWIDTH 17 0
BBX 17 25 0 0
BITMAP
071000
07F000
0CE000
03C000
07E000
0E3000
000000
000000
03E000
03E000
07F000
077000
077000
0F7800
0E3800
1E3800
1E3C00
1C1C00
3FFE00
3FFE00
3FFE00
780F00
780F00
700700
F00780
ENDCHAR
STARTCHAR uni1EAB
ENCODING 7851
SWIDTH 604 0
DWIDTH 15 0
BBX 12 21 1 0
BITMAP
1C40
1FC0
3380
0F00
1F80
38C0
0000
0000
1FC0
7FE0
3FF0
30F0
0070
1FF0
7FF0
F870
F070
F0F0
FFF0
7F70
3E30
ENDCHAR
STARTCHAR uni1EAC
ENCODING 7852
SWIDTH 689 0
DWIDTH 17 0
BBX 17 28 0 -5
BITMAP
03E000
07F000
0F7800
0C3800
000000
000000
03E000
03E000
07F000
077000
077000
0F7800
0E3800
1E3800
1E3C00
1C1C00
3FFE00
3FFE00
3FFE00
780F00
780F00
700700
F00780
000000
000000
01C000
03C000
03C000
ENDCHAR
STARTCHAR uni1EAD
ENCODING 7853
SWIDTH 604 0
DWIDTH 15 0
BBX 12 24 1 -5
BITMAP
0F80
1FC0
3DC0
70E0
0000
0000
1FC0
7FE0
3FF0
30F0
0070
1FF0
7FF0
F870
F070
F0F0
FFF0
7F70
3E30
0000
0000
0E00
0F00
0F00
ENDCHAR
STARTCHAR uni1EAE
ENCODING 7854
SWIDTH 689 0
DWIDTH 17 0
BBX 17 25 0 0
BITMAP
00E000
00C000
0D9000
0E3000
07F000
03E000
000000
000000
03E000
03E000
07F000
077000
077000
0F7800
0E3800
1E3800
1E3C00
1C1C00
3FFE00
3FFE00
3FFE00
780F00
780F00
700700
F00780
ENDCHAR
STARTCHAR uni1EAF
ENCODING 7855
SWIDTH 604 0
DWIDTH 15 0
BBX 12 21 1 0
BITMAP
0380
0300
3640
30C0
1FC0
0F00
0000
0000
1FC0
7FE0
3FF0
30F0
0070
1FF0
7FF0
F870
F070
F0F0
FFF0
7F70
3E30
ENDCHAR
STARTCHAR uni1EB0
ENCODING 7856
SWIDTH 689 0
DWIDTH 17 0
BBX 17 25 0 0
BITMAP
030000
018000
0D9000
0E3000
07F000
03E000
000000
000000
03E000
03E000
07F000
077000
077000
0F7800
0E3800
1E3800
1E3C00
1C1C00
3FFE00
3FFE00
3FFE00
780F00
780F00
700700
F00780
ENDCHAR
STARTCHAR uni1EB1
ENCODING 7857
SWIDTH 604 0
DWIDTH 15 0
BBX 12 21 1 0
BITMAP
0C00
0E00
3640
38C0
1FC0
0F00
0000
0000
1FC0
7FE0
3FF0
30F0
0070
1FF0
7FF0
F870
F070
F0F0
FFF0
7F70
3E30
ENDCHAR
STARTCHAR uni1EB2
ENCODING 7858
SWIDTH 689 0
DWIDTH 17 0
BBX 17 26 0 0
BITMAP
01C000
00C000
01C000
0D9000
0E3000
07F000
03E000
000000
000000
03E000
03E000
07F000
077000
077000
0F7800
0E3800
1E3800
1E3C00
1C1C00
3FFE00
3FFE00
3FFE00
780F00
780F00
700700
F00780
ENDCHAR
STARTCHAR uni1EB3
ENCODING 7859
SWIDTH 604 0
DWIDTH 15 0
BBX 12 22 1 0
BITMAP
0600
0300
0700
3640
38C0
1FC0
0F80
0000
0000
1FC0
7FE0
3FF0
30F0
0070
1FF0
7FF0
F870
F070
F0F0
FFF0
7F70
3E30
ENDCHAR
STARTCHAR uni1EB4
ENCODING 7860
SWIDTH 689 0
DWIDTH 17 0
BBX 17 26 0 0
BITMAP
071000
07F000
0C6000
000000
0C3000
07F000
03E000
000000
000000
03E000
03E000
07F000
077000
077000
0F7800
0E3800
1E3800
1E3C00
1C1C00
3FFE00
3FFE00
3FFE00
780F00
780F00
700700
F00780
ENDCHAR
STARTCHAR uni1EB5
ENCODING 7861
SWIDTH 604 0
DWIDTH 15 0
BBX 12 22 1 0
BITMAP
1C40
1FC0
3180
0000
30C0
1FC0
0F80
0000
0000
1FC0
7FE0
3FF0
30F0
0070
1FF0
7FF0
F870
F070
F0F0
FFF0
7F70
3E30
ENDCHAR
STARTCHAR uni1EB6
ENCODING 7862
SWIDTH 689 0
DWIDTH 17 0
BBX 16 27 0 -5
BITMAP
0C38
0FF0
07E0
0000
0000
03E0
07E0
07E0
0770
0F70
0E78
0E78
1E38
1C3C
1C3C
3FFC
3FFE
3FFE
780E
780F
700F
F00F
0000
0000
03C0
03C0
01C0
ENDCHAR
STARTCHAR uni1EB7
ENCODING 7863
SWIDTH 604 0
DWIDTH 15 0
BBX 12 25 1 -6
BITMAP
3060
3FE0
1FC0
0F80
0000
0000
1FC0
7FE0
3FF0
30F0
0070
1FF0
7FF0
F870
F070
F0F0
FFF0
7F70
3E30
0000
0000
0E00
0F00
0F00
0400
ENDCHAR
STARTCHAR uni1EB8
ENCODING 7864
SWIDTH 560 0
DWIDTH 13 0
BBX 10 22 2 -5
BITMAP
FFC0
FFC0
FFC0
F000
F000
F000
F000
FF80
FF80
FF80
F000
F000
F000
F000
FFC0
FFC0
FFC0
0000
0000
0E00
1E00
1E00
ENDCHAR
STARTCHAR uni1EB9
ENCODING 7865
SWIDTH 590 0
DWIDTH 14 0
BBX 12 18 1 -5
BITMAP
1F80
3FE0
78E0
70F0
F070
FFF0
FFF0
F000
F000
7820
7FE0
3FE0
0FC0
0000
0000
0700
0F00
0F00
ENDCHAR
STARTCHAR uni1EBA
ENCODING 7866
SWIDTH 560 0
DWIDTH 13 0
BBX 10 24 2 0
BITMAP
1E00
1F00
0700
0700
0E00
0C00
0000
FFC0
FFC0
FFC0
F000
F000
F000
F000
FF80
FF80
FF80
F000
F000
F000
F000
FFC0
FFC0
FFC0
ENDCHAR
STARTCHAR uni1EBB
ENCODING 7867
SWIDTH 590 0
DWIDTH 14 0
BBX 12 20 1 0
BITMAP
0F00
0F80
0380
0380
0780
0600
0000
1F80
3FE0
78E0
70F0
F070
FFF0
FFF0
F000
F000
7820
7FE0
3FE0
0FC0
ENDCHAR
STARTCHAR uni1EBC
ENCODING 7868
SWIDTH 560 0
DWIDTH 13 0
BBX 10 23 2 0
BITMAP
38C0
7FC0
6F80
C780
0000
0000
FFC0
FFC0
FFC0
F000
F000
F000
F000
FF80
FF80
FF80
F000
F000
F000
F000
FFC0
FFC0
FFC0
ENDCHAR
STARTCHAR uni1EBD
ENCODING 7869
SWIDTH 590 0
DWIDTH 14 0
BBX 12 19 1 0
BITMAP
1C60
3FE0
37E0
21C0
0000
0000
1F80
3FE0
78E0
70F0
F070
FFF0
FFF0
F000
F000
7820
7FE0
3FE0
0FC0
ENDCHAR
STARTCHAR uni1EBE
ENCODING 7870
SWIDTH 560 0
DWIDTH 13 0
BBX 13 25 2 0
BITMAP
0038
0070
1E60
3F00
3380
6180
0000
0000
FFC0
FFC0
FFC0
F000
F000
F000
F000
FF80
FF80
FF80
F000
F000
F000
F000
FFC0
FFC0
FFC0
ENDCHAR
STARTCHAR uni1EBF
ENCODING 7871
SWIDTH 590 0
DWIDTH 14 0
BBX 14 21 1 0
BITMAP
001C
0038
0F30
1F80
19C0
30E0
0000
0000
1F80
3FE0
78E0
70F0
F070
FFF0
FFF0
F000
F000
7820
7FE0
3FE0
0FC0
ENDCHAR
STARTCHAR uni1EC0
ENCODING 7872
SWIDTH 560 0
DWIDTH 13 0
BBX 12 25 0 0
BITMAP
C000
E000
7780
0FC0
0CE0
1860
0000
0000
3FF0
3FF0
3FF0
3C00
3C00
3C00
3C00
3FE0
3FE0
3FE0
3C00
3C00
3C00
3C00
3FF0
3FF0
3FF0
ENDCHAR
STARTCHAR uni1EC1
ENCODING 7873
SWIDTH 590 0
DWIDTH 14 0
BBX 13 21 0 0
BITMAP
E000
6000
37C0
07C0
0EE0
1C70
0000
0000
0FC0
1FF0
3C70
3878
7838
7FF8
7FF8
7800
7800
3C10
3FF0
1FF0
07E0
ENDCHAR
STARTCHAR uni1EC2
ENCODING 7874
SWIDTH 560 0
DWIDTH 13 0
BBX 12 25 2 0
BITMAP
00E0
00F0
1E30
3F40
3380
6180
0000
0000
FFC0
FFC0
FFC0
F000
F000
F000
F000
FF80
FF80
FF80
F000
F000
F000
F000
FFC0
FFC0
FFC0
ENDCHAR
STARTCHAR uni1EC3
ENCODING 7875
SWIDTH 590 0
DWIDTH 14 0
BBX 13 21 1 0
BITMAP
0070
0058
0F18
1FB0
19C0
30E0
0000
0000
1F80
3FE0
78E0
70F0
F070
FFF0
FFF0
F000
F000
7820
7FE0
3FE0
0FC0
ENDCHAR
STARTCHAR uni1EC4
ENCODING 7876
SWIDTH 560 0
DWIDTH 13 0
BBX 10 25 2 0
BITMAP
3880
7F80
6700
1E00
3F00
7180
0000
0000
FFC0
FFC0
FFC0
F000
F000
F000
F000
FF80
FF80
FF80
F000
F000
F000
F000
FFC0
FFC0
FFC0
ENDCHAR
STARTCHAR uni1EC5
ENCODING 7877
SWIDTH 590 0
DWIDTH 14 0
BBX 12 21 1 0
BITMAP
1C40
1FC0
3380
0F00
1F80
38C0
0000
0000
1F80
3FE0
78E0
70F0
F070
FFF0
FFF0
F000
F000
7820
7FE0
3FE0
0FC0
ENDCHAR
STARTCHAR uni1EC6
ENCODING 7878
SWIDTH 560 0
DWIDTH 13 0
BBX 10 28 2 -5
BITMAP
1F00
3F00
7B80
E1C0
0000
0000
FFC0
FFC0
FFC0
F000
F000
F000
F000
FF80
FF80
FF80
F000
F000
F000
F000
FFC0
FFC0
FFC0
0000
0000
0E00
1E00
1E00
ENDCHAR
STARTCHAR uni1EC7
ENCODING 7879
SWIDTH 590 0
DWIDTH 14 0
BBX 12 24 1 -5
BITMAP
0F80
1F80
3DC0
70E0
0000
0000
1F80
3FE0
78E0
70F0
F070
FFF0
FFF0
F000
F000
7820
7FE0
3FE0
0FC0
0000
0000
0700
0F00
0F00
ENDCHAR
STARTCHAR uni1EC8
ENCODING 7880
SWIDTH 331 0
DWIDTH 8 0
BBX 5 24 2 0
BITMAP
F0
F8
38
38
70
60
00
F0
F0
F0
F0
F0
F0
F0
F0
F0
F0
F0
F0
F0
F0
F0
F0
F0
ENDCHAR
STARTCHAR uni1EC9
ENCODING 7881
SWIDTH 305 0
DWIDTH 7 0
BBX 6 20 1 0
BITMAP
F8
FC
1C
1C
78
30
00
70
70
70
70
70
70
70
70
70
70
70
70
70
ENDCHAR
STARTCHAR uni1ECA
ENCODING 7882
SWIDTH 331 0
DWIDTH 8 0
BBX 4 22 2 -5
BITMAP
F0
F0
F0
F0
F0
F0
F0
F0
F0
F0
F0
F0
F0
F0
F0
F0
F0
00
00
E0
F0
F0
ENDCHAR
STARTCHAR uni1ECB
ENCODING 7883
SWIDTH 305 0
DWIDTH 7 0
BBX 4 24 2 -6
BITMAP
E0
F0
F0
E0
00
E0
E0
E0
E0
E0
E0
E0
E0
E0
E0
E0
E0
E0
00
00
E0
F0
E0
40
ENDCHAR
STARTCHAR uni1ECC
ENCODING 7884
SWIDTH 795 0
DWIDTH 19 0
BBX 17 23 1 -6
BITMAP
07F000
1FFC00
3FFE00
7C1E00
780F00
780F00
700700
F00780
F00780
F00780
700700
780F00
780F00
3C1E00
3FFE00
1FFC00
07F000
000000
000000
01C000
01C000
01C000
008000
ENDCHAR
STARTCHAR uni1ECD
ENCODING 7885
SWIDTH 619 0
DWIDTH 15 0
BBX 13 18 1 -5
BITMAP
0F80
3FE0
7FF0
78F0
F078
F078
F078
F078
F078
78F0
7FF0
3FE0
0F80
0000
0000
0700
0F00
0700
ENDCHAR
STARTCHAR uni1ECE
ENCODING 7886
SWIDTH 795 0
DWIDTH 19 0
BBX 17 24 1 0
BITMAP
03C000
03E000
007000
006000
01E000
01C000
000000
07F000
1FFC00
3FFE00
7C1E00
780F00
780F00
700700
F00780
F00780
F00780
700700
780F00
780F00
3C1E00
3FFE00
1FFC00
07F000
ENDCHAR
STARTCHAR uni1ECF
ENCODING 7887
SWIDTH 619 0
DWIDTH 15 0
BBX 13 20 1 0
BITMAP
0F00
0F80
0380
0380
0780
0600
0000
0F80
3FE0
7FF0
78F0
F078
F078
F078
F078
F078
78F0
7FF0
3FE0
0F80
ENDCHAR
STARTCHAR uni1ED0
ENCODING 7888
SWIDTH 795 0
DWIDTH 19 0
BBX 17 25 1 0
BITMAP
000700
000600
03EC00
03E000
077000
0E3800
000000
000000
07F000
1FFC00
3FFE00
7C1E00
780F00
780F00
700700
F00780
F00780
F00780
700700
780F00
780F00
3C1E00
3FFE00
1FFC00
07F000
ENDCHAR
STARTCHAR uni1ED1
ENCODING 7889
SWIDTH 619 0
DWIDTH 15 0
BBX 14 21 1 0
BITMAP
001C
0038
0FB0
0F80
1DC0
30E0
0000
0000
0F80
3FE0
7FF0
78F0
F078
F078
F078
F078
F078
78F0
7FF0
3FE0
0F80
ENDCHAR
STARTCHAR uni1ED2
ENCODING 7890
SWIDTH 795 0
DWIDTH 19 0
BBX 17 25 1 0
BITMAP
700000
300000
1BE000
03E000
077000
0E3800
000000
000000
07F000
1FFC00
3FFE00
7C1E00
780F00
780F00
700700
F00780
F00780
F00780
700700
780F00
780F00
3C1E00
3FFE00
1FFC00
07F000
ENDCHAR
STARTCHAR uni1ED3
ENCODING 7891
SWIDTH 619 0
DWIDTH 15 0
BBX 14 21 0 0
BITMAP
E000
6000
37C0
07C0
0EE0
1C70
0000
0000
07C0
1FF0
3FF8
3C78
783C
783C
783C
783C
783C
3C78
3FF8
1FF0
07C0
ENDCHAR
STARTCHAR uni1ED4
ENCODING 7892
SWIDTH 795 0
DWIDTH 19 0
BBX 17 25 1 0
BITMAP
000E00
000600
03E600
03EC00
077000
0E3800
000000
000000
07F000
1FFC00
3FFE00
7C1E00
780F00
780F00
700700
F00780
F00780
F00780
700700
780F00
780F00
3C1E00
3FFE00
1FFC00
07F000
ENDCHAR
STARTCHAR uni1ED5
ENCODING 7893
SWIDTH 619 0
DWIDTH 15 0
BBX 13 21 1 0
BITMAP
0030
0018
0F98
0FB0
1DC0
30E0
0000
0000
0F80
3FE0
7FF0
78F0
F078
F078
F078
F078
F078
78F0
7FF0
3FE0
0F80
ENDCHAR
STARTCHAR uni1ED6
ENCODING 7894
SWIDTH 795 0
DWIDTH 19 0
BBX 17 25 1 0
BITMAP
031000
07F000
047000
03E000
07F000
0E3800
000000
000000
07F000
1FFC00
3FFE00
7C1E00
780F00
780F00
700700
F00780
F00780
F00780
700700
780F00
780F00
3C1E00
3FFE00
1FFC00
07F000
ENDCHAR
STARTCHAR uni1ED7
ENCODING 7895
SWIDTH 619 0
DWIDTH 15 0
BBX 13 21 1 0
BITMAP
1C40
1FC0
3380
0F00
1F80
38E0
0000
0000
0F80
3FE0
7FF0
78F0
F078
F078
F078
F078
F078
78F0
7FF0
3FE0
0F80
ENDCHAR
STARTCHAR uni1ED8
ENCODING 7896
SWIDTH 795 0
DWIDTH 19 0
BBX 17 29 1 -6
BITMAP
03E000
03F000
077800
0E1C00
000000
000000
07F000
1FFC00
3FFE00
7C1E00
780F00
780F00
700700
F00780
F00780
F00780
700700
780F00
780F00
3C1E00
3FFE00
1FFC00
07F000
000000
000000
01C000
01C000
01C000
008000
ENDCHAR
STARTCHAR uni1ED9
ENCODING 7897
SWIDTH 619 0
DWIDTH 15 0
BBX 13 24 1 -5
BITMAP
0F80
1FC0
1DE0
3870
0000
0000
0F80
3FE0
7FF0
78F0
F078
F078
F078
F078
F078
78F0
7FF0
3FE0
0F80
0000
0000
0700
0F00
0700
ENDCHAR
STARTCHAR uni1EDA
ENCODING 7898
SWIDTH 825 0
DWIDTH 20 0
BBX 19 23 1 0
BITMAP
007800
00F000
01E000
038000
000000
0000E0
07F0E0
1FFDE0
3FFFC0
7C1F80
780F00
780F00
700700
F00780
F00780
F00780
700700
780F00
780F00
3C1E00
3FFE00
1FFC00
07F000
ENDCHAR
STARTCHAR uni1EDB
ENCODING 7899
SWIDTH 679 0
DWIDTH 16 0
BBX 17 19 1 0
BITMAP
01E000
03C000
078000
060000
000780
000700
0F8F00
3FFE00
7FFC00
78F000
F07800
F07800
F07800
F07800
F07800
78F000
7FF000
3FE000
0F8000
ENDCHAR
STARTCHAR uni1EDC
ENCODING 7900
SWIDTH 825 0
DWIDTH 20 0
BBX 19 23 1 0
BITMAP
078000
038000
01C000
00E000
000000
0000E0
07F0E0
1FFDE0
3FFFC0
7C1F80
780F00
780F00
700700
F00780
F00780
F00780
700700
780F00
780F00
3C1E00
3FFE00
1FFC00
07F000
ENDCHAR
STARTCHAR uni1EDD
ENCODING 7901
SWIDTH 679 0
DWIDTH 16 0
BBX 17 19 1 0
BITMAP
3C0000
1E0000
070000
038000
000780
000700
0F8F00
3FFE00
7FFC00
78F000
F07800
F07800
F07800
F07800
F07800
78F000
7FF000
3FE000
0F8000
ENDCHAR
STARTCHAR uni1EDE
ENCODING 7902
SWIDTH 825 0
DWIDTH 20 0
BBX 19 24 1 0
BITMAP
03E000
03F000
007000
007000
00E000
00C000
0000E0
07F0E0
1FFDE0
3FFFC0
7C1F80
780F00
780F00
700700
F00780
F00780
F00780
700700
780F00
780F00
3C1E00
3FFE00
1FFC00
07F000
ENDCHAR
STARTCHAR uni1EDF
ENCODING 7903
SWIDTH 679 0
DWIDTH 16 0
BBX 17 20 1 0
BITMAP
0F0000
0F8000
01C000
018000
078000
070780
000700
0F8F00
3FFE00
7FFC00
78F000
F07800
F07800
F07800
F07800
F07800
78F000
7FF000
3FE000
0F8000
ENDCHAR
STARTCHAR uni1EE0
ENCODING 7904
SWIDTH 825 0
DWIDTH 20 0
BBX 19 23 1 0
BITMAP
070C00
07D800
0FF800
0C7000
000000
0000E0
07F0E0
1FFDE0
3FFFC0
7C1F80
780F00
780F00
700700
F00780
F00780
F00780
700700
780F00
780F00
3C1E00
3FFE00
1FFC00
07F000
ENDCHAR
STARTCHAR uni1EE1
ENCODING 7905
SWIDTH 679 0
DWIDTH 16 0
BBX 17 19 1 0
BITMAP
1C2000
3F6000
37E000
31C000
000780
000700
0F8F00
3FFE00
7FFC00
78F000
F07800
F07800
F07800
F07800
F07800
78F000
7FF000
3FE000
0F8000
ENDCHAR
STARTCHAR uni1EE2
ENCODING 7906
SWIDTH 825 0
DWIDTH 20 0
BBX 19 24 1 -6
BITMAP
0000E0
07F0E0
1FFDE0
3FFFC0
7C1F80
780F00
780F00
700700
F00780
F00780
F00780
700700
780F00
780F00
3C1E00
3FFE00
1FFC00
07F000
000000
000000
01C000
01E000
01C000
008000
ENDCHAR
STARTCHAR uni1EE3
ENCODING 7907
SWIDTH 679 0
DWIDTH 16 0
BBX 17 20 1 -5
BITMAP
000780
000700
0F8F00
3FFE00
7FFC00
78F000
F07800
F07800
F07800
F07800
F07800
78F000
7FF000
3FE000
0F8000
000000
000000
070000
070000
070000
ENDCHAR
STARTCHAR uni1EE4
ENCODING 7908
SWIDTH 755 0
DWIDTH 18 0
BBX 14 22 2 -5
BITMAP
F03C
F03C
F03C
F03C
F03C
F03C
F03C
F03C
F03C
F03C
F03C
F03C
F03C
7878
7FF8
3FF0
0FC0
0000
0000
0380
0780
0780
ENDCHAR
STARTCHAR uni1EE5
ENCODING 7909
SWIDTH 657 0
DWIDTH 16 0
BBX 12 19 2 -6
BITMAP
E070
E070
E070
E070
E070
E070
E070
E0F0
F0F0
F1F0
FFF0
7F70
3E70
0000
0000
0E00
0F00
0F00
0400
ENDCHAR
STARTCHAR uni1EE6
ENCODING 7910
SWIDTH 755 0
DWIDTH 18 0
BBX 14 24 2 0
BITMAP
0780
07C0
01C0
01C0
0380
0300
0000
F03C
F03C
F03C
F03C
F03C
F03C
F03C
F03C
F03C
F03C
F03C
F03C
F03C
7878
7FF8
3FF0
0FC0
ENDCHAR
STARTCHAR uni1EE7
ENCODING 7911
SWIDTH 657 0
DWIDTH 16 0
BBX 12 20 2 0
BITMAP
1F00
1F80
0380
0380
0700
0600
0000
E070
E070
E070
E070
E070
E070
E070
E0F0
F0F0
F1F0
FFF0
7F70
3E70
ENDCHAR
STARTCHAR uni1EE8
ENCODING 7912
SWIDTH 884 0
DWIDTH 21 0
BBX 19 23 2 0
BITMAP
00F000
01E000
03C000
070000
000000
0000E0
F03DE0
F03DE0
F03FC0
F03F00
F03C00
F03C00
F03C00
F03C00
F03C00
F03C00
F03C00
F03C00
F03C00
787800
7FF800
3FF000
0FC000
ENDCHAR
STARTCHAR uni1EE9
ENCODING 7913
SWIDTH 759 0
DWIDTH 18 0
BBX 18 19 2 0
BITMAP
03E000
038000
070000
0E0000
0003C0
000380
E07780
E07F00
E07C00
E07000
E07000
E07000
E07000
E0F000
F0F000
F1F000
FFF000
7F7000
3E7000
ENDCHAR
STARTCHAR uni1EEA
ENCODING 7914
SWIDTH 884 0
DWIDTH 21 0
BBX 19 23 2 0
BITMAP
1E0000
0E0000
070000
038000
000000
0000E0
F03DE0
F03DE0
F03FC0
F03F00
F03C00
F03C00
F03C00
F03C00
F03C00
F03C00
F03C00
F03C00
F03C00
787800
7FF800
3FF000
0FC000
ENDCHAR
STARTCHAR uni1EEB
ENCODING 7915
SWIDTH 759 0
DWIDTH 18 0
BBX 18 19 2 0
BITMAP
780000
3C0000
0E0000
070000
0003C0
000380
E07780
E07F00
E07C00
E07000
E07000
E07000
E07000
E0F000
F0F000
F1F000
FFF000
7F7000
3E7000
ENDCHAR
STARTCHAR uni1EEC
ENCODING 7916
SWIDTH 884 0
DWIDTH 21 0
BBX 19 24 2 0
BITMAP
078000
07C000
01C000
01C000
038000
030000
0000E0
F03DE0
F03DE0
F03FC0
F03F00
F03C00
F03C00
F03C00
F03C00
F03C00
F03C00
F03C00
F03C00
F03C00
787800
7FF800
3FF000
0FC000
ENDCHAR
STARTCHAR uni1EED
ENCODING 7917
SWIDTH 759 0
DWIDTH 18 0
BBX 18 20 2 0
BITMAP
0F0000
0F8000
038000
038000
070000
0603C0
000380
E07780
E07F00
E07C00
E07000
E07000
E07000
E07000
E0F000
F0F000
F1F000
FFF000
7F7000
3E7000
ENDCHAR
STARTCHAR uni1EEE
ENCODING 7918
SWIDTH 884 0
DWIDTH 21 0
BBX 19 23 2 0
BITMAP
0E3000
1FF000
1BE000
31C000
000000
0000E0
F03DE0
F03DE0
F03FC0
F03F00
F03C00
F03C00
F03C00
F03C00
F03C00
F03C00
F03C00
F03C00
F03C00
787800
7FF800
3FF000
0FC000
ENDCHAR
STARTCHAR uni1EEF
ENCODING 7919
SWIDTH 759 0
DWIDTH 18 0
BBX 18 19 2 0
BITMAP
1C6000
3EE000
77C000
638000
0003C0
000380
E07780
E07F00
E07C00
E07000
E07000
E07000
E07000
E0F000
F0F000
F1F000
FFF000
7F7000
3E7000
ENDCHAR
STARTCHAR uni1EF0
ENCODING 7920
SWIDTH 884 0
DWIDTH 21 0
BBX 19 23 2 -5
BITMAP
0000E0
F03DE0
F03DE0
F03FC0
F03F00
F03C00
F03C00
F03C00
F03C00
F03C00
F03C00
F03C00
F03C00
F03C00
787800
7FF800
3FF000
0FC000
000000
000000
070000
078000
078000
ENDCHAR
STARTCHAR uni1EF1
ENCODING 7921
SWIDTH 759 0
DWIDTH 18 0
BBX 18 21 2 -6
BITMAP
0003C0
000380
E07780
E07F00
E07C00
E07000
E07000
E07000
E07000
E0F000
F0F000
F1F000
FFF000
7F7000
3E7000
000000
000000
0E0000
0F0000
0F0000
040000
ENDCHAR
STARTCHAR Ygrave
ENCODING 7922
SWIDTH 624 0
DWIDTH 15 0
BBX 15 23 0 0
BITMAP
1E00
0F00
0700
0380
0000
0000
F01E
783C
783C
3C78
3C78
1EF0
0EE0
0FE0
07C0
07C0
0380
0380
0380
0380
0380
0380
0380
ENDCHAR
STARTCHAR ygrave
ENCODING 7923
SWIDTH 568 0
DWIDTH 14 0
BBX 14 25 0 -6
BITMAP
3E00
1E00
0700
0380
0000
0000
F03C
7038
7878
7878
3C70
3CF0
1CF0
1EE0
0FE0
0FC0
0FC0
07C0
0780
0780
0700
0F00
7E00
7E00
7800
ENDCHAR
STARTCHAR uni1EF4
ENCODING 7924
SWIDTH 624 0
DWIDTH 15 0
BBX 15 22 0 -5
BITMAP
F01E
783C
783C
3C78
3C78
1EF0
0EE0
0FE0
07C0
07C0
0380
0380
0380
0380
0380
0380
0380
0000
0000
0380
0380
0380
ENDCHAR
STARTCHAR uni1EF5
ENCODING 7925
SWIDTH 568 0
DWIDTH 14 0
BBX 14 19 0 -6
BITMAP
F03C
7038
7878
7878
3C70
3CF0
1CF0
1EE0
0FE0
0FC0
0FC0
07C0
0780
0780
0700
0F38
7E38
7E38
7810
ENDCHAR
STARTCHAR uni1EF6
ENCODING 7926
SWIDTH 624 0
DWIDTH 15 0
BBX 15 24 0 0
BITMAP
0780
07C0
00C0
01C0
03C0
0300
0000
F01E
783C
783C
3C78
3C78
1EF0
0EE0
0FE0
07C0
07C0
0380
0380
0380
0380
0380
0380
0380
ENDCHAR
STARTCHAR uni1EF7
ENCODING 7927
SWIDTH 568 0
DWIDTH 14 0
BBX 14 26 0 -6
BITMAP
0F80
0FC0
01C0
01C0
0380
0300
0000
F03C
7038
7878
7878
3C70
3CF0
1CF0
1EE0
0FE0
0FC0
0FC0
07C0
0780
0780
0700
0F00
7E00
7E00
7800
ENDCHAR
STARTCHAR uni1EF8
ENCODING 7928
SWIDTH 624 0
DWIDTH 15 0
BBX 15 23 0 0
BITMAP
0E10
1FB0
1BF0
18E0
0000
0000
F01E
783C
783C
3C78
3C78
1EF0
0EE0
0FE0
07C0
07C0
0380
0380
0380
0380
0380
0380
0380
ENDCHAR
STARTCHAR uni1EF9
ENCODING 7929
SWIDTH 568 0
DWIDTH 14 0
BBX 14 25 0 -6
BITMAP
0E30
1FF0
3BE0
31C0
0000
0000
F03C
7038
7878
7878
3C70
3CF0
1CF0
1EE0
0FE0
0FC0
0FC0
07C0
0780
0780
0700
0F00
7E00
7E00
7800
ENDCHAR
STARTCHAR uni1F4D
ENCODING 8013
SWIDTH 835 0
DWIDTH 20 0
BBX 24 17 -5 0
BITMAP
370FE0
473FF8
E67FFC
6CF83C
00F01E
00F01E
01E00E
01E00F
01E00F
01E00F
01E00E
00F01E
00F01E
00F83C
007FFC
003FF8
000FE0
ENDCHAR
STARTCHAR uni2000
ENCODING 8192
SWIDTH 500 0
DWIDTH 12 0
BBX 1 1 0 0
BITMAP
00
ENDCHAR
STARTCHAR uni2001
ENCODING 8193
SWIDTH 1000 0
DWIDTH 24 0
BBX 1 1 0 0
BITMAP
00
ENDCHAR
STARTCHAR uni2002
ENCODING 8194
SWIDTH 500 0
DWIDTH 12 0
BBX 1 1 0 0
BITMAP
00
ENDCHAR
STARTCHAR uni2003
ENCODING 8195
SWIDTH 1000 0
DWIDTH 24 0
BBX 1 1 0 0
BITMAP
00
ENDCHAR
STARTCHAR uni2004
ENCODING 8196
SWIDTH 333 0
DWIDTH 8 0
BBX 1 1 0 0
BITMAP
00
ENDCHAR
STARTCHAR uni2005
ENCODING 8197
SWIDTH 250 0
DWIDTH 6 0
BBX 1 1 0 0
BITMAP
00
ENDCHAR
STARTCHAR uni2006
ENCODING 8198
SWIDTH 166 0
DWIDTH 4 0
BBX 1 1 0 0
BITMAP
00
ENDCHAR
STARTCHAR uni2007
ENCODING 8199
SWIDTH 559 0
DWIDTH 13 0
BBX 1 1 0 0
BITMAP
00
ENDCHAR
STARTCHAR uni2008
ENCODING 8200
SWIDTH 285 0
DWIDTH 7 0
BBX 1 1 0 0
BITMAP
00
ENDCHAR
STARTCHAR uni2009
ENCODING 8201
SWIDTH 200 0
DWIDTH 5 0
BBX 1 1 0 0
BITMAP
00
ENDCHAR
STARTCHAR uni200A
ENCODING 8202
SWIDTH 100 0
DWIDTH 2 0
BBX 1 1 0 0
BITMAP
00
ENDCHAR
STARTCHAR uni200B
ENCODING 8203
SWIDTH 0 0
DWIDTH 0 0
BBX 1 1 0 0
BITMAP
00
ENDCHAR
STARTCHAR endash
ENCODING 8211
SWIDTH 500 0
DWIDTH 12 0
BBX 10 3 1 5
BITMAP
FFC0
FFC0
FFC0
ENDCHAR
STARTCHAR emdash
ENCODING 8212
SWIDTH 1000 0
DWIDTH 24 0
BBX 22 3 1 5
BITMAP
FFFFFC
FFFFFC
FFFFFC
ENDCHAR
STARTCHAR afii00208
ENCODING 8213
SWIDTH 1000 0
DWIDTH 24 0
BBX 22 3 1 5
BITMAP
FFFFFC
FFFFFC
FFFFFC
ENDCHAR
STARTCHAR underscoredbl
ENCODING 8215
SWIDTH 411 0
DWIDTH 10 0
BBX 10 5 0 -5
BITMAP
FFC0
FFC0
0000
FFC0
FFC0
ENDCHAR
STARTCHAR quoteleft
ENCODING 8216
SWIDTH 216 0
DWIDTH 5 0
BBX 5 6 0 11
BITMAP
38
70
70
70
F0
F0
ENDCHAR
STARTCHAR quoteright
ENCODING 8217
SWIDTH 216 0
DWIDTH 5 0
BBX 5 6 0 11
BITMAP
78
78
70
70
60
E0
ENDCHAR
STARTCHAR quotesinglbase
ENCODING 8218
SWIDTH 291 0
DWIDTH 7 0
BBX 4 6 1 -3
BITMAP
70
70
F0
E0
E0
E0
ENDCHAR
STARTCHAR quotereversed
ENCODING 8219
SWIDTH 215 0
DWIDTH 5 0
BBX 5 6 0 11
BITMAP
F0
F0
70
70
30
38
ENDCHAR
STARTCHAR quotedblleft
ENCODING 8220
SWIDTH 444 0
DWIDTH 11 0
BBX 10 6 1 11
BITMAP
39C0
3180
7380
7380
F780
F780
ENDCHAR
STARTCHAR quotedblright
ENCODING 8221
SWIDTH 444 0
DWIDTH 11 0
BBX 10 6 0 11
BITMAP
7BC0
7BC0
7380
7380
6300
E700
ENDCHAR
STARTCHAR quotedblbase
ENCODING 8222
SWIDTH 518 0
DWIDTH 12 0
BBX 9 6 1 -3
BITMAP
7380
7380
F780
E700
E700
E700
ENDCHAR
STARTCHAR dagger
ENCODING 8224
SWIDTH 516 0
DWIDTH 12 0
BBX 10 18 1 0
BITMAP
1E00
0C00
0C00
0C00
FFC0
FFC0
FFC0
0C00
0C00
0C00
0C00
0C00
0C00
0C00
1C00
1C00
1C00
1E00
ENDCHAR
STARTCHAR daggerdbl
ENCODING 8225
SWIDTH 525 0
DWIDTH 13 0
BBX 11 18 1 0
BITMAP
0E00
0E00
0E00
0E00
FFE0
FFE0
FDE0
0E00
0E00
0E00
0E00
FFE0
FFE0
FDE0
0E00
0E00
0E00
0E00
ENDCHAR
STARTCHAR bullet
ENCODING 8226
SWIDTH 375 0
DWIDTH 9 0
BBX 7 7 1 5
BITMAP
3C
7C
FE
FE
FE
7C
7C
ENDCHAR
STARTCHAR ellipsis
ENCODING 8230
SWIDTH 854 0
DWIDTH 21 0
BBX 18 4 1 0
BITMAP
70E1C0
F1E3C0
F1E3C0
70E1C0
ENDCHAR
STARTCHAR perthousand
ENCODING 8240
SWIDTH 1280 0
DWIDTH 31 0
BBX 29 17 1 0
BITMAP
3C070000
7E060000
FE0E0000
E71C0000
E71C0000
E7380000
E73BC1E0
E777E3F0
FE67F3F8
7EEE7738
3DCE7738
01CE7738
038E7738
030E7738
0707F3F8
0E07E3F0
0E03C1E0
ENDCHAR
STARTCHAR minute
ENCODING 8242
SWIDTH 266 0
DWIDTH 6 0
BBX 3 6 2 11
BITMAP
E0
E0
E0
E0
C0
C0
ENDCHAR
STARTCHAR second
ENCODING 8243
SWIDTH 472 0
DWIDTH 11 0
BBX 8 6 2 11
BITMAP
E7
E7
E7
E7
C6
C6
ENDCHAR
STARTCHAR guilsinglleft
ENCODING 8249
SWIDTH 368 0
DWIDTH 9 0
BBX 7 11 1 1
BITMAP
08
1E
3C
38
78
F0
78
38
3C
1E
08
ENDCHAR
STARTCHAR guilsinglright
ENCODING 8250
SWIDTH 368 0
DWIDTH 9 0
BBX 7 11 1 1
BITMAP
20
F0
78
38
3C
1E
3C
38
78
F0
20
ENDCHAR
STARTCHAR exclamdbl
ENCODING 8252
SWIDTH 569 0
DWIDTH 14 0
BBX 11 17 1 0
BITMAP
F1E0
71E0
71E0
71E0
70E0
70E0
70E0
70E0
70E0
70E0
70E0
0000
0000
70E0
F1E0
F1E0
70E0
ENDCHAR
STARTCHAR fraction
ENCODING 8260
SWIDTH 129 0
DWIDTH 3 0
BBX 11 17 -4 0
BITMAP
0060
00E0
01C0
01C0
0380
0380
0700
0700
0E00
0C00
1C00
3800
3800
7000
7000
E000
C000
ENDCHAR
STARTCHAR zerosuperior
ENCODING 8304
SWIDTH 378 0
DWIDTH 9 0
BBX 9 10 0 7
BITMAP
3E00
7F00
7700
7700
E380
E380
7700
7700
7F00
3E00
ENDCHAR
STARTCHAR foursuperior
ENCODING 8308
SWIDTH 378 0
DWIDTH 9 0
BBX 9 10 0 7
BITMAP
0E00
1E00
1E00
3600
6600
6600
FF80
FF80
0600
0600
ENDCHAR
STARTCHAR fivesuperior
ENCODING 8309
SWIDTH 378 0
DWIDTH 9 0
BBX 7 10 1 7
BITMAP
FE
FE
C0
FC
FE
0E
06
8E
FE
FC
ENDCHAR
STARTCHAR sixsuperior
ENCODING 8310
SWIDTH 378 0
DWIDTH 9 0
BBX 7 10 1 7
BITMAP
0C
3C
78
E0
FC
FE
C6
C6
FE
7C
ENDCHAR
STARTCHAR sevensuperior
ENCODING 8311
SWIDTH 378 0
DWIDTH 9 0
BBX 7 10 1 7
BITMAP
FE
FE
06
0E
0C
1C
18
38
30
70
ENDCHAR
STARTCHAR eightsuperior
ENCODING 8312
SWIDTH 378 0
DWIDTH 9 0
BBX 7 10 1 7
BITMAP
7C
FE
EE
EE
7C
FE
CE
C6
FE
7C
ENDCHAR
STARTCHAR ninesuperior
ENCODING 8313
SWIDTH 378 0
DWIDTH 9 0
BBX 7 10 1 7
BITMAP
78
FE
CE
C6
FE
76
0E
0E
FC
F8
ENDCHAR
STARTCHAR nsuperior
ENCODING 8319
SWIDTH 422 0
DWIDTH 10 0
BBX 8 8 1 9
BITMAP
DE
FF
E7
E3
E3
E3
E3
E3
ENDCHAR
STARTCHAR franc
ENCODING 8355
SWIDTH 570 0
DWIDTH 14 0
BBX 13 17 0 0
BITMAP
3FF8
3FF8
3FF8
3C00
3C00
3C00
3C00
3FF0
3FF0
3FF0
3C00
3C00
FFC0
FFC0
3C00
3C00
3C00
ENDCHAR
STARTCHAR afii08941
ENCODING 8356
SWIDTH 570 0
DWIDTH 14 0
BBX 13 17 1 0
BITMAP
07E0
1FF0
1FE0
3C20
3C00
3C00
FFC0
FFC0
3C00
FFC0
FFC0
3C00
3800
7800
FFF8
FFF8
FFF8
ENDCHAR
STARTCHAR peseta
ENCODING 8359
SWIDTH 892 0
DWIDTH 21 0
BBX 18 17 2 0
BITMAP
FF0000
FF8000
FFC000
F3E000
F1E600
F1E600
F1EE00
F3CFC0
FFFFC0
FFBFC0
FE0E00
F00E00
F00E00
F00E00
F00FC0
F00FC0
F007C0
ENDCHAR
STARTCHAR uni20AB
ENCODING 8363
SWIDTH 648 0
DWIDTH 16 0
BBX 15 22 1 -4
BITMAP
0078
0078
07FE
07FE
0078
0078
1F78
7FF8
7FF8
F8F8
F078
F078
F078
F078
F8F8
7FF8
7FF8
1E38
0000
0000
7FF0
7FF0
ENDCHAR
STARTCHAR Euro
ENCODING 8364
SWIDTH 570 0
DWIDTH 14 0
BBX 13 17 1 0
BITMAP
03F0
0FF8
1FF0
3E10
3800
7800
FFC0
FFC0
7800
FF80
FF80
7800
3800
3E00
1FF0
0FF0
03F0
ENDCHAR
STARTCHAR afii61248
ENCODING 8453
SWIDTH 794 0
DWIDTH 19 0
BBX 17 17 1 0
BITMAP
3C1C00
FC1800
E03800
C03000
C07000
E0E000
FCE000
3DC000
01DE00
03BF00
033380
077180
067180
0E7180
1C3380
1C3F00
381E00
ENDCHAR
STARTCHAR afii61289
ENCODING 8467
SWIDTH 520 0
DWIDTH 12 0
BBX 11 17 0 0
BITMAP
0F80
1FC0
1DE0
1CE0
1CE0
1CE0
1DC0
1FC0
1F80
7E00
FC00
DC00
1C00
1C60
1FE0
1FC0
0F80
ENDCHAR
STARTCHAR afii61352
ENCODING 8470
SWIDTH 1027 0
DWIDTH 25 0
BBX 22 17 2 0
BITMAP
F03800
F03800
F83800
F83800
FC3800
DC38F0
FE39F8
EE3B9C
E73B8C
E73B8C
E3BB8C
E3BB9C
E1F9F8
E1F8F0
E0F800
E0FBFC
E07BFC
ENDCHAR
STARTCHAR uni2120
ENCODING 8480
SWIDTH 734 0
DWIDTH 18 0
BBX 16 8 1 9
BITMAP
7B87
FBC7
C3CF
E34B
3B7B
1B7B
FB33
F333
ENDCHAR
STARTCHAR trademark
ENCODING 8482
SWIDTH 749 0
DWIDTH 18 0
BBX 17 8 0 9
BITMAP
FFC380
FFE380
31E780
31A580
31B580
31BD80
319980
319980
ENDCHAR
STARTCHAR Omega
ENCODING 8486
SWIDTH 786 0
DWIDTH 19 0
BBX 17 17 1 0
BITMAP
07F000
1FFC00
3FFE00
7C1F00
780F00
F00780
F00780
F00780
F00780
700700
700700
780F00
381E00
1E3C00
FE3F80
FE3F80
FE3F80
ENDCHAR
STARTCHAR estimated
ENCODING 8494
SWIDTH 619 0
DWIDTH 15 0
BBX 13 13 1 0
BITMAP
0F80
3060
6030
6030
E038
FFF8
E000
E000
E000
6010
6020
3040
0F80
ENDCHAR
STARTCHAR oneeighth
ENCODING 8539
SWIDTH 880 0
DWIDTH 21 0
BBX 19 17 1 0
BITMAP
380E00
781C00
F81800
D83800
187000
187000
18E000
18E780
19CFC0
199CE0
038FC0
030F80
070FC0
0E1CE0
0E1CE0
1C1FE0
1C0F80
ENDCHAR
STARTCHAR threeeighths
ENCODING 8540
SWIDTH 880 0
DWIDTH 21 0
BBX 19 17 1 0
BITMAP
780600
FC0E00
4E1C00
0C1C00
783800
7C3800
0E7000
8E67C0
FEEFE0
FDCCE0
01CEE0
0387C0
038FE0
070CE0
071C60
0E0FE0
0C07C0
ENDCHAR
STARTCHAR fiveeighths
ENCODING 8541
SWIDTH 880 0
DWIDTH 21 0
BBX 19 17 1 0
BITMAP
7E0600
FE0E00
C01C00
FC1C00
FE3800
063800
067000
8E67C0
FEEFE0
FDCCE0
01CEE0
0387C0
038FE0
070CE0
071C60
0E0FE0
0C07C0
ENDCHAR
STARTCHAR seveneighths
ENCODING 8542
SWIDTH 880 0
DWIDTH 21 0
BBX 19 17 1 0
BITMAP
FF1C00
FF1C00
063800
0E3800
0C7000
1C6000
18E000
38CF80
39DFC0
739CC0
039DC0
070F80
070FC0
0E1CE0
0C18E0
1C1FC0
180F80
ENDCHAR
STARTCHAR partialdiff
ENCODING 8706
SWIDTH 581 0
DWIDTH 14 0
BBX 12 17 1 0
BITMAP
0F80
1FE0
1FE0
10F0
00F0
0FF0
3FF0
7FF0
78F0
F0F0
F0F0
F1E0
E1E0
F3C0
FFC0
7F80
3E00
ENDCHAR
STARTCHAR Delta
ENCODING 8710
SWIDTH 658 0
DWIDTH 16 0
BBX 14 17 1 0
BITMAP
0780
0FC0
0FC0
0FC0
1FE0
1CE0
1CE0
3CF0
3870
3870
7878
7038
7038
F03C
FFFC
FFFC
FFFC
ENDCHAR
STARTCHAR product
ENCODING 8719
SWIDTH 741 0
DWIDTH 18 0
BBX 14 22 2 -5
BITMAP
FFFC
FFFC
FFFC
F03C
F03C
F03C
F03C
F03C
F03C
F03C
F03C
F03C
F03C
F03C
F03C
F03C
F03C
F03C
F03C
F03C
F03C
F03C
ENDCHAR
STARTCHAR summation
ENCODING 8721
SWIDTH 630 0
DWIDTH 15 0
BBX 15 22 0 -5
BITMAP
7FFC
7FFC
7FFC
3C00
1E00
1E00
0F00
0780
03C0
03C0
01E0
03C0
03C0
0780
0F00
0F00
1E00
3C00
7C00
7FFE
FFFE
FFFE
ENDCHAR
STARTCHAR minus
ENCODING 8722
SWIDTH 570 0
DWIDTH 14 0
BBX 12 3 1 7
BITMAP
FFF0
FFF0
FFF0
ENDCHAR
STARTCHAR radical
ENCODING 8730
SWIDTH 548 0
DWIDTH 13 0
BBX 15 21 0 0
BITMAP
000E
000C
001C
001C
0018
0038
0038
0030
0070
0070
F060
F8E0
F8E0
18C0
1DC0
0DC0
0F80
0F80
0780
0700
0700
ENDCHAR
STARTCHAR infinity
ENCODING 8734
SWIDTH 707 0
DWIDTH 17 0
BBX 15 8 1 4
BITMAP
3C78
7EFC
77FC
E38E
E38E
7FFC
7EFC
3C78
ENDCHAR
STARTCHAR integral
ENCODING 8747
SWIDTH 412 0
DWIDTH 10 0
BBX 10 24 0 -6
BITMAP
07C0
0FC0
1FC0
1E00
1E00
1E00
1E00
1E00
1E00
1E00
1E00
1E00
1E00
1E00
1E00
1E00
1E00
1E00
1E00
1E00
1E00
FC00
FC00
F800
ENDCHAR
STARTCHAR approxequal
ENCODING 8776
SWIDTH 570 0
DWIDTH 14 0
BBX 12 9 1 3
BITMAP
7C10
FFF0
FFF0
83E0
0000
7C10
FFF0
FFF0
83E0
ENDCHAR
STARTCHAR notequal
ENCODING 8800
SWIDTH 570 0
DWIDTH 14 0
BBX 12 14 1 1
BITMAP
01C0
01C0
0380
FFF0
FFF0
FFF0
0700
0E00
FFF0
FFF0
FFF0
3800
3800
1000
ENDCHAR
STARTCHAR lessequal
ENCODING 8804
SWIDTH 570 0
DWIDTH 14 0
BBX 12 16 1 0
BITMAP
0010
0070
01F0
07C0
1F00
7C00
F000
FC00
3F00
0FC0
03F0
0070
0010
FFF0
FFF0
FFF0
ENDCHAR
STARTCHAR greaterequal
ENCODING 8805
SWIDTH 570 0
DWIDTH 14 0
BBX 12 16 1 0
BITMAP
8000
E000
F800
7E00
0F80
03E0
00F0
03F0
0FC0
3F00
FC00
E000
8000
FFF0
FFF0
FFF0
ENDCHAR
STARTCHAR lozenge
ENCODING 9674
SWIDTH 583 0
DWIDTH 14 0
BBX 12 17 1 0
BITMAP
0600
0F00
0F00
1F80
1F80
39C0
70E0
70E0
E070
70E0
70E0
39C0
1F80
1F80
0F00
0F00
0600
ENDCHAR
STARTCHAR ff
ENCODING 64256
SWIDTH 773 0
DWIDTH 19 0
BBX 19 18 0 0
BITMAP
0FC7E0
1FCFE0
1F8FE0
3C0F00
3C0E00
7F9FC0
FFBFC0
FFBFC0
3C0E00
3C0E00
3C0E00
3C0E00
3C0E00
3C0E00
3C0E00
3C0E00
3C0E00
3C0E00
ENDCHAR
STARTCHAR uniFB01
ENCODING 64257
SWIDTH 691 0
DWIDTH 17 0
BBX 15 18 0 0
BITMAP
0FDC
1FDE
1F9E
3C1C
3C00
7F9E
FF9E
FF9E
3C1E
3C1E
3C1E
3C1E
3C1E
3C1E
3C1E
3C1E
3C1E
3C1E
ENDCHAR
STARTCHAR uniFB02
ENCODING 64258
SWIDTH 691 0
DWIDTH 17 0
BBX 15 18 0 0
BITMAP
0FDE
1FDE
1F9E
3C1E
3C1E
7F9E
FF9E
FF9E
3C1E
3C1E
3C1E
3C1E
3C1E
3C1E
3C1E
3C1E
3C1E
3C1E
ENDCHAR
STARTCHAR uniFB03
ENCODING 64259
SWIDTH 1078 0
DWIDTH 26 0
BBX 24 18 0 0
BITMAP
0FC7E7
1FCFEF
1F8FEF
3C0F07
3C0E00
7F9FCF
FFBFCF
FFBFCF
3C0E0F
3C0E0F
3C0E0F
3C0E0F
3C0E0F
3C0E0F
3C0E0F
3C0E0F
3C0E0F
3C0E0F
ENDCHAR
STARTCHAR uniFB04
ENCODING 64260
SWIDTH 1078 0
DWIDTH 26 0
BBX 24 18 0 0
BITMAP
0FC7EF
1FCFEF
1F8FEF
3C0F0F
3C0E0F
7F9FCF
FFBFCF
FFBFCF
3C0E0F
3C0E0F
3C0E0F
3C0E0F
3C0E0F
3C0E0F
3C0E0F
3C0E0F
3C0E0F
3C0E0F
ENDCHAR
STARTCHAR uniFEFF
ENCODING 65279
SWIDTH 0 0
DWIDTH 0 0
BBX 1 1 0 0
BITMAP
00
ENDCHAR
STARTCHAR uniFFFC
ENCODING 65532
SWIDTH 1000 0
DWIDTH 24 0
BBX 22 22 1 -4
BITMAP
F73B9C
800004
800004
800004
000000
800004
800004
8F3C64
19B660
98B664
90BC64
98B664
99B664
0F3CC0
800004
800004
800004
000000
800004
800004
800004
F73B9C
ENDCHAR
STARTCHAR uniFFFD
ENCODING 65533
SWIDTH 1000 0
DWIDTH 24 0
BBX 21 22 1 -4
BITMAP
002000
007000
00F800
01FC00
03FE00
070700
0E0180
1F31C0
3FF1E0
7FF1F0
FFE3F8
FFC7F8
7F8FF0
3F8FE0
1FFFC0
0FFF80
078F00
038E00
018C00
00F800
007000
002000
ENDCHAR
STARTCHAR .notdef
ENCODING -1
SWIDTH 600 0
DWIDTH 14 0
BBX 10 17 2 0
BITMAP
FFC0
8040
8040
8040
8040
8040
8040
8040
8040
8040
8040
8040
8040
8040
8040
8040
FFC0
ENDCHAR
STARTCHAR null
ENCODING -1
SWIDTH 0 0
DWIDTH 0 0
BBX 1 1 0 0
BITMAP
00
ENDCHAR
STARTCHAR nonmarkingreturn
ENCODING -1
SWIDTH 509 0
DWIDTH 12 0
BBX 1 1 0 0
BITMAP
00
ENDCHAR
STARTCHAR I.alt
ENCODING -1
SWIDTH 389 0
DWIDTH 9 0
BBX 7 17 1 0
BITMAP
FE
FE
7E
38
38
38
38
38
38
38
38
38
38
38
7E
FE
FE
ENDCHAR
STARTCHAR Igrave.alt
ENCODING -1
SWIDTH 389 0
DWIDTH 9 0
BBX 7 23 1 0
BITMAP
F0
78
3C
1C
00
00
FE
FE
7E
38
38
38
38
38
38
38
38
38
38
38
7E
FE
FE
ENDCHAR
STARTCHAR Iacute.alt
ENCODING -1
SWIDTH 389 0
DWIDTH 9 0
BBX 8 23 1 0
BITMAP
0F
0E
1C
38
00
00
FE
FE
7E
38
38
38
38
38
38
38
38
38
38
38
7E
FE
FE
ENDCHAR
STARTCHAR Icircumflex.alt
ENCODING -1
SWIDTH 389 0
DWIDTH 9 0
BBX 10 23 0 0
BITMAP
3E00
3F00
7380
E1C0
0000
0000
7F00
7F00
3F00
1C00
1C00
1C00
1C00
1C00
1C00
1C00
1C00
1C00
1C00
1C00
3F00
7F00
7F00
ENDCHAR
STARTCHAR Idieresis.alt
ENCODING -1
SWIDTH 389 0
DWIDTH 9 0
BBX 8 22 1 0
BITMAP
E7
E7
E7
00
00
FE
FE
7E
38
38
38
38
38
38
38
38
38
38
38
7E
FE
FE
ENDCHAR
STARTCHAR Itilde.alt
ENCODING -1
SWIDTH 389 0
DWIDTH 9 0
BBX 10 23 0 0
BITMAP
70C0
7D80
FF80
C700
0000
0000
7F00
7F00
3F00
1C00
1C00
1C00
1C00
1C00
1C00
1C00
1C00
1C00
1C00
1C00
3F00
7F00
7F00
ENDCHAR
STARTCHAR Imacron.alt
ENCODING -1
SWIDTH 389 0
DWIDTH 9 0
BBX 8 21 1 0
BITMAP
FF
FF
00
00
FE
FE
7E
38
38
38
38
38
38
38
38
38
38
38
7E
FE
FE
ENDCHAR
STARTCHAR Ibreve.alt
ENCODING -1
SWIDTH 389 0
DWIDTH 9 0
BBX 9 23 0 0
BITMAP
C180
7F80
7F00
3E00
0000
0000
7F00
7F00
3F00
1C00
1C00
1C00
1C00
1C00
1C00
1C00
1C00
1C00
1C00
1C00
3F00
7F00
7F00
ENDCHAR
STARTCHAR Iogonek.alt
ENCODING -1
SWIDTH 389 0
DWIDTH 9 0
BBX 7 23 1 -6
BITMAP
FE
FE
7E
38
38
38
38
38
38
38
38
38
38
38
7E
FE
FE
30
60
60
60
78
38
ENDCHAR
STARTCHAR Idotaccent.alt
ENCODING -1
SWIDTH 389 0
DWIDTH 9 0
BBX 7 22 1 0
BITMAP
38
3C
38
00
00
FE
FE
7E
38
38
38
38
38
38
38
38
38
38
38
7E
FE
FE
ENDCHAR
STARTCHAR IJ.alt
ENCODING -1
SWIDTH 720 0
DWIDTH 17 0
BBX 14 22 1 -5
BITMAP
FE3C
FE3C
7E3C
383C
383C
383C
383C
383C
383C
383C
383C
383C
383C
383C
7E3C
FE3C
FE3C
003C
003C
01F8
01F8
01E0
ENDCHAR
STARTCHAR Iotatonos.alt
ENCODING -1
SWIDTH 512 0
DWIDTH 12 0
BBX 12 18 -1 0
BITMAP
7000
77F0
E7F0
E3E0
C1C0
01C0
01C0
01C0
01C0
01C0
01C0
01C0
01C0
01C0
01C0
03F0
07F0
07F0
ENDCHAR
STARTCHAR Iota.alt
ENCODING -1
SWIDTH 389 0
DWIDTH 9 0
BBX 7 17 1 0
BITMAP
FE
FE
7E
38
38
38
38
38
38
38
38
38
38
38
7E
FE
FE
ENDCHAR
STARTCHAR Iotadieresis.alt
ENCODING -1
SWIDTH 389 0
DWIDTH 9 0
BBX 8 22 1 0
BITMAP
E7
E7
E7
00
00
FE
FE
7E
38
38
38
38
38
38
38
38
38
38
38
7E
FE
FE
ENDCHAR
STARTCHAR afii10055.alt
ENCODING -1
SWIDTH 389 0
DWIDTH 9 0
BBX 7 17 1 0
BITMAP
FE
FE
7E
38
38
38
38
38
38
38
38
38
38
38
7E
FE
FE
ENDCHAR
STARTCHAR afii10056.alt
ENCODING -1
SWIDTH 389 0
DWIDTH 9 0
BBX 8 22 1 0
BITMAP
E7
E7
E7
00
00
FE
FE
7E
38
38
38
38
38
38
38
38
38
38
38
7E
FE
FE
ENDCHAR
STARTCHAR cyrillicbreve
ENCODING -1
SWIDTH 577 0
DWIDTH 14 0
BBX 12 4 1 15
BITMAP
F0F0
70E0
7FE0
3F80
ENDCHAR
STARTCHAR caroncommaaccent
ENCODING -1
SWIDTH 500 0
DWIDTH 12 0
BBX 4 4 4 14
BITMAP
70
70
E0
C0
ENDCHAR
STARTCHAR commaaccent
ENCODING -1
SWIDTH 500 0
DWIDTH 12 0
BBX 4 4 4 -5
BITMAP
70
70
E0
C0
ENDCHAR
STARTCHAR commaaccentrotate
ENCODING -1
SWIDTH 500 0
DWIDTH 12 0
BBX 4 4 4 15
BITMAP
30
70
E0
E0
ENDCHAR
STARTCHAR dasiaoxia
ENCODING -1
SWIDTH 250 0
DWIDTH 6 0
BBX 8 4 1 13
BITMAP
37
47
E6
64
ENDCHAR
STARTCHAR uni04C0.alt
ENCODING -1
SWIDTH 389 0
DWIDTH 9 0
BBX 7 17 1 0
BITMAP
FE
FE
7E
38
38
38
38
38
38
38
38
38
38
38
7E
FE
FE
ENDCHAR
STARTCHAR uni04CF.alt
ENCODING -1
SWIDTH 389 0
DWIDTH 9 0
BBX 7 17 1 0
BITMAP
FE
FE
7E
38
38
38
38
38
38
38
38
38
38
38
7E
FE
FE
ENDCHAR
STARTCHAR uni1EC8.alt
ENCODING -1
SWIDTH 389 0
DWIDTH 9 0
BBX 7 24 1 0
BITMAP
7C
7C
0E
0E
3C
18
00
FE
FE
7E
38
38
38
38
38
38
38
38
38
38
38
7E
FE
FE
ENDCHAR
STARTCHAR uni1ECA.alt
ENCODING -1
SWIDTH 389 0
DWIDTH 9 0
BBX 7 23 1 -6
BITMAP
FE
FE
7E
38
38
38
38
38
38
38
38
38
38
38
7E
FE
FE
00
00
38
3C
38
10
ENDCHAR
STARTCHAR circumflexacutecomb
ENCODING -1
SWIDTH 0 0
DWIDTH 0 0
BBX 12 6 -11 15
BITMAP
0070
00E0
3DC0
7E00
E600
C300
ENDCHAR
STARTCHAR circumflexgravecomb
ENCODING -1
SWIDTH 0 0
DWIDTH 0 0
BBX 12 6 -15 15
BITMAP
E000
7000
33C0
07E0
0E60
0C30
ENDCHAR
STARTCHAR circumflexhookcomb
ENCODING -1
SWIDTH 0 0
DWIDTH 0 0
BBX 11 6 -11 15
BITMAP
01C0
01E0
3C40
7E80
E600
C300
ENDCHAR
STARTCHAR circumflextildecomb
ENCODING -1
SWIDTH 0 0
DWIDTH 0 0
BBX 8 6 -11 15
BITMAP
73
FF
8E
3C
7E
C7
ENDCHAR
STARTCHAR breveacutecomb
ENCODING -1
SWIDTH 0 0
DWIDTH 0 0
BBX 8 6 -11 15
BITMAP
0C
1C
9B
C7
FE
7C
ENDCHAR
STARTCHAR brevegravecomb
ENCODING -1
SWIDTH 0 0
DWIDTH 0 0
BBX 8 6 -11 15
BITMAP
70
30
9B
C3
FE
3C
ENDCHAR
STARTCHAR brevehookcomb
ENCODING -1
SWIDTH 0 0
DWIDTH 0 0
BBX 8 7 -11 15
BITMAP
38
0C
18
93
C3
FE
3C
ENDCHAR
STARTCHAR brevetildecomb
ENCODING -1
SWIDTH 0 0
DWIDTH 0 0
BBX 8 7 -11 15
BITMAP
73
FF
8E
00
C3
FF
7C
ENDCHAR
STARTCHAR cyrillichookleft
ENCODING -1
SWIDTH 206 0
DWIDTH 5 0
BBX 5 6 0 -6
BITMAP
60
30
38
38
F8
F0
ENDCHAR
STARTCHAR cyrillicbighookUC
ENCODING -1
SWIDTH 291 0
DWIDTH 7 0
BBX 6 10 0 -6
BITMAP
1C
1C
1C
1C
1C
1C
1C
FC
FC
F0
ENDCHAR
STARTCHAR cyrillicbighookLC
ENCODING -1
SWIDTH 291 0
DWIDTH 7 0
BBX 6 9 0 -6
BITMAP
1C
1C
1C
1C
1C
1C
FC
FC
F8
ENDCHAR
STARTCHAR one.pnum
ENCODING -1
SWIDTH 480 0
DWIDTH 12 0
BBX 8 17 1 0
BITMAP
07
1F
3F
7F
F7
67
47
07
07
07
07
07
07
07
07
07
07
ENDCHAR
STARTCHAR zero.os
ENCODING -1
SWIDTH 608 0
DWIDTH 15 0
BBX 13 13 1 0
BITMAP
0F80
3FE0
7FF0
78F0
F078
F078
F078
F078
F078
78F0
7FF0
3FE0
0F80
ENDCHAR
STARTCHAR one.os
ENCODING -1
SWIDTH 492 0
DWIDTH 12 0
BBX 9 13 1 0
BITMAP
0780
0F80
3F80
7F80
F780
6780
0780
0780
0780
0780
0780
0780
0780
ENDCHAR
STARTCHAR two.os
ENCODING -1
SWIDTH 570 0
DWIDTH 14 0
BBX 12 13 1 0
BITMAP
1F80
7FC0
FFE0
71E0
00E0
01E0
03C0
0780
1F00
3C00
FFF0
FFF0
FFF0
ENDCHAR
STARTCHAR three.os
ENCODING -1
SWIDTH 570 0
DWIDTH 14 0
BBX 12 17 1 -4
BITMAP
3F80
FFE0
FFE0
61F0
00F0
00E0
01E0
1FC0
1F80
1FE0
01F0
00F0
00F0
C1F0
FFE0
FFE0
7F80
ENDCHAR
STARTCHAR four.os
ENCODING -1
SWIDTH 570 0
DWIDTH 14 0
BBX 14 17 0 -4
BITMAP
00F0
01F0
03F0
07F0
07F0
0EF0
1CF0
3CF0
38F0
70F0
FFFC
FFFC
FFFC
00F0
00F0
00F0
00F0
ENDCHAR
STARTCHAR five.os
ENCODING -1
SWIDTH 570 0
DWIDTH 14 0
BBX 12 17 1 -4
BITMAP
7FE0
7FE0
7FE0
7000
7000
7000
7F80
7FE0
7FE0
01F0
00F0
00F0
00F0
C1F0
FFE0
FFC0
7F00
ENDCHAR
STARTCHAR six.os
ENCODING -1
SWIDTH 570 0
DWIDTH 14 0
BBX 12 17 1 0
BITMAP
07E0
1FE0
3FE0
7C00
7000
F000
E7C0
EFE0
FFF0
F8F0
F070
E070
F070
78F0
7FE0
3FE0
0F80
ENDCHAR
STARTCHAR seven.os
ENCODING -1
SWIDTH 570 0
DWIDTH 14 0
BBX 12 17 1 -4
BITMAP
FFF0
FFF0
FFF0
00F0
00E0
01E0
01C0
03C0
0380
0780
0700
0F00
0F00
1E00
1E00
3C00
3C00
ENDCHAR
STARTCHAR eight.os
ENCODING -1
SWIDTH 570 0
DWIDTH 14 0
BBX 12 17 1 0
BITMAP
1F80
7FE0
7FE0
F0F0
F0F0
70E0
7FE0
3FC0
1F80
7FE0
F1F0
E070
E070
F0F0
FFF0
7FE0
1F80
ENDCHAR
STARTCHAR nine.os
ENCODING -1
SWIDTH 570 0
DWIDTH 14 0
BBX 12 17 1 -4
BITMAP
1F00
7FC0
7FE0
F1E0
E0F0
E070
E0F0
F1F0
FFF0
7F70
3E70
00F0
00E0
03E0
7FC0
7F80
7E00
ENDCHAR
STARTCHAR g.alt
ENCODING -1
SWIDTH 632 0
DWIDTH 15 0
BBX 12 19 1 -6
BITMAP
1E70
3F70
7FF0
F8F0
F070
F070
F070
F070
F070
F8F0
7FF0
3F70
1E70
00F0
00F0
40F0
7FE0
7FE0
3F80
ENDCHAR
STARTCHAR gcircumflex.alt
ENCODING -1
SWIDTH 632 0
DWIDTH 15 0
BBX 12 25 1 -6
BITMAP
0F80
1FC0
1DE0
3870
0000
0000
1E70
3F70
7FF0
F8F0
F070
F070
F070
F070
F070
F8F0
7FF0
3F70
1E70
00F0
00F0
40F0
7FE0
7FE0
3F80
ENDCHAR
STARTCHAR gbreve.alt
ENCODING -1
SWIDTH 632 0
DWIDTH 15 0
BBX 12 25 1 -6
BITMAP
3060
3FE0
1FC0
0F80
0000
0000
1E70
3F70
7FF0
F8F0
F070
F070
F070
F070
F070
F8F0
7FF0
3F70
1E70
00F0
00F0
40F0
7FE0
7FE0
3F80
ENDCHAR
STARTCHAR gdot.alt
ENCODING -1
SWIDTH 632 0
DWIDTH 15 0
BBX 12 24 1 -6
BITMAP
0700
0700
0700
0000
0000
1E70
3F70
7FF0
F8F0
F070
F070
F070
F070
F070
F8F0
7FF0
3F70
1E70
00F0
00F0
40F0
7FE0
7FE0
3F80
ENDCHAR
STARTCHAR gcommaaccent.alt
ENCODING -1
SWIDTH 632 0
DWIDTH 15 0
BBX 12 25 1 -6
BITMAP
0380
0380
0700
0700
0000
0000
1E70
3F70
7FF0
F8F0
F070
F070
F070
F070
F070
F8F0
7FF0
3F70
1E70
00F0
00F0
40F0
7FE0
7FE0
3F80
ENDCHAR
ENDFONT
